SplineFontDB: 3.0
FontName: Metlo-BoldItalic
FullName: Metlo Bold Italic
FamilyName: Metlo
Weight: Bold
Copyright: Copyright (c) 2009 Apple Inc. Copyright (c)  2006 by Tavmjong Bah. Copyright (c) 2003 by Bitstream, Inc. All Rights Reserved.
Version: 1.210
ItalicAngle: -11
UnderlinePosition: -355
UnderlineWidth: 90
Ascent: 1556
Descent: 492
InvalidEm: 0
sfntRevision: 0x0002072b
LayerCount: 2
Layer: 0 1 "Back" 1
Layer: 1 1 "Fore" 0
XUID: [1021 416 -386511576 1337144]
StyleMap: 0x0021
FSType: 0
OS2Version: 3
OS2_WeightWidthSlopeOnly: 0
OS2_UseTypoMetrics: 0
CreationTime: 1229875373
ModificationTime: 1573494851
PfmFamily: 17
TTFWeight: 700
TTFWidth: 5
LineGap: 0
VLineGap: 0
Panose: 2 11 7 9 3 3 4 11 2 4
OS2TypoAscent: 1556
OS2TypoAOffset: 0
OS2TypoDescent: -492
OS2TypoDOffset: 0
OS2TypoLinegap: 610
OS2WinAscent: 2001
OS2WinAOffset: 0
OS2WinDescent: 583
OS2WinDOffset: 0
HheadAscent: 2001
HheadAOffset: 0
HheadDescent: -583
HheadDOffset: 0
OS2SubXSize: 1331
OS2SubYSize: 1433
OS2SubXOff: 54
OS2SubYOff: 286
OS2SupXSize: 1331
OS2SupYSize: 1433
OS2SupXOff: -187
OS2SupYOff: 983
OS2StrikeYSize: 102
OS2StrikeYPos: 530
OS2CapHeight: 1493
OS2XHeight: 1120
OS2Vendor: 'PfEd'
OS2CodePages: 6000019f.1fd70000
OS2UnicodeRanges: e60002ff.500071fb.00000020.00000000
MarkAttachClasses: 1
DEI: 91125
TtTable: prep
MPPEM
PUSHW_1
 200
GT
IF
PUSHB_2
 1
 1
INSTCTRL
EIF
PUSHW_2
 2048
 2048
MUL
DUP
PUSHB_1
 1
SWAP
WCVTP
DUP
PUSHB_1
 3
SWAP
WCVTF
PUSHB_1
 23
RCVT
DUP
DUP
MPPEM
PUSHW_1
 14
LTEQ
MPPEM
PUSHB_1
 6
GTEQ
AND
IF
PUSHB_1
 52
ELSE
PUSHB_1
 40
EIF
ADD
FLOOR
DUP
ROLL
NEQ
IF
PUSHB_1
 2
CINDEX
SUB
PUSHB_1
 1
RCVT
MUL
SWAP
DIV
PUSHB_1
 2
SWAP
WCVTP
PUSHB_4
 11
 11
 5
 4
CALL
PUSHB_4
 12
 17
 5
 4
CALL
PUSHB_4
 20
 25
 5
 4
CALL
EIF
PUSHB_3
 4
 40
 9
RCVT
GT
WCVTP
PUSHB_4
 12
 19
 6
 4
CALL
PUSHB_2
 6
 1
WCVTP
PUSHB_2
 36
 1
GETINFO
LTEQ
IF
PUSHB_1
 64
GETINFO
IF
PUSHB_2
 6
 3
WCVTP
PUSHB_2
 38
 1
GETINFO
LTEQ
IF
PUSHW_1
 1024
GETINFO
IF
PUSHB_2
 6
 3
WCVTP
EIF
EIF
EIF
EIF
PUSHW_1
 511
SCANCTRL

StartChar: .notdef
Encoding: 65536 -1 0
Width: 1233
Flags: W
LayerCount: 2
Fore
SplineSet
104 -362 m 1,0,-1
 104 1444 l 1,1,-1
 1128 1444 l 1,2,-1
 1128 -362 l 1,3,-1
 104 -362 l 1,0,-1
219 -248 m 1,4,-1
 1014 -248 l 1,5,-1
 1014 1329 l 1,6,-1
 219 1329 l 1,7,-1
 219 -248 l 1,4,-1
EndSplineSet
EndChar

StartChar: exclam
Encoding: 33 33 4
Width: 1233
GlyphClass: 2
Flags: W
LayerCount: 2
Fore
SplineSet
393 283 m 1,0,-1
 659 283 l 1,1,-1
 604 0 l 1,2,-1
 338 0 l 1,3,-1
 393 283 l 1,0,-1
629 1493 m 1,4,-1
 895 1493 l 1,5,-1
 768 838 l 1,6,-1
 666 481 l 1,7,-1
 467 481 l 1,8,-1
 500 838 l 1,9,-1
 629 1493 l 1,4,-1
EndSplineSet
EndChar

StartChar: quotedbl
Encoding: 34 34 5
Width: 1233
GlyphClass: 2
Flags: W
LayerCount: 2
Fore
SplineSet
999 1493 m 1,0,-1
 999 938 l 1,1,-1
 743 938 l 1,2,-1
 743 1493 l 1,3,-1
 999 1493 l 1,0,-1
487 1493 m 1,4,-1
 487 938 l 1,5,-1
 231 938 l 1,6,-1
 231 1493 l 1,7,-1
 487 1493 l 1,4,-1
EndSplineSet
EndChar

StartChar: numbersign
Encoding: 35 35 6
Width: 1233
GlyphClass: 2
Flags: W
LayerCount: 2
Fore
SplineSet
752 881 m 1,0,-1
 549 881 l 1,1,-1
 475 588 l 1,2,-1
 678 588 l 1,3,-1
 752 881 l 1,0,-1
696 1470 m 1,4,-1
 602 1096 l 1,5,-1
 807 1096 l 1,6,-1
 901 1470 l 1,7,-1
 1122 1470 l 1,8,-1
 1028 1096 l 1,9,-1
 1268 1096 l 1,10,-1
 1214 881 l 1,11,-1
 973 881 l 1,12,-1
 901 588 l 1,13,-1
 1141 588 l 1,14,-1
 1087 373 l 1,15,-1
 846 373 l 1,16,-1
 752 0 l 1,17,-1
 530 0 l 1,18,-1
 625 373 l 1,19,-1
 420 373 l 1,20,-1
 326 0 l 1,21,-1
 104 0 l 1,22,-1
 199 373 l 1,23,-1
 -41 373 l 1,24,-1
 12 588 l 1,25,-1
 254 588 l 1,26,-1
 326 881 l 1,27,-1
 86 881 l 1,28,-1
 139 1096 l 1,29,-1
 381 1096 l 1,30,-1
 475 1470 l 1,31,-1
 696 1470 l 1,4,-1
EndSplineSet
EndChar

StartChar: dollar
Encoding: 36 36 7
Width: 1233
GlyphClass: 2
Flags: W
LayerCount: 2
Fore
SplineSet
647 532 m 1,0,-1
 588 227 l 1,1,2
 670 238 670 238 719 285.5 c 128,-1,3
 768 333 768 333 768 401 c 0,4,5
 768 453 768 453 739.5 484 c 128,-1,6
 711 515 711 515 647 532 c 1,0,-1
561 821 m 1,7,-1
 614 1099 l 1,8,9
 542 1090 542 1090 500.5 1045 c 128,-1,10
 459 1000 459 1000 459 932 c 0,11,12
 459 890 459 890 485 861.5 c 128,-1,13
 511 833 511 833 561 821 c 1,7,-1
485 -301 m 1,14,-1
 344 -301 l 1,15,-1
 401 0 l 1,16,17
 316 2 316 2 226 25 c 128,-1,18
 136 48 136 48 39 92 c 1,19,-1
 90 354 l 1,20,21
 179 293 179 293 268 260 c 128,-1,22
 357 227 357 227 444 223 c 1,23,-1
 512 569 l 1,24,25
 355 609 355 609 277 691 c 128,-1,26
 199 773 199 773 199 897 c 0,27,28
 199 1074 199 1074 326.5 1192.5 c 128,-1,29
 454 1311 454 1311 657 1319 c 1,30,-1
 705 1556 l 1,31,-1
 846 1556 l 1,32,-1
 799 1319 l 1,33,34
 870 1315 870 1315 943 1301 c 128,-1,35
 1016 1287 1016 1287 1092 1262 c 1,36,-1
 1042 1012 l 1,37,38
 982 1051 982 1051 910.5 1073 c 128,-1,39
 839 1095 839 1095 758 1100 c 1,40,-1
 694 782 l 1,41,42
 866 736 866 736 947 652 c 128,-1,43
 1028 568 1028 568 1028 438 c 0,44,45
 1028 254 1028 254 896.5 134.5 c 128,-1,46
 765 15 765 15 543 0 c 1,47,-1
 485 -301 l 1,14,-1
EndSplineSet
EndChar

StartChar: percent
Encoding: 37 37 8
Width: 1233
GlyphClass: 2
Flags: W
LayerCount: 2
Fore
SplineSet
33 1112 m 256,0,1
 33 1246 33 1246 126 1339 c 128,-1,2
 219 1432 219 1432 352 1432 c 256,3,4
 485 1432 485 1432 578.5 1338.5 c 128,-1,5
 672 1245 672 1245 672 1112 c 256,6,7
 672 979 672 979 578.5 886 c 128,-1,8
 485 793 485 793 352 793 c 256,9,10
 219 793 219 793 126 885.5 c 128,-1,11
 33 978 33 978 33 1112 c 256,0,1
352 1249 m 256,12,13
 295 1249 295 1249 255 1209.5 c 128,-1,14
 215 1170 215 1170 215 1112 c 256,15,16
 215 1054 215 1054 255 1014.5 c 128,-1,17
 295 975 295 975 352 975 c 0,18,19
 410 975 410 975 449.5 1014.5 c 128,-1,20
 489 1054 489 1054 489 1112 c 0,21,22
 489 1169 489 1169 449 1209 c 128,-1,23
 409 1249 409 1249 352 1249 c 256,12,13
86 561 m 1,24,-1
 1128 979 l 1,25,-1
 1169 883 l 1,26,-1
 121 465 l 1,27,-1
 86 561 l 1,24,-1
580 319 m 256,28,29
 580 453 580 453 672.5 546 c 128,-1,30
 765 639 765 639 899 639 c 0,31,32
 1031 639 1031 639 1125 545.5 c 128,-1,33
 1219 452 1219 452 1219 319 c 0,34,35
 1219 187 1219 187 1125 93.5 c 128,-1,36
 1031 0 1031 0 899 0 c 0,37,38
 765 0 765 0 672.5 92.5 c 128,-1,39
 580 185 580 185 580 319 c 256,28,29
897 457 m 0,40,41
 841 457 841 457 801.5 417 c 128,-1,42
 762 377 762 377 762 319 c 256,43,44
 762 261 762 261 801 221.5 c 128,-1,45
 840 182 840 182 897 182 c 0,46,47
 955 182 955 182 995.5 222 c 128,-1,48
 1036 262 1036 262 1036 319 c 256,49,50
 1036 376 1036 376 995 416.5 c 128,-1,51
 954 457 954 457 897 457 c 0,40,41
EndSplineSet
EndChar

StartChar: ampersand
Encoding: 38 38 9
Width: 1233
GlyphClass: 2
Flags: W
LayerCount: 2
Fore
SplineSet
739 72 m 1,0,1
 653 22 653 22 563.5 -3.5 c 128,-1,2
 474 -29 474 -29 387 -29 c 0,3,4
 195 -29 195 -29 81 77.5 c 128,-1,5
 -33 184 -33 184 -33 360 c 0,6,7
 -33 523 -33 523 65.5 665.5 c 128,-1,8
 164 808 164 808 350 913 c 1,9,10
 324 971 324 971 311.5 1021 c 128,-1,11
 299 1071 299 1071 299 1118 c 0,12,13
 299 1301 299 1301 433 1410.5 c 128,-1,14
 567 1520 567 1520 795 1520 c 0,15,16
 865 1520 865 1520 932.5 1509 c 128,-1,17
 1000 1498 1000 1498 1065 1477 c 1,18,-1
 1016 1221 l 1,19,20
 962 1256 962 1256 898 1275 c 128,-1,21
 834 1294 834 1294 768 1294 c 0,22,23
 680 1294 680 1294 633 1258.5 c 128,-1,24
 586 1223 586 1223 586 1157 c 0,25,26
 586 1123 586 1123 605 1065 c 128,-1,27
 624 1007 624 1007 664 920 c 2,28,-1
 885 440 l 1,29,30
 927 498 927 498 951 575 c 128,-1,31
 975 652 975 652 979 745 c 1,32,-1
 1214 745 l 1,33,34
 1203 588 1203 588 1143 462.5 c 128,-1,35
 1083 337 1083 337 975 246 c 1,36,-1
 1090 0 l 1,37,-1
 774 0 l 1,38,-1
 739 72 l 1,0,1
436 731 m 1,39,40
 346 679 346 679 299 604.5 c 128,-1,41
 252 530 252 530 252 438 c 0,42,43
 252 339 252 339 315.5 273 c 128,-1,44
 379 207 379 207 473 207 c 0,45,46
 517 207 517 207 562 220.5 c 128,-1,47
 607 234 607 234 653 262 c 1,48,-1
 436 731 l 1,39,40
EndSplineSet
EndChar

StartChar: quotesingle
Encoding: 39 39 10
Width: 1233
GlyphClass: 2
Flags: W
LayerCount: 2
Fore
SplineSet
743 1493 m 1,0,-1
 743 938 l 1,1,-1
 487 938 l 1,2,-1
 487 1493 l 1,3,-1
 743 1493 l 1,0,-1
EndSplineSet
EndChar

StartChar: parenleft
Encoding: 40 40 11
Width: 1233
GlyphClass: 2
Flags: W
LayerCount: 2
Fore
SplineSet
1079 1556 m 1,0,1
 846 1244 846 1244 729 942.5 c 128,-1,2
 612 641 612 641 612 348 c 0,3,4
 612 205 612 205 640 51.5 c 128,-1,5
 668 -102 668 -102 725 -268 c 1,6,-1
 500 -268 l 1,7,8
 418 -96 418 -96 378 69 c 128,-1,9
 338 234 338 234 338 395 c 0,10,11
 338 685 338 685 467.5 976 c 128,-1,12
 597 1267 597 1267 854 1556 c 1,13,-1
 1079 1556 l 1,0,1
EndSplineSet
EndChar

StartChar: parenright
Encoding: 41 41 12
Width: 1233
GlyphClass: 2
Flags: W
LayerCount: 2
Fore
SplineSet
113 -268 m 1,0,1
 346 44 346 44 463 345.5 c 128,-1,2
 580 647 580 647 580 940 c 0,3,4
 580 1083 580 1083 552 1236.5 c 128,-1,5
 524 1390 524 1390 467 1556 c 1,6,-1
 692 1556 l 1,7,8
 773 1385 773 1385 813.5 1220 c 128,-1,9
 854 1055 854 1055 854 893 c 0,10,11
 854 603 854 603 724.5 312 c 128,-1,12
 595 21 595 21 338 -268 c 1,13,-1
 113 -268 l 1,0,1
EndSplineSet
EndChar

StartChar: asterisk
Encoding: 42 42 13
Width: 1233
GlyphClass: 2
Flags: W
LayerCount: 2
Fore
SplineSet
1175 1137 m 1,0,-1
 762 914 l 1,1,-1
 1176 689 l 1,2,-1
 1088 537 l 1,3,-1
 697 773 l 1,4,-1
 697 336 l 1,5,-1
 520 336 l 1,6,-1
 520 772 l 1,7,8
 425 715 425 715 324 654 c 128,-1,9
 223 593 223 593 129 537 c 1,10,-1
 42 689 l 1,11,-1
 457 914 l 1,12,-1
 43 1137 l 1,13,-1
 129 1290 l 1,14,-1
 520 1055 l 1,15,-1
 520 1491 l 1,16,-1
 697 1491 l 1,17,-1
 697 1055 l 1,18,19
 793 1112 793 1112 893.5 1173 c 128,-1,20
 994 1234 994 1234 1088 1290 c 1,21,-1
 1175 1137 l 1,0,-1
EndSplineSet
EndChar

StartChar: plus
Encoding: 43 43 14
Width: 1233
GlyphClass: 2
Flags: W
LayerCount: 2
Fore
SplineSet
736 1192 m 1,0,-1
 736 762 l 1,1,-1
 1166 762 l 1,2,-1
 1166 524 l 1,3,-1
 736 524 l 1,4,-1
 736 92 l 1,5,-1
 498 92 l 1,6,-1
 498 524 l 1,7,-1
 66 524 l 1,8,-1
 66 762 l 1,9,-1
 498 762 l 1,10,-1
 498 1192 l 1,11,-1
 736 1192 l 1,0,-1
EndSplineSet
EndChar

StartChar: comma
Encoding: 44 44 15
Width: 1233
GlyphClass: 2
Flags: W
LayerCount: 2
Fore
SplineSet
434 367 m 1,0,-1
 748 367 l 1,1,-1
 694 96 l 1,2,-1
 424 -287 l 1,3,-1
 209 -287 l 1,4,-1
 381 96 l 1,5,-1
 434 367 l 1,0,-1
EndSplineSet
EndChar

StartChar: hyphen
Encoding: 45 45 16
Width: 1233
GlyphClass: 2
Flags: W
LayerCount: 2
Fore
SplineSet
123 724 m 1,0,-1
 1183 724 l 1,1,-1
 1140 455 l 1,2,-1
 80 455 l 1,3,-1
 123 724 l 1,0,-1
EndSplineSet
EndChar

StartChar: period
Encoding: 46 46 17
Width: 1233
GlyphClass: 2
Flags: W
LayerCount: 2
Fore
SplineSet
418 367 m 1,0,-1
 752 367 l 1,1,-1
 682 0 l 1,2,-1
 348 0 l 1,3,-1
 418 367 l 1,0,-1
EndSplineSet
EndChar

StartChar: slash
Encoding: 47 47 18
Width: 1233
GlyphClass: 2
Flags: W
LayerCount: 2
Fore
SplineSet
852 1493 m 1,0,-1
 1075 1493 l 1,1,-1
 221 -190 l 1,2,-1
 0 -190 l 1,3,-1
 852 1493 l 1,0,-1
EndSplineSet
EndChar

StartChar: zero
Encoding: 48 48 19
Width: 1233
GlyphClass: 2
Flags: W
LayerCount: 2
Fore
SplineSet
489 745 m 256,0,1
 489 798 489 798 525.5 834 c 128,-1,2
 562 870 562 870 614 870 c 0,3,4
 667 870 667 870 704 833.5 c 128,-1,5
 741 797 741 797 741 745 c 0,6,7
 741 694 741 694 704 657.5 c 128,-1,8
 667 621 667 621 614 621 c 0,9,10
 562 621 562 621 525.5 656.5 c 128,-1,11
 489 692 489 692 489 745 c 256,0,1
383 440 m 0,12,13
 383 327 383 327 417 273 c 128,-1,14
 451 219 451 219 522 219 c 0,15,16
 586 219 586 219 639.5 272 c 128,-1,17
 693 325 693 325 729 424 c 0,18,19
 783 576 783 576 815.5 750 c 128,-1,20
 848 924 848 924 848 1051 c 0,21,22
 848 1165 848 1165 815 1218.5 c 128,-1,23
 782 1272 782 1272 711 1272 c 0,24,25
 644 1272 644 1272 591 1220 c 128,-1,26
 538 1168 538 1168 502 1067 c 0,27,28
 448 918 448 918 415.5 744 c 128,-1,29
 383 570 383 570 383 440 c 0,12,13
1143 1071 m 0,30,31
 1143 858 1143 858 1092 638.5 c 128,-1,32
 1041 419 1041 419 956 260 c 0,33,34
 883 123 883 123 762.5 47 c 128,-1,35
 642 -29 642 -29 498 -29 c 0,36,37
 305 -29 305 -29 197.5 89 c 128,-1,38
 90 207 90 207 90 420 c 0,39,40
 90 631 90 631 140.5 852 c 128,-1,41
 191 1073 191 1073 274 1229 c 0,42,43
 348 1366 348 1366 469 1443 c 128,-1,44
 590 1520 590 1520 733 1520 c 0,45,46
 926 1520 926 1520 1034.5 1401.5 c 128,-1,47
 1143 1283 1143 1283 1143 1071 c 0,30,31
EndSplineSet
EndChar

StartChar: one
Encoding: 49 49 20
Width: 1233
GlyphClass: 2
Flags: W
LayerCount: 2
Fore
SplineSet
94 260 m 1,0,-1
 424 260 l 1,1,-1
 612 1229 l 1,2,-1
 291 1153 l 1,3,-1
 342 1419 l 1,4,-1
 668 1493 l 1,5,-1
 950 1493 l 1,6,-1
 711 260 l 1,7,-1
 1020 260 l 1,8,-1
 969 0 l 1,9,-1
 43 0 l 1,10,-1
 94 260 l 1,0,-1
EndSplineSet
EndChar

StartChar: two
Encoding: 50 50 21
Width: 1233
GlyphClass: 2
Flags: W
LayerCount: 2
Fore
SplineSet
354 260 m 1,0,-1
 971 260 l 1,1,-1
 920 0 l 1,2,-1
 -29 0 l 1,3,-1
 20 252 l 1,4,-1
 297 500 l 2,5,6
 348 546 348 546 442 628 c 0,7,8
 844 982 844 982 844 1135 c 0,9,10
 844 1207 844 1207 788 1247.5 c 128,-1,11
 732 1288 732 1288 633 1288 c 0,12,13
 551 1288 551 1288 447 1258.5 c 128,-1,14
 343 1229 343 1229 225 1171 c 1,15,-1
 276 1438 l 1,16,17
 385 1478 385 1478 492 1499 c 128,-1,18
 599 1520 599 1520 700 1520 c 0,19,20
 893 1520 893 1520 1014 1425 c 128,-1,21
 1135 1330 1135 1330 1135 1180 c 0,22,23
 1135 931 1135 931 681 542 c 2,24,-1
 641 508 l 1,25,-1
 354 260 l 1,0,-1
EndSplineSet
EndChar

StartChar: three
Encoding: 51 51 22
Width: 1233
GlyphClass: 2
Flags: W
LayerCount: 2
Fore
SplineSet
514 668 m 2,0,-1
 356 668 l 1,1,-1
 408 928 l 1,2,-1
 565 928 l 2,3,4
 689 928 689 928 766.5 983.5 c 128,-1,5
 844 1039 844 1039 844 1124 c 0,6,7
 844 1194 844 1194 786.5 1232 c 128,-1,8
 729 1270 729 1270 623 1270 c 0,9,10
 540 1270 540 1270 440.5 1249 c 128,-1,11
 341 1228 341 1228 231 1188 c 1,12,-1
 285 1456 l 1,13,14
 389 1488 389 1488 485.5 1504 c 128,-1,15
 582 1520 582 1520 670 1520 c 0,16,17
 874 1520 874 1520 997 1423 c 128,-1,18
 1120 1326 1120 1326 1120 1167 c 0,19,20
 1120 1027 1120 1027 1025.5 930.5 c 128,-1,21
 931 834 931 834 764 805 c 1,22,23
 898 769 898 769 964 687 c 128,-1,24
 1030 605 1030 605 1030 473 c 0,25,26
 1030 243 1030 243 866.5 107 c 128,-1,27
 703 -29 703 -29 422 -29 c 0,28,29
 320 -29 320 -29 205.5 -10 c 128,-1,30
 91 9 91 9 -31 45 c 1,31,-1
 23 315 l 1,32,33
 119 269 119 269 222.5 245 c 128,-1,34
 326 221 326 221 434 221 c 0,35,36
 588 221 588 221 669 289.5 c 128,-1,37
 750 358 750 358 750 487 c 0,38,39
 750 569 750 569 685.5 618.5 c 128,-1,40
 621 668 621 668 514 668 c 2,0,-1
EndSplineSet
EndChar

StartChar: four
Encoding: 52 52 23
Width: 1233
GlyphClass: 2
Flags: W
LayerCount: 2
Fore
SplineSet
772 1153 m 1,0,-1
 289 575 l 1,1,-1
 662 575 l 1,2,-1
 772 1153 l 1,0,-1
811 1493 m 1,3,-1
 1120 1493 l 1,4,-1
 942 575 l 1,5,-1
 1106 575 l 1,6,-1
 1057 322 l 1,7,-1
 893 322 l 1,8,-1
 831 0 l 1,9,-1
 549 0 l 1,10,-1
 612 322 l 1,11,-1
 18 322 l 1,12,-1
 76 608 l 1,13,-1
 811 1493 l 1,3,-1
EndSplineSet
EndChar

StartChar: five
Encoding: 53 53 24
Width: 1233
GlyphClass: 2
Flags: W
LayerCount: 2
Fore
SplineSet
340 1493 m 1,0,-1
 1151 1493 l 1,1,-1
 1100 1233 l 1,2,-1
 528 1233 l 1,3,-1
 475 956 l 1,4,5
 508 969 508 969 544 975 c 128,-1,6
 580 981 580 981 621 981 c 0,7,8
 818 981 818 981 934.5 864.5 c 128,-1,9
 1051 748 1051 748 1051 551 c 0,10,11
 1051 284 1051 284 873 127.5 c 128,-1,12
 695 -29 695 -29 387 -29 c 0,13,14
 292 -29 292 -29 196.5 -13 c 128,-1,15
 101 3 101 3 6 35 c 1,16,-1
 57 301 l 1,17,18
 127 261 127 261 212.5 240 c 128,-1,19
 298 219 298 219 393 219 c 0,20,21
 565 219 565 219 664.5 298 c 128,-1,22
 764 377 764 377 764 512 c 0,23,24
 764 616 764 616 693 676.5 c 128,-1,25
 622 737 622 737 500 737 c 0,26,27
 422 737 422 737 339.5 717 c 128,-1,28
 257 697 257 697 178 659 c 1,29,-1
 340 1493 l 1,0,-1
EndSplineSet
EndChar

StartChar: six
Encoding: 54 54 25
Width: 1233
GlyphClass: 2
Flags: W
LayerCount: 2
Fore
SplineSet
803 557 m 0,0,1
 803 645 803 645 757.5 696.5 c 128,-1,2
 712 748 712 748 635 748 c 0,3,4
 530 748 530 748 456.5 648 c 128,-1,5
 383 548 383 548 383 401 c 0,6,7
 383 313 383 313 428.5 260 c 128,-1,8
 474 207 474 207 549 207 c 0,9,10
 657 207 657 207 730 307 c 128,-1,11
 803 407 803 407 803 557 c 0,0,1
1169 1458 m 1,12,-1
 1118 1190 l 1,13,14
 1058 1234 1058 1234 988 1257 c 128,-1,15
 918 1280 918 1280 846 1280 c 0,16,17
 689 1280 689 1280 583 1171.5 c 128,-1,18
 477 1063 477 1063 430 854 c 1,19,20
 490 919 490 919 566 952 c 128,-1,21
 642 985 642 985 731 985 c 0,22,23
 898 985 898 985 995 873.5 c 128,-1,24
 1092 762 1092 762 1092 569 c 0,25,26
 1092 310 1092 310 938 138.5 c 128,-1,27
 784 -33 784 -33 551 -33 c 0,28,29
 324 -33 324 -33 210 92.5 c 128,-1,30
 96 218 96 218 96 469 c 0,31,32
 96 686 96 686 156.5 891 c 128,-1,33
 217 1096 217 1096 326 1247 c 0,34,35
 424 1383 424 1383 563 1450.5 c 128,-1,36
 702 1518 702 1518 887 1518 c 0,37,38
 954 1518 954 1518 1023.5 1503 c 128,-1,39
 1093 1488 1093 1488 1169 1458 c 1,12,-1
EndSplineSet
EndChar

StartChar: seven
Encoding: 55 55 26
Width: 1233
GlyphClass: 2
Flags: W
LayerCount: 2
Fore
SplineSet
262 1493 m 1,0,-1
 1225 1493 l 1,1,-1
 1184 1284 l 1,2,-1
 428 0 l 1,3,-1
 109 0 l 1,4,-1
 844 1233 l 1,5,-1
 211 1233 l 1,6,-1
 262 1493 l 1,0,-1
EndSplineSet
EndChar

StartChar: eight
Encoding: 56 56 27
Width: 1233
GlyphClass: 2
Flags: W
LayerCount: 2
Fore
SplineSet
778 477 m 0,0,1
 778 565 778 565 724.5 616.5 c 128,-1,2
 671 668 671 668 580 668 c 0,3,4
 468 668 468 668 397 592.5 c 128,-1,5
 326 517 326 517 326 399 c 0,6,7
 326 313 326 313 381.5 261 c 128,-1,8
 437 209 437 209 528 209 c 0,9,10
 637 209 637 209 707.5 284.5 c 128,-1,11
 778 360 778 360 778 477 c 0,0,1
434 799 m 1,12,13
 330 826 330 826 276.5 896.5 c 128,-1,14
 223 967 223 967 223 1077 c 0,15,16
 223 1260 223 1260 370.5 1390 c 128,-1,17
 518 1520 518 1520 731 1520 c 0,18,19
 912 1520 912 1520 1024.5 1421 c 128,-1,20
 1137 1322 1137 1322 1137 1163 c 0,21,22
 1137 1015 1137 1015 1048 913 c 128,-1,23
 959 811 959 811 809 786 c 1,24,25
 918 757 918 757 979 672.5 c 128,-1,26
 1040 588 1040 588 1040 465 c 0,27,28
 1040 245 1040 245 891.5 108 c 128,-1,29
 743 -29 743 -29 504 -29 c 0,30,31
 294 -29 294 -29 178.5 70.5 c 128,-1,32
 63 170 63 170 63 350 c 0,33,34
 63 519 63 519 162 638.5 c 128,-1,35
 261 758 261 758 434 799 c 1,12,13
485 1069 m 0,36,37
 485 996 485 996 530.5 949.5 c 128,-1,38
 576 903 576 903 647 903 c 0,39,40
 748 903 748 903 812.5 963 c 128,-1,41
 877 1023 877 1023 877 1116 c 0,42,43
 877 1195 877 1195 831 1239.5 c 128,-1,44
 785 1284 785 1284 702 1284 c 0,45,46
 610 1284 610 1284 547.5 1222 c 128,-1,47
 485 1160 485 1160 485 1069 c 0,36,37
EndSplineSet
EndChar

StartChar: nine
Encoding: 57 57 28
Width: 1233
GlyphClass: 2
Flags: W
LayerCount: 2
Fore
SplineSet
55 29 m 1,0,-1
 106 297 l 1,1,2
 167 253 167 253 237 230 c 128,-1,3
 307 207 307 207 379 207 c 0,4,5
 535 207 535 207 641 315.5 c 128,-1,6
 747 424 747 424 795 633 c 1,7,8
 734 568 734 568 658 535 c 128,-1,9
 582 502 582 502 494 502 c 0,10,11
 328 502 328 502 231.5 613 c 128,-1,12
 135 724 135 724 135 918 c 0,13,14
 135 1177 135 1177 288 1348.5 c 128,-1,15
 441 1520 441 1520 674 1520 c 0,16,17
 901 1520 901 1520 1014.5 1394 c 128,-1,18
 1128 1268 1128 1268 1128 1018 c 0,19,20
 1128 801 1128 801 1067.5 594.5 c 128,-1,21
 1007 388 1007 388 899 238 c 0,22,23
 802 102 802 102 663 35.5 c 128,-1,24
 524 -31 524 -31 338 -31 c 0,25,26
 271 -31 271 -31 201 -16 c 128,-1,27
 131 -1 131 -1 55 29 c 1,0,-1
424 928 m 0,28,29
 424 840 424 840 468.5 789.5 c 128,-1,30
 513 739 513 739 590 739 c 0,31,32
 694 739 694 739 768 839 c 128,-1,33
 842 939 842 939 842 1085 c 0,34,35
 842 1173 842 1173 796.5 1226.5 c 128,-1,36
 751 1280 751 1280 676 1280 c 0,37,38
 568 1280 568 1280 496 1179 c 128,-1,39
 424 1078 424 1078 424 928 c 0,28,29
EndSplineSet
EndChar

StartChar: colon
Encoding: 58 58 29
Width: 1233
GlyphClass: 2
Flags: W
LayerCount: 2
Fore
SplineSet
510 1059 m 1,0,-1
 844 1059 l 1,1,-1
 772 694 l 1,2,-1
 438 694 l 1,3,-1
 510 1059 l 1,0,-1
375 367 m 1,4,-1
 709 367 l 1,5,-1
 639 0 l 1,6,-1
 305 0 l 1,7,-1
 375 367 l 1,4,-1
EndSplineSet
EndChar

StartChar: semicolon
Encoding: 59 59 30
Width: 1233
GlyphClass: 2
Flags: W
LayerCount: 2
Fore
SplineSet
375 367 m 1,0,-1
 709 367 l 1,1,-1
 655 96 l 1,2,-1
 385 -287 l 1,3,-1
 170 -287 l 1,4,-1
 322 96 l 1,5,-1
 375 367 l 1,0,-1
510 1059 m 1,6,-1
 844 1059 l 1,7,-1
 772 694 l 1,8,-1
 438 694 l 1,9,-1
 510 1059 l 1,6,-1
EndSplineSet
EndChar

StartChar: less
Encoding: 60 60 31
Width: 1233
GlyphClass: 2
Flags: W
LayerCount: 2
Fore
SplineSet
1145 926 m 1,0,-1
 350 641 l 1,1,-1
 1145 358 l 1,2,-1
 1145 109 l 1,3,-1
 88 524 l 1,4,-1
 88 760 l 1,5,-1
 1145 1176 l 1,6,-1
 1145 926 l 1,0,-1
EndSplineSet
EndChar

StartChar: equal
Encoding: 61 61 32
Width: 1233
GlyphClass: 2
Flags: W
LayerCount: 2
Fore
SplineSet
88 532 m 1,0,-1
 1145 532 l 1,1,-1
 1145 295 l 1,2,-1
 88 295 l 1,3,-1
 88 532 l 1,0,-1
88 987 m 1,4,-1
 1145 987 l 1,5,-1
 1145 752 l 1,6,-1
 88 752 l 1,7,-1
 88 987 l 1,4,-1
EndSplineSet
EndChar

StartChar: greater
Encoding: 62 62 33
Width: 1233
GlyphClass: 2
Flags: W
LayerCount: 2
Fore
SplineSet
88 926 m 1,0,-1
 88 1176 l 1,1,-1
 1145 760 l 1,2,-1
 1145 524 l 1,3,-1
 88 109 l 1,4,-1
 88 358 l 1,5,-1
 883 641 l 1,6,-1
 88 926 l 1,0,-1
EndSplineSet
EndChar

StartChar: question
Encoding: 63 63 34
Width: 1233
GlyphClass: 2
Flags: W
LayerCount: 2
Fore
SplineSet
346 283 m 1,0,-1
 612 283 l 1,1,-1
 557 0 l 1,2,-1
 291 0 l 1,3,-1
 346 283 l 1,0,-1
635 401 m 1,4,-1
 369 401 l 1,5,-1
 399 555 l 2,6,7
 417 651 417 651 461 722.5 c 128,-1,8
 505 794 505 794 598 872 c 2,9,-1
 705 965 l 1,10,-1
 713 972 l 2,11,12
 858 1098 858 1098 858 1165 c 0,13,14
 858 1222 858 1222 821 1253 c 128,-1,15
 784 1284 784 1284 715 1284 c 0,16,17
 626 1284 626 1284 523.5 1247.5 c 128,-1,18
 421 1211 421 1211 305 1139 c 1,19,-1
 358 1407 l 1,20,21
 460 1462 460 1462 567 1491 c 128,-1,22
 674 1520 674 1520 778 1520 c 0,23,24
 943 1520 943 1520 1042 1437.5 c 128,-1,25
 1141 1355 1141 1355 1141 1221 c 0,26,27
 1141 1126 1141 1126 1092 1043 c 128,-1,28
 1043 960 1043 960 926 862 c 2,29,-1
 821 776 l 1,30,-1
 813 769 l 2,31,32
 687 664 687 664 659 524 c 2,33,-1
 635 401 l 1,4,-1
EndSplineSet
EndChar

StartChar: at
Encoding: 64 64 35
Width: 1233
GlyphClass: 2
Flags: W
LayerCount: 2
Fore
SplineSet
723 301 m 0,0,1
 827 301 827 301 898 392.5 c 128,-1,2
 969 484 969 484 969 621 c 0,3,4
 969 698 969 698 928.5 742 c 128,-1,5
 888 786 888 786 817 786 c 0,6,7
 714 786 714 786 642.5 696.5 c 128,-1,8
 571 607 571 607 571 477 c 0,9,10
 571 394 571 394 611 347.5 c 128,-1,11
 651 301 651 301 723 301 c 0,0,1
1067 135 m 1,12,-1
 870 135 l 1,13,-1
 887 217 l 1,14,15
 844 168 844 168 787 141.5 c 128,-1,16
 730 115 730 115 670 115 c 0,17,18
 531 115 531 115 451 203 c 128,-1,19
 371 291 371 291 371 444 c 0,20,21
 371 666 371 666 498.5 819.5 c 128,-1,22
 626 973 626 973 809 973 c 0,23,24
 881 973 881 973 933 948.5 c 128,-1,25
 985 924 985 924 1014 877 c 1,26,27
 1023 912 1023 912 1027.5 945 c 128,-1,28
 1032 978 1032 978 1032 1008 c 0,29,30
 1032 1099 1032 1099 970 1152.5 c 128,-1,31
 908 1206 908 1206 803 1206 c 0,32,33
 679 1206 679 1206 566 1142.5 c 128,-1,34
 453 1079 453 1079 365 961 c 0,35,36
 274 838 274 838 226 690 c 128,-1,37
 178 542 178 542 178 387 c 0,38,39
 178 148 178 148 296 8.5 c 128,-1,40
 414 -131 414 -131 614 -131 c 0,41,42
 693 -131 693 -131 774 -107 c 128,-1,43
 855 -83 855 -83 936 -35 c 1,44,-1
 999 -209 l 1,45,46
 892 -266 892 -266 796.5 -292.5 c 128,-1,47
 701 -319 701 -319 606 -319 c 0,48,49
 321 -319 321 -319 153.5 -128 c 128,-1,50
 -14 63 -14 63 -14 387 c 0,51,52
 -14 551 -14 551 30 709 c 128,-1,53
 74 867 74 867 158 1004 c 0,54,55
 274 1190 274 1190 442 1292.5 c 128,-1,56
 610 1395 610 1395 799 1395 c 0,57,58
 993 1395 993 1395 1111 1292.5 c 128,-1,59
 1229 1190 1229 1190 1229 1022 c 0,60,61
 1229 992 1229 992 1225.5 960 c 128,-1,62
 1222 928 1222 928 1214 892 c 2,63,-1
 1067 135 l 1,12,-1
EndSplineSet
EndChar

StartChar: A
Encoding: 65 65 36
Width: 1233
GlyphClass: 2
Flags: W
LayerCount: 2
Fore
SplineSet
717 1219 m 1,0,-1
 453 612 l 1,1,-1
 737 612 l 1,2,-1
 717 1219 l 1,0,-1
582 1493 m 1,3,-1
 942 1493 l 1,4,-1
 1055 0 l 1,5,-1
 762 0 l 1,6,-1
 748 369 l 1,7,-1
 348 369 l 1,8,-1
 186 0 l 1,9,-1
 -113 0 l 1,10,-1
 582 1493 l 1,3,-1
EndSplineSet
EndChar

StartChar: B
Encoding: 66 66 37
Width: 1233
GlyphClass: 2
Flags: W
LayerCount: 2
Fore
SplineSet
397 678 m 1,0,-1
 311 236 l 1,1,-1
 508 236 l 2,2,3
 664 236 664 236 737.5 302.5 c 128,-1,4
 811 369 811 369 811 510 c 0,5,6
 811 596 811 596 758 637 c 128,-1,7
 705 678 705 678 594 678 c 2,8,-1
 397 678 l 1,0,-1
510 1260 m 1,9,-1
 442 913 l 1,10,-1
 639 913 l 2,11,12
 760 913 760 913 821.5 967.5 c 128,-1,13
 883 1022 883 1022 883 1128 c 0,14,15
 883 1196 883 1196 840 1228 c 128,-1,16
 797 1260 797 1260 707 1260 c 2,17,-1
 510 1260 l 1,9,-1
270 1495 m 1,18,-1
 752 1495 l 2,19,20
 963 1495 963 1495 1070.5 1412 c 128,-1,21
 1178 1329 1178 1329 1178 1165 c 0,22,23
 1178 1004 1178 1004 1083 905 c 128,-1,24
 988 806 988 806 813 786 c 1,25,26
 952 774 952 774 1029 695 c 128,-1,27
 1106 616 1106 616 1106 485 c 0,28,29
 1106 377 1106 377 1068 283.5 c 128,-1,30
 1030 190 1030 190 961 127 c 0,31,32
 886 60 886 60 771 30 c 128,-1,33
 656 0 656 0 461 0 c 2,34,-1
 -20 0 l 1,35,-1
 270 1495 l 1,18,-1
EndSplineSet
EndChar

StartChar: C
Encoding: 67 67 38
Width: 1233
GlyphClass: 2
Flags: W
LayerCount: 2
Fore
SplineSet
946 43 m 1,0,1
 869 7 869 7 788.5 -11 c 128,-1,2
 708 -29 708 -29 623 -29 c 0,3,4
 384 -29 384 -29 257.5 108.5 c 128,-1,5
 131 246 131 246 131 506 c 0,6,7
 131 736 131 736 201.5 947.5 c 128,-1,8
 272 1159 272 1159 393 1296 c 0,9,10
 490 1406 490 1406 620 1463 c 128,-1,11
 750 1520 750 1520 903 1520 c 0,12,13
 985 1520 985 1520 1063.5 1502 c 128,-1,14
 1142 1484 1142 1484 1219 1448 c 1,15,-1
 1155 1120 l 1,16,17
 1105 1188 1105 1188 1032.5 1222.5 c 128,-1,18
 960 1257 960 1257 872 1257 c 0,19,20
 792 1257 792 1257 715 1208.5 c 128,-1,21
 638 1160 638 1160 584 1075 c 0,22,23
 515 968 515 968 472.5 817.5 c 128,-1,24
 430 667 430 667 430 532 c 0,25,26
 430 386 430 386 493 308.5 c 128,-1,27
 556 231 556 231 674 231 c 0,28,29
 755 231 755 231 835.5 264.5 c 128,-1,30
 916 298 916 298 1010 371 c 1,31,-1
 946 43 l 1,0,1
EndSplineSet
EndChar

StartChar: D
Encoding: 68 68 39
Width: 1233
GlyphClass: 2
Flags: W
LayerCount: 2
Fore
SplineSet
524 1227 m 1,0,-1
 338 266 l 1,1,-1
 434 266 l 2,2,3
 546 266 546 266 623 310 c 128,-1,4
 700 354 700 354 743 442 c 0,5,6
 795 548 795 548 827.5 694.5 c 128,-1,7
 860 841 860 841 860 967 c 0,8,9
 860 1099 860 1099 797.5 1163 c 128,-1,10
 735 1227 735 1227 606 1227 c 2,11,-1
 524 1227 l 1,0,-1
283 1493 m 1,12,-1
 598 1493 l 2,13,14
 883 1493 883 1493 1024 1370 c 128,-1,15
 1165 1247 1165 1247 1165 999 c 0,16,17
 1165 912 1165 912 1151.5 813.5 c 128,-1,18
 1138 715 1138 715 1110 602 c 0,19,20
 1073 451 1073 451 1021 346 c 128,-1,21
 969 241 969 241 897 172 c 0,22,23
 803 80 803 80 672 40 c 128,-1,24
 541 0 541 0 322 0 c 2,25,-1
 -8 0 l 1,26,-1
 283 1493 l 1,12,-1
EndSplineSet
EndChar

StartChar: E
Encoding: 69 69 40
Width: 1233
GlyphClass: 2
Flags: W
LayerCount: 2
Fore
SplineSet
958 0 m 1,0,-1
 29 0 l 1,1,-1
 317 1493 l 1,2,-1
 1249 1493 l 1,3,-1
 1198 1233 l 1,4,-1
 563 1233 l 1,5,-1
 500 911 l 1,6,-1
 1075 911 l 1,7,-1
 1026 651 l 1,8,-1
 451 651 l 1,9,-1
 375 260 l 1,10,-1
 1010 260 l 1,11,-1
 958 0 l 1,0,-1
EndSplineSet
EndChar

StartChar: F
Encoding: 70 70 41
Width: 1233
GlyphClass: 2
Flags: W
LayerCount: 2
Fore
SplineSet
1217 1233 m 1,0,-1
 582 1233 l 1,1,-1
 520 911 l 1,2,-1
 1098 911 l 1,3,-1
 1047 651 l 1,4,-1
 469 651 l 1,5,-1
 342 0 l 1,6,-1
 47 0 l 1,7,-1
 338 1493 l 1,8,-1
 1268 1493 l 1,9,-1
 1217 1233 l 1,0,-1
EndSplineSet
EndChar

StartChar: G
Encoding: 71 71 42
Width: 1233
GlyphClass: 2
Flags: W
LayerCount: 2
Fore
SplineSet
991 94 m 1,0,1
 921 35 921 35 823 3 c 128,-1,2
 725 -29 725 -29 610 -29 c 0,3,4
 368 -29 368 -29 235 116 c 128,-1,5
 102 261 102 261 102 524 c 0,6,7
 102 739 102 739 174.5 949 c 128,-1,8
 247 1159 247 1159 367 1294 c 0,9,10
 465 1405 465 1405 595 1462.5 c 128,-1,11
 725 1520 725 1520 877 1520 c 0,12,13
 958 1520 958 1520 1036.5 1502 c 128,-1,14
 1115 1484 1115 1484 1192 1448 c 1,15,-1
 1126 1120 l 1,16,17
 1075 1187 1075 1187 1006 1222 c 128,-1,18
 937 1257 937 1257 856 1257 c 0,19,20
 785 1257 785 1257 720.5 1227.5 c 128,-1,21
 656 1198 656 1198 604 1141 c 0,22,23
 563 1094 563 1094 528.5 1031 c 128,-1,24
 494 968 494 968 469 891 c 0,25,26
 437 793 437 793 420 701.5 c 128,-1,27
 403 610 403 610 403 532 c 0,28,29
 403 388 403 388 467 309.5 c 128,-1,30
 531 231 531 231 647 231 c 0,31,32
 683 231 683 231 714.5 239.5 c 128,-1,33
 746 248 746 248 770 264 c 1,34,-1
 827 555 l 1,35,-1
 621 555 l 1,36,-1
 670 803 l 1,37,-1
 1130 803 l 1,38,-1
 991 94 l 1,0,1
EndSplineSet
EndChar

StartChar: H
Encoding: 72 72 43
Width: 1233
GlyphClass: 2
Flags: W
LayerCount: 2
Fore
SplineSet
283 1493 m 1,0,-1
 578 1493 l 1,1,-1
 467 924 l 1,2,-1
 836 924 l 1,3,-1
 946 1493 l 1,4,-1
 1241 1493 l 1,5,-1
 950 0 l 1,6,-1
 655 0 l 1,7,-1
 784 664 l 1,8,-1
 416 664 l 1,9,-1
 287 0 l 1,10,-1
 -8 0 l 1,11,-1
 283 1493 l 1,0,-1
EndSplineSet
EndChar

StartChar: I
Encoding: 73 73 44
Width: 1233
GlyphClass: 2
Flags: W
LayerCount: 2
Fore
SplineSet
266 1233 m 1,0,-1
 317 1493 l 1,1,-1
 1206 1493 l 1,2,-1
 1155 1233 l 1,3,-1
 858 1233 l 1,4,-1
 670 260 l 1,5,-1
 967 260 l 1,6,-1
 915 0 l 1,7,-1
 27 0 l 1,8,-1
 78 260 l 1,9,-1
 375 260 l 1,10,-1
 563 1233 l 1,11,-1
 266 1233 l 1,0,-1
EndSplineSet
EndChar

StartChar: J
Encoding: 74 74 45
Width: 1233
GlyphClass: 2
Flags: W
LayerCount: 2
Fore
SplineSet
-20 78 m 1,0,-1
 45 422 l 1,1,2
 123 326 123 326 211.5 278.5 c 128,-1,3
 300 231 300 231 403 231 c 0,4,5
 519 231 519 231 575.5 285 c 128,-1,6
 632 339 632 339 659 479 c 2,7,-1
 807 1233 l 1,8,-1
 446 1233 l 1,9,-1
 498 1493 l 1,10,-1
 1153 1493 l 1,11,-1
 954 479 l 2,12,13
 921 309 921 309 880 223 c 128,-1,14
 839 137 839 137 772 82 c 256,15,16
 705 27 705 27 614 -1 c 128,-1,17
 523 -29 523 -29 410 -29 c 0,18,19
 299 -29 299 -29 192 -2.5 c 128,-1,20
 85 24 85 24 -20 78 c 1,0,-1
EndSplineSet
EndChar

StartChar: K
Encoding: 75 75 46
Width: 1233
GlyphClass: 2
Flags: W
LayerCount: 2
Fore
SplineSet
270 1493 m 1,0,-1
 565 1493 l 1,1,-1
 457 936 l 1,2,-1
 1020 1493 l 1,3,-1
 1368 1493 l 1,4,-1
 762 889 l 1,5,-1
 1100 0 l 1,6,-1
 797 0 l 1,7,-1
 543 670 l 1,8,-1
 371 500 l 1,9,-1
 276 0 l 1,10,-1
 -18 0 l 1,11,-1
 270 1493 l 1,0,-1
EndSplineSet
EndChar

StartChar: L
Encoding: 76 76 47
Width: 1233
GlyphClass: 2
Flags: W
LayerCount: 2
Fore
SplineSet
80 0 m 1,0,-1
 371 1493 l 1,1,-1
 666 1493 l 1,2,-1
 426 260 l 1,3,-1
 1057 260 l 1,4,-1
 1006 0 l 1,5,-1
 80 0 l 1,0,-1
EndSplineSet
EndChar

StartChar: M
Encoding: 77 77 48
Width: 1233
GlyphClass: 2
Flags: W
LayerCount: 2
Fore
SplineSet
231 1493 m 1,0,-1
 584 1493 l 1,1,-1
 633 838 l 1,2,-1
 930 1493 l 1,3,-1
 1290 1493 l 1,4,-1
 1001 0 l 1,5,-1
 748 0 l 1,6,-1
 985 1198 l 1,7,-1
 692 543 l 1,8,-1
 473 543 l 1,9,-1
 426 1198 l 1,10,-1
 195 0 l 1,11,-1
 -57 0 l 1,12,-1
 231 1493 l 1,0,-1
EndSplineSet
EndChar

StartChar: N
Encoding: 78 78 49
Width: 1233
GlyphClass: 2
Flags: W
LayerCount: 2
Fore
SplineSet
266 1493 m 1,0,-1
 569 1493 l 1,1,-1
 784 408 l 1,2,-1
 995 1493 l 1,3,-1
 1255 1493 l 1,4,-1
 967 0 l 1,5,-1
 674 0 l 1,6,-1
 449 1085 l 1,7,-1
 238 0 l 1,8,-1
 -25 0 l 1,9,-1
 266 1493 l 1,0,-1
EndSplineSet
EndChar

StartChar: O
Encoding: 79 79 50
Width: 1233
GlyphClass: 2
Flags: W
LayerCount: 2
Fore
SplineSet
868 1020 m 0,0,1
 868 1140 868 1140 828 1200 c 128,-1,2
 788 1260 788 1260 707 1260 c 0,3,4
 648 1260 648 1260 598 1224.5 c 128,-1,5
 548 1189 548 1189 512 1120 c 0,6,7
 490 1081 490 1081 468.5 1016.5 c 128,-1,8
 447 952 447 952 424 860 c 0,9,10
 395 745 395 745 380 645.5 c 128,-1,11
 365 546 365 546 365 471 c 0,12,13
 365 351 365 351 405 292 c 128,-1,14
 445 233 445 233 526 233 c 0,15,16
 585 233 585 233 634.5 268.5 c 128,-1,17
 684 304 684 304 721 373 c 0,18,19
 744 417 744 417 766.5 482.5 c 128,-1,20
 789 548 789 548 809 631 c 0,21,22
 838 746 838 746 853 845.5 c 128,-1,23
 868 945 868 945 868 1020 c 0,0,1
61 465 m 0,24,25
 61 665 61 665 111 870 c 128,-1,26
 161 1075 161 1075 246 1229 c 0,27,28
 323 1369 323 1369 448 1444.5 c 128,-1,29
 573 1520 573 1520 729 1520 c 0,30,31
 944 1520 944 1520 1057.5 1394 c 128,-1,32
 1171 1268 1171 1268 1171 1030 c 0,33,34
 1171 828 1171 828 1122 621.5 c 128,-1,35
 1073 415 1073 415 989 264 c 0,36,37
 911 123 911 123 785.5 47 c 128,-1,38
 660 -29 660 -29 504 -29 c 0,39,40
 287 -29 287 -29 174 97.5 c 128,-1,41
 61 224 61 224 61 465 c 0,24,25
EndSplineSet
EndChar

StartChar: P
Encoding: 80 80 51
Width: 1233
GlyphClass: 2
Flags: W
LayerCount: 2
Fore
SplineSet
553 1245 m 1,0,-1
 469 807 l 1,1,-1
 612 807 l 2,2,3
 758 807 758 807 830.5 874.5 c 128,-1,4
 903 942 903 942 903 1077 c 0,5,6
 903 1168 903 1168 851 1206.5 c 128,-1,7
 799 1245 799 1245 674 1245 c 2,8,-1
 553 1245 l 1,0,-1
307 1493 m 1,9,-1
 727 1493 l 2,10,11
 963 1493 963 1493 1086.5 1401.5 c 128,-1,12
 1210 1310 1210 1310 1210 1135 c 0,13,14
 1210 1021 1210 1021 1173.5 909 c 128,-1,15
 1137 797 1137 797 1079 731 c 0,16,17
 1001 640 1001 640 885 599.5 c 128,-1,18
 769 559 769 559 584 559 c 2,19,-1
 420 559 l 1,20,-1
 311 0 l 1,21,-1
 16 0 l 1,22,-1
 307 1493 l 1,9,-1
EndSplineSet
EndChar

StartChar: Q
Encoding: 81 81 52
Width: 1233
GlyphClass: 2
Flags: W
LayerCount: 2
Fore
SplineSet
535 -29 m 1,0,-1
 508 -29 l 2,1,2
 290 -29 290 -29 175.5 96 c 128,-1,3
 61 221 61 221 61 461 c 0,4,5
 61 663 61 663 110.5 869.5 c 128,-1,6
 160 1076 160 1076 244 1227 c 0,7,8
 322 1368 322 1368 447.5 1444 c 128,-1,9
 573 1520 573 1520 729 1520 c 0,10,11
 940 1520 940 1520 1055.5 1396.5 c 128,-1,12
 1171 1273 1171 1273 1171 1049 c 0,13,14
 1171 836 1171 836 1122.5 626.5 c 128,-1,15
 1074 417 1074 417 989 262 c 0,16,17
 954 196 954 196 901.5 141 c 128,-1,18
 849 86 849 86 776 39 c 1,19,-1
 924 -147 l 1,20,-1
 713 -281 l 1,21,-1
 535 -29 l 1,0,-1
868 1020 m 0,22,23
 868 1140 868 1140 828 1200 c 128,-1,24
 788 1260 788 1260 707 1260 c 0,25,26
 648 1260 648 1260 598 1224.5 c 128,-1,27
 548 1189 548 1189 512 1120 c 0,28,29
 490 1081 490 1081 468.5 1016.5 c 128,-1,30
 447 952 447 952 424 860 c 0,31,32
 395 745 395 745 380 645.5 c 128,-1,33
 365 546 365 546 365 471 c 0,34,35
 365 351 365 351 405 292 c 128,-1,36
 445 233 445 233 526 233 c 0,37,38
 585 233 585 233 634.5 268.5 c 128,-1,39
 684 304 684 304 721 373 c 0,40,41
 744 417 744 417 766.5 482.5 c 128,-1,42
 789 548 789 548 809 631 c 0,43,44
 838 746 838 746 853 845.5 c 128,-1,45
 868 945 868 945 868 1020 c 0,22,23
EndSplineSet
EndChar

StartChar: R
Encoding: 82 82 53
Width: 1233
GlyphClass: 2
Flags: W
LayerCount: 2
Fore
SplineSet
788 705 m 1,0,1
 849 696 849 696 883 660 c 128,-1,2
 917 624 917 624 944 537 c 2,3,-1
 1108 0 l 1,4,-1
 807 0 l 1,5,-1
 701 376 l 2,6,7
 698 386 698 386 693 403 c 0,8,9
 640 590 640 590 535 590 c 2,10,-1
 418 590 l 1,11,-1
 303 0 l 1,12,-1
 8 0 l 1,13,-1
 299 1493 l 1,14,-1
 709 1493 l 2,15,16
 941 1493 941 1493 1053 1405.5 c 128,-1,17
 1165 1318 1165 1318 1165 1137 c 0,18,19
 1165 950 1165 950 1067 837.5 c 128,-1,20
 969 725 969 725 788 705 c 1,0,1
547 1245 m 1,21,-1
 467 838 l 1,22,-1
 590 838 l 2,23,24
 725 838 725 838 794.5 902 c 128,-1,25
 864 966 864 966 864 1090 c 0,26,27
 864 1168 864 1168 818 1206.5 c 128,-1,28
 772 1245 772 1245 680 1245 c 2,29,-1
 547 1245 l 1,21,-1
EndSplineSet
EndChar

StartChar: S
Encoding: 83 83 54
Width: 1233
GlyphClass: 2
Flags: W
LayerCount: 2
Fore
SplineSet
506 664 m 2,0,1
 314 744 314 744 252 819 c 128,-1,2
 190 894 190 894 190 1020 c 0,3,4
 190 1240 190 1240 351.5 1380 c 128,-1,5
 513 1520 513 1520 770 1520 c 0,6,7
 873 1520 873 1520 970.5 1499.5 c 128,-1,8
 1068 1479 1068 1479 1159 1438 c 1,9,-1
 1102 1153 l 1,10,11
 1034 1215 1034 1215 943 1246.5 c 128,-1,12
 852 1278 852 1278 741 1278 c 0,13,14
 623 1278 623 1278 549 1221.5 c 128,-1,15
 475 1165 475 1165 475 1077 c 0,16,17
 475 993 475 993 659 910 c 2,18,-1
 666 907 l 1,19,-1
 782 856 l 2,20,21
 928 791 928 791 995.5 699.5 c 128,-1,22
 1063 608 1063 608 1063 475 c 0,23,24
 1063 245 1063 245 902 108 c 128,-1,25
 741 -29 741 -29 467 -29 c 0,26,27
 357 -29 357 -29 242.5 -3 c 128,-1,28
 128 23 128 23 4 76 c 1,29,-1
 63 381 l 1,30,31
 160 300 160 300 266 257.5 c 128,-1,32
 372 215 372 215 479 215 c 0,33,34
 612 215 612 215 688 273.5 c 128,-1,35
 764 332 764 332 764 432 c 0,36,37
 764 494 764 494 729 539.5 c 128,-1,38
 694 585 694 585 625 614 c 2,39,-1
 506 664 l 2,0,1
EndSplineSet
EndChar

StartChar: T
Encoding: 84 84 55
Width: 1233
GlyphClass: 2
Flags: W
LayerCount: 2
Fore
SplineSet
618 0 m 1,0,-1
 324 0 l 1,1,-1
 563 1235 l 1,2,-1
 180 1235 l 1,3,-1
 229 1493 l 1,4,-1
 1288 1493 l 1,5,-1
 1237 1235 l 1,6,-1
 858 1235 l 1,7,-1
 618 0 l 1,0,-1
EndSplineSet
EndChar

StartChar: U
Encoding: 85 85 56
Width: 1233
GlyphClass: 2
Flags: W
LayerCount: 2
Fore
SplineSet
68 551 m 2,0,-1
 252 1493 l 1,1,-1
 547 1493 l 1,2,-1
 348 477 l 2,3,4
 348 475 348 475 347 471 c 0,5,6
 340 424 340 424 340 403 c 0,7,8
 340 321 340 321 386 276 c 128,-1,9
 432 231 432 231 516 231 c 0,10,11
 624 231 624 231 688.5 292 c 128,-1,12
 753 353 753 353 778 477 c 2,13,-1
 977 1493 l 1,14,-1
 1272 1493 l 1,15,-1
 1087 551 l 2,16,17
 1052 371 1052 371 1012 278.5 c 128,-1,18
 972 186 972 186 909 123 c 0,19,20
 833 49 833 49 729 10 c 128,-1,21
 625 -29 625 -29 500 -29 c 0,22,23
 281 -29 281 -29 163 70 c 128,-1,24
 45 169 45 169 45 352 c 0,25,26
 45 394 45 394 50.5 444 c 128,-1,27
 56 494 56 494 68 551 c 2,0,-1
EndSplineSet
EndChar

StartChar: V
Encoding: 86 86 57
Width: 1233
GlyphClass: 2
Flags: W
LayerCount: 2
Fore
SplineSet
518 242 m 1,0,-1
 1024 1493 l 1,1,-1
 1325 1493 l 1,2,-1
 680 0 l 1,3,-1
 268 0 l 1,4,-1
 203 1493 l 1,5,-1
 494 1493 l 1,6,-1
 518 242 l 1,0,-1
EndSplineSet
EndChar

StartChar: W
Encoding: 87 87 58
Width: 1233
GlyphClass: 2
Flags: W
LayerCount: 2
Fore
SplineSet
143 1493 m 1,0,-1
 397 1493 l 1,1,-1
 289 397 l 1,2,-1
 561 1106 l 1,3,-1
 799 1106 l 1,4,-1
 811 397 l 1,5,-1
 1108 1493 l 1,6,-1
 1370 1493 l 1,7,-1
 909 0 l 1,8,-1
 639 0 l 1,9,-1
 627 784 l 1,10,-1
 309 0 l 1,11,-1
 41 0 l 1,12,-1
 143 1493 l 1,0,-1
EndSplineSet
EndChar

StartChar: X
Encoding: 88 88 59
Width: 1233
GlyphClass: 2
Flags: W
LayerCount: 2
Fore
SplineSet
1071 0 m 1,0,-1
 780 0 l 1,1,-1
 580 512 l 1,2,-1
 180 0 l 1,3,-1
 -143 0 l 1,4,-1
 471 782 l 1,5,-1
 184 1493 l 1,6,-1
 475 1493 l 1,7,-1
 662 1030 l 1,8,-1
 1022 1493 l 1,9,-1
 1343 1493 l 1,10,-1
 770 756 l 1,11,-1
 1071 0 l 1,0,-1
EndSplineSet
EndChar

StartChar: Y
Encoding: 89 89 60
Width: 1233
GlyphClass: 2
Flags: W
LayerCount: 2
Fore
SplineSet
145 1493 m 1,0,-1
 438 1493 l 1,1,-1
 625 844 l 1,2,-1
 1036 1493 l 1,3,-1
 1358 1493 l 1,4,-1
 725 588 l 1,5,-1
 610 0 l 1,6,-1
 317 0 l 1,7,-1
 432 588 l 1,8,-1
 145 1493 l 1,0,-1
EndSplineSet
EndChar

StartChar: Z
Encoding: 90 90 61
Width: 1233
GlyphClass: 2
Flags: W
LayerCount: 2
Fore
SplineSet
281 1493 m 1,0,-1
 1290 1493 l 1,1,-1
 1241 1249 l 1,2,-1
 365 260 l 1,3,-1
 1065 260 l 1,4,-1
 1014 0 l 1,5,-1
 -33 0 l 1,6,-1
 14 244 l 1,7,-1
 872 1233 l 1,8,-1
 229 1233 l 1,9,-1
 281 1493 l 1,0,-1
EndSplineSet
EndChar

StartChar: bracketleft
Encoding: 91 91 62
Width: 1233
GlyphClass: 2
Flags: W
LayerCount: 2
Fore
SplineSet
580 1556 m 1,0,-1
 1087 1556 l 1,1,-1
 1049 1366 l 1,2,-1
 807 1366 l 1,3,-1
 526 -80 l 1,4,-1
 768 -80 l 1,5,-1
 731 -270 l 1,6,-1
 223 -270 l 1,7,-1
 580 1556 l 1,0,-1
EndSplineSet
EndChar

StartChar: backslash
Encoding: 92 92 63
Width: 1233
GlyphClass: 2
Flags: W
LayerCount: 2
Fore
SplineSet
543 1493 m 1,0,-1
 741 -190 l 1,1,-1
 539 -190 l 1,2,-1
 340 1493 l 1,3,-1
 543 1493 l 1,0,-1
EndSplineSet
EndChar

StartChar: bracketright
Encoding: 93 93 64
Width: 1233
GlyphClass: 2
Flags: W
LayerCount: 2
Fore
SplineSet
612 -270 m 1,0,-1
 106 -270 l 1,1,-1
 143 -80 l 1,2,-1
 385 -80 l 1,3,-1
 666 1366 l 1,4,-1
 424 1366 l 1,5,-1
 461 1556 l 1,6,-1
 969 1556 l 1,7,-1
 612 -270 l 1,0,-1
EndSplineSet
EndChar

StartChar: asciicircum
Encoding: 94 94 65
Width: 1233
GlyphClass: 2
Flags: W
LayerCount: 2
Fore
SplineSet
739 1493 m 1,0,-1
 1176 936 l 1,1,-1
 934 936 l 1,2,-1
 616 1237 l 1,3,-1
 299 936 l 1,4,-1
 57 936 l 1,5,-1
 494 1493 l 1,6,-1
 739 1493 l 1,0,-1
EndSplineSet
EndChar

StartChar: underscore
Encoding: 95 95 66
Width: 1233
GlyphClass: 2
Flags: W
LayerCount: 2
Fore
SplineSet
1133 -150 m 1,0,-1
 1133 -340 l 1,1,-1
 100 -340 l 1,2,-1
 100 -150 l 1,3,-1
 1133 -150 l 1,0,-1
EndSplineSet
EndChar

StartChar: grave
Encoding: 96 96 67
Width: 1233
GlyphClass: 2
Flags: W
LayerCount: 2
Fore
SplineSet
655 1638 m 1,0,-1
 864 1262 l 1,1,-1
 666 1262 l 1,2,-1
 371 1638 l 1,3,-1
 655 1638 l 1,0,-1
EndSplineSet
EndChar

StartChar: a
Encoding: 97 97 68
Width: 1233
GlyphClass: 2
Flags: W
LayerCount: 2
Fore
SplineSet
690 530 m 2,0,1
 518 530 518 530 435 478 c 128,-1,2
 352 426 352 426 352 317 c 0,3,4
 352 254 352 254 392.5 213 c 128,-1,5
 433 172 433 172 496 172 c 0,6,7
 614 172 614 172 694 265 c 128,-1,8
 774 358 774 358 803 530 c 1,9,-1
 690 530 l 2,0,1
1114 639 m 2,10,-1
 991 0 l 1,11,-1
 700 0 l 1,12,-1
 725 125 l 1,13,14
 658 48 658 48 571.5 9.5 c 128,-1,15
 485 -29 485 -29 375 -29 c 0,16,17
 224 -29 224 -29 135.5 58.5 c 128,-1,18
 47 146 47 146 47 295 c 0,19,20
 47 510 47 510 202.5 623.5 c 128,-1,21
 358 737 358 737 651 737 c 2,22,-1
 844 737 l 1,23,-1
 852 786 l 2,24,25
 853 792 853 792 853.5 797.5 c 128,-1,26
 854 803 854 803 854 815 c 0,27,28
 854 872 854 872 803 902 c 128,-1,29
 752 932 752 932 655 932 c 0,30,31
 573 932 573 932 469.5 903.5 c 128,-1,32
 366 875 366 875 248 819 c 1,33,-1
 295 1069 l 1,34,35
 408 1108 408 1108 508.5 1127.5 c 128,-1,36
 609 1147 609 1147 700 1147 c 0,37,38
 917 1147 917 1147 1029 1071 c 128,-1,39
 1141 995 1141 995 1141 848 c 0,40,41
 1141 809 1141 809 1134 756 c 128,-1,42
 1127 703 1127 703 1114 639 c 2,10,-1
EndSplineSet
EndChar

StartChar: b
Encoding: 98 98 69
Width: 1233
GlyphClass: 2
Flags: W
LayerCount: 2
Fore
SplineSet
600 209 m 0,0,1
 711 209 711 209 790.5 350.5 c 128,-1,2
 870 492 870 492 870 694 c 0,3,4
 870 795 870 795 828.5 851 c 128,-1,5
 787 907 787 907 713 907 c 0,6,7
 599 907 599 907 516.5 768.5 c 128,-1,8
 434 630 434 630 434 432 c 0,9,10
 434 328 434 328 479 268.5 c 128,-1,11
 524 209 524 209 600 209 c 0,0,1
381 207 m 1,12,-1
 340 0 l 1,13,-1
 47 0 l 1,14,-1
 350 1556 l 1,15,-1
 643 1556 l 1,16,-1
 524 952 l 1,17,18
 587 1048 587 1048 670 1097.5 c 128,-1,19
 753 1147 753 1147 848 1147 c 0,20,21
 994 1147 994 1147 1079.5 1037.5 c 128,-1,22
 1165 928 1165 928 1165 739 c 0,23,24
 1165 608 1165 608 1134.5 478.5 c 128,-1,25
 1104 349 1104 349 1049 244 c 0,26,27
 980 115 980 115 875 43 c 128,-1,28
 770 -29 770 -29 653 -29 c 0,29,30
 542 -29 542 -29 470 33.5 c 128,-1,31
 398 96 398 96 381 207 c 1,12,-1
EndSplineSet
EndChar

StartChar: c
Encoding: 99 99 70
Width: 1233
GlyphClass: 2
Flags: W
LayerCount: 2
Fore
SplineSet
956 37 m 1,0,1
 879 4 879 4 797.5 -12.5 c 128,-1,2
 716 -29 716 -29 633 -29 c 0,3,4
 407 -29 407 -29 278.5 95 c 128,-1,5
 150 219 150 219 150 434 c 0,6,7
 150 751 150 751 333.5 949 c 128,-1,8
 517 1147 517 1147 813 1147 c 0,9,10
 911 1147 911 1147 996 1126.5 c 128,-1,11
 1081 1106 1081 1106 1157 1063 c 1,12,-1
 1104 795 l 1,13,14
 1043 853 1043 853 975 881 c 128,-1,15
 907 909 907 909 829 909 c 0,16,17
 659 909 659 909 552.5 785 c 128,-1,18
 446 661 446 661 446 463 c 0,19,20
 446 335 446 335 507 272 c 128,-1,21
 568 209 568 209 692 209 c 0,22,23
 762 209 762 209 841.5 235 c 128,-1,24
 921 261 921 261 1012 313 c 1,25,-1
 956 37 l 1,0,1
EndSplineSet
EndChar

StartChar: d
Encoding: 100 100 71
Width: 1233
GlyphClass: 2
Flags: W
LayerCount: 2
Fore
SplineSet
633 909 m 0,0,1
 522 909 522 909 442 767.5 c 128,-1,2
 362 626 362 626 362 424 c 0,3,4
 362 323 362 323 403.5 267 c 128,-1,5
 445 211 445 211 518 211 c 0,6,7
 632 211 632 211 715.5 349.5 c 128,-1,8
 799 488 799 488 799 686 c 0,9,10
 799 790 799 790 754 849.5 c 128,-1,11
 709 909 709 909 633 909 c 0,0,1
854 911 m 1,12,-1
 979 1556 l 1,13,-1
 1272 1556 l 1,14,-1
 969 0 l 1,15,-1
 678 0 l 1,16,-1
 709 166 l 1,17,18
 643 70 643 70 560.5 20.5 c 128,-1,19
 478 -29 478 -29 383 -29 c 0,20,21
 237 -29 237 -29 151.5 81 c 128,-1,22
 66 191 66 191 66 381 c 0,23,24
 66 510 66 510 97 638.5 c 128,-1,25
 128 767 128 767 184 874 c 0,26,27
 253 1003 253 1003 358 1076 c 128,-1,28
 463 1149 463 1149 580 1149 c 0,29,30
 692 1149 692 1149 765.5 1085.5 c 128,-1,31
 839 1022 839 1022 854 911 c 1,12,-1
EndSplineSet
EndChar

StartChar: e
Encoding: 101 101 72
Width: 1233
GlyphClass: 2
Flags: W
LayerCount: 2
Fore
SplineSet
993 55 m 1,0,1
 898 13 898 13 795 -8 c 128,-1,2
 692 -29 692 -29 582 -29 c 0,3,4
 334 -29 334 -29 205 89.5 c 128,-1,5
 76 208 76 208 76 436 c 0,6,7
 76 577 76 577 120 709 c 128,-1,8
 164 841 164 841 244 938 c 0,9,10
 328 1040 328 1040 444 1094.5 c 128,-1,11
 560 1149 560 1149 694 1149 c 0,12,13
 903 1149 903 1149 1029 1029 c 128,-1,14
 1155 909 1155 909 1155 711 c 0,15,16
 1155 666 1155 666 1148.5 607 c 128,-1,17
 1142 548 1142 548 1128 465 c 1,18,-1
 369 465 l 1,19,20
 366 448 366 448 364.5 433 c 128,-1,21
 363 418 363 418 362 403 c 0,22,23
 362 304 362 304 429 253.5 c 128,-1,24
 496 203 496 203 627 203 c 0,25,26
 735 203 735 203 843 234 c 128,-1,27
 951 265 951 265 1044 324 c 1,28,-1
 993 55 l 1,0,1
876 684 m 1,29,30
 880 698 880 698 881.5 711.5 c 128,-1,31
 883 725 883 725 883 737 c 0,32,33
 883 822 883 822 832 871 c 128,-1,34
 781 920 781 920 692 920 c 0,35,36
 592 920 592 920 521 861 c 128,-1,37
 450 802 450 802 410 684 c 1,38,-1
 876 684 l 1,29,30
EndSplineSet
EndChar

StartChar: f
Encoding: 102 102 73
Width: 1233
GlyphClass: 2
Flags: W
LayerCount: 2
Fore
SplineSet
856 1196 m 2,0,-1
 840 1120 l 1,1,-1
 1184 1120 l 1,2,-1
 1141 895 l 1,3,-1
 797 895 l 1,4,-1
 623 0 l 1,5,-1
 330 0 l 1,6,-1
 504 895 l 1,7,-1
 231 895 l 1,8,-1
 274 1120 l 1,9,-1
 547 1120 l 1,10,-1
 563 1198 l 2,11,12
 605 1409 605 1409 697 1482.5 c 128,-1,13
 789 1556 789 1556 1028 1556 c 2,14,-1
 1268 1556 l 1,15,-1
 1225 1331 l 1,16,-1
 995 1331 l 2,17,18
 930 1331 930 1331 901 1303.5 c 128,-1,19
 872 1276 872 1276 856 1196 c 2,0,-1
EndSplineSet
EndChar

StartChar: g
Encoding: 103 103 74
Width: 1233
GlyphClass: 2
Flags: W
LayerCount: 2
Fore
SplineSet
520 246 m 0,0,1
 635 246 635 246 719 378.5 c 128,-1,2
 803 511 803 511 803 698 c 0,3,4
 803 798 803 798 762 853.5 c 128,-1,5
 721 909 721 909 649 909 c 0,6,7
 535 909 535 909 451 776.5 c 128,-1,8
 367 644 367 644 367 459 c 0,9,10
 367 357 367 357 407 301.5 c 128,-1,11
 447 246 447 246 520 246 c 0,0,1
987 84 m 2,12,13
 934 -193 934 -193 796 -308.5 c 128,-1,14
 658 -424 658 -424 385 -424 c 0,15,16
 287 -424 287 -424 196 -409 c 128,-1,17
 105 -394 105 -394 18 -365 c 1,18,-1
 72 -100 l 1,19,20
 147 -145 147 -145 229.5 -167.5 c 128,-1,21
 312 -190 312 -190 399 -190 c 0,22,23
 524 -190 524 -190 594.5 -131.5 c 128,-1,24
 665 -73 665 -73 688 51 c 2,25,-1
 715 184 l 1,26,27
 661 101 661 101 583.5 58.5 c 128,-1,28
 506 16 506 16 410 16 c 0,29,30
 253 16 253 16 160.5 120.5 c 128,-1,31
 68 225 68 225 68 403 c 0,32,33
 68 542 68 542 110 683 c 128,-1,34
 152 824 152 824 225 932 c 0,35,36
 295 1035 295 1035 395.5 1093 c 128,-1,37
 496 1151 496 1151 602 1151 c 0,38,39
 706 1151 706 1151 773.5 1096 c 128,-1,40
 841 1041 841 1041 862 938 c 1,41,-1
 897 1120 l 1,42,-1
 1190 1120 l 1,43,-1
 987 84 l 2,12,13
EndSplineSet
EndChar

StartChar: h
Encoding: 104 104 75
Width: 1233
GlyphClass: 2
Flags: W
LayerCount: 2
Fore
SplineSet
1102 728 m 2,0,-1
 961 0 l 1,1,-1
 668 0 l 1,2,-1
 801 682 l 2,3,4
 806 708 806 708 808.5 734.5 c 128,-1,5
 811 761 811 761 811 788 c 0,6,7
 811 846 811 846 782 876.5 c 128,-1,8
 753 907 753 907 698 907 c 0,9,10
 615 907 615 907 557 835.5 c 128,-1,11
 499 764 499 764 473 629 c 2,12,-1
 352 0 l 1,13,-1
 59 0 l 1,14,-1
 362 1556 l 1,15,-1
 653 1556 l 1,16,-1
 537 952 l 1,17,18
 585 1044 585 1044 669 1095.5 c 128,-1,19
 753 1147 753 1147 854 1147 c 0,20,21
 982 1147 982 1147 1051 1077.5 c 128,-1,22
 1120 1008 1120 1008 1120 881 c 0,23,24
 1120 851 1120 851 1115.5 813 c 128,-1,25
 1111 775 1111 775 1102 728 c 2,0,-1
EndSplineSet
EndChar

StartChar: i
Encoding: 105 105 76
Width: 1233
GlyphClass: 2
Flags: W
LayerCount: 2
Fore
SplineSet
309 1120 m 1,0,-1
 889 1120 l 1,1,-1
 715 225 l 1,2,-1
 1079 225 l 1,3,-1
 1036 0 l 1,4,-1
 14 0 l 1,5,-1
 57 225 l 1,6,-1
 422 225 l 1,7,-1
 553 895 l 1,8,-1
 266 895 l 1,9,-1
 309 1120 l 1,0,-1
702 1665 m 1,10,-1
 995 1665 l 1,11,-1
 928 1323 l 1,12,-1
 635 1323 l 1,13,-1
 702 1665 l 1,10,-1
EndSplineSet
EndChar

StartChar: j
Encoding: 106 106 77
Width: 1233
GlyphClass: 2
Flags: W
LayerCount: 2
Fore
SplineSet
733 43 m 2,0,1
 700 -124 700 -124 669.5 -195.5 c 128,-1,2
 639 -267 639 -267 592 -313 c 0,3,4
 533 -372 533 -372 452 -398 c 128,-1,5
 371 -424 371 -424 244 -424 c 2,6,-1
 -63 -424 l 1,7,-1
 -18 -199 l 1,8,-1
 213 -199 l 2,9,10
 313 -199 313 -199 364 -145.5 c 128,-1,11
 415 -92 415 -92 440 43 c 2,12,-1
 606 895 l 1,13,-1
 309 895 l 1,14,-1
 352 1120 l 1,15,-1
 942 1120 l 1,16,-1
 733 43 l 2,0,1
983 1323 m 1,17,-1
 690 1323 l 1,18,-1
 756 1665 l 1,19,-1
 1049 1665 l 1,20,-1
 983 1323 l 1,17,-1
EndSplineSet
EndChar

StartChar: k
Encoding: 107 107 78
Width: 1233
GlyphClass: 2
Flags: W
LayerCount: 2
Fore
SplineSet
383 1556 m 1,0,-1
 676 1556 l 1,1,-1
 524 774 l 1,2,-1
 928 1120 l 1,3,-1
 1298 1120 l 1,4,-1
 793 702 l 1,5,-1
 1106 0 l 1,6,-1
 795 0 l 1,7,-1
 573 524 l 1,8,-1
 457 428 l 1,9,-1
 375 0 l 1,10,-1
 82 0 l 1,11,-1
 383 1556 l 1,0,-1
EndSplineSet
EndChar

StartChar: l
Encoding: 108 108 79
Width: 1233
GlyphClass: 2
Flags: W
LayerCount: 2
Fore
SplineSet
625 365 m 2,0,1
 621 345 621 345 618.5 328.5 c 128,-1,2
 616 312 616 312 616 307 c 0,3,4
 616 262 616 262 647 243.5 c 128,-1,5
 678 225 678 225 756 225 c 2,6,-1
 1034 225 l 1,7,-1
 989 0 l 1,8,-1
 692 0 l 2,9,10
 487 0 487 0 402 56 c 128,-1,11
 317 112 317 112 317 242 c 0,12,13
 317 265 317 265 322 300 c 128,-1,14
 327 335 327 335 336 379 c 2,15,-1
 539 1331 l 1,16,-1
 233 1331 l 1,17,-1
 276 1556 l 1,18,-1
 874 1556 l 1,19,-1
 625 365 l 2,0,1
EndSplineSet
EndChar

StartChar: m
Encoding: 109 109 80
Width: 1233
GlyphClass: 2
Flags: W
LayerCount: 2
Fore
SplineSet
770 1008 m 1,0,1
 802 1072 802 1072 866 1109.5 c 128,-1,2
 930 1147 930 1147 1006 1147 c 0,3,4
 1098 1147 1098 1147 1152 1091 c 128,-1,5
 1206 1035 1206 1035 1206 938 c 0,6,7
 1206 891 1206 891 1200.5 842.5 c 128,-1,8
 1195 794 1195 794 1180 719 c 2,9,-1
 1040 0 l 1,10,-1
 801 0 l 1,11,-1
 940 719 l 2,12,13
 950 770 950 770 954 800.5 c 128,-1,14
 958 831 958 831 958 846 c 0,15,16
 958 886 958 886 940.5 907 c 128,-1,17
 923 928 923 928 889 928 c 0,18,19
 841 928 841 928 812.5 883 c 128,-1,20
 784 838 784 838 762 719 c 2,21,-1
 623 0 l 1,22,-1
 383 0 l 1,23,-1
 524 719 l 2,24,25
 532 761 532 761 536.5 794 c 128,-1,26
 541 827 541 827 541 846 c 0,27,28
 541 886 541 886 523 907 c 128,-1,29
 505 928 505 928 471 928 c 0,30,31
 424 928 424 928 396.5 884.5 c 128,-1,32
 369 841 369 841 346 719 c 2,33,-1
 207 0 l 1,34,-1
 -33 0 l 1,35,-1
 184 1120 l 1,36,-1
 397 1120 l 1,37,-1
 375 1004 l 1,38,39
 416 1072 416 1072 476.5 1109.5 c 128,-1,40
 537 1147 537 1147 606 1147 c 256,41,42
 675 1147 675 1147 718.5 1109.5 c 128,-1,43
 762 1072 762 1072 770 1008 c 1,0,1
EndSplineSet
EndChar

StartChar: n
Encoding: 110 110 81
Width: 1233
GlyphClass: 2
Flags: W
LayerCount: 2
Fore
SplineSet
1102 728 m 2,0,-1
 961 0 l 1,1,-1
 668 0 l 1,2,-1
 801 682 l 2,3,4
 806 708 806 708 808.5 734.5 c 128,-1,5
 811 761 811 761 811 788 c 0,6,7
 811 846 811 846 782 876.5 c 128,-1,8
 753 907 753 907 698 907 c 0,9,10
 616 907 616 907 557.5 835 c 128,-1,11
 499 763 499 763 473 629 c 2,12,-1
 352 0 l 1,13,-1
 59 0 l 1,14,-1
 276 1120 l 1,15,-1
 569 1120 l 1,16,-1
 537 952 l 1,17,18
 585 1044 585 1044 669 1095.5 c 128,-1,19
 753 1147 753 1147 854 1147 c 0,20,21
 982 1147 982 1147 1051 1077.5 c 128,-1,22
 1120 1008 1120 1008 1120 881 c 0,23,24
 1120 851 1120 851 1115.5 813 c 128,-1,25
 1111 775 1111 775 1102 728 c 2,0,-1
EndSplineSet
EndChar

StartChar: o
Encoding: 111 111 82
Width: 1233
GlyphClass: 2
Flags: W
LayerCount: 2
Fore
SplineSet
850 684 m 0,0,1
 850 793 850 793 803.5 852 c 128,-1,2
 757 911 757 911 672 911 c 0,3,4
 549 911 549 911 466 775 c 128,-1,5
 383 639 383 639 383 434 c 0,6,7
 383 328 383 328 431.5 267.5 c 128,-1,8
 480 207 480 207 563 207 c 0,9,10
 684 207 684 207 767 343.5 c 128,-1,11
 850 480 850 480 850 684 c 0,0,1
88 426 m 0,12,13
 88 748 88 748 254.5 948.5 c 128,-1,14
 421 1149 421 1149 688 1149 c 0,15,16
 903 1149 903 1149 1024 1028.5 c 128,-1,17
 1145 908 1145 908 1145 694 c 0,18,19
 1145 371 1145 371 978.5 171 c 128,-1,20
 812 -29 812 -29 545 -29 c 0,21,22
 330 -29 330 -29 209 91.5 c 128,-1,23
 88 212 88 212 88 426 c 0,12,13
EndSplineSet
EndChar

StartChar: p
Encoding: 112 112 83
Width: 1233
GlyphClass: 2
Flags: W
LayerCount: 2
Fore
SplineSet
379 207 m 1,0,-1
 256 -426 l 1,1,-1
 -37 -426 l 1,2,-1
 264 1120 l 1,3,-1
 557 1120 l 1,4,-1
 524 952 l 1,5,6
 595 1050 595 1050 677 1098.5 c 128,-1,7
 759 1147 759 1147 852 1147 c 0,8,9
 999 1147 999 1147 1084 1037.5 c 128,-1,10
 1169 928 1169 928 1169 739 c 0,11,12
 1169 610 1169 610 1138 480 c 128,-1,13
 1107 350 1107 350 1051 244 c 0,14,15
 982 115 982 115 877 43 c 128,-1,16
 772 -29 772 -29 655 -29 c 0,17,18
 543 -29 543 -29 471 33 c 128,-1,19
 399 95 399 95 379 207 c 1,0,-1
602 209 m 0,20,21
 713 209 713 209 793.5 351 c 128,-1,22
 874 493 874 493 874 694 c 0,23,24
 874 795 874 795 832.5 851 c 128,-1,25
 791 907 791 907 717 907 c 0,26,27
 603 907 603 907 519.5 768.5 c 128,-1,28
 436 630 436 630 436 432 c 0,29,30
 436 328 436 328 481 268.5 c 128,-1,31
 526 209 526 209 602 209 c 0,20,21
EndSplineSet
EndChar

StartChar: q
Encoding: 113 113 84
Width: 1233
GlyphClass: 2
Flags: W
LayerCount: 2
Fore
SplineSet
854 911 m 1,0,-1
 893 1120 l 1,1,-1
 1186 1120 l 1,2,-1
 885 -426 l 1,3,-1
 594 -426 l 1,4,-1
 709 166 l 1,5,6
 646 71 646 71 563 21 c 128,-1,7
 480 -29 480 -29 385 -29 c 0,8,9
 239 -29 239 -29 153.5 81 c 128,-1,10
 68 191 68 191 68 381 c 0,11,12
 68 510 68 510 99 638.5 c 128,-1,13
 130 767 130 767 186 874 c 0,14,15
 256 1004 256 1004 360 1076.5 c 128,-1,16
 464 1149 464 1149 580 1149 c 0,17,18
 691 1149 691 1149 763.5 1086.5 c 128,-1,19
 836 1024 836 1024 854 911 c 1,0,-1
633 909 m 0,20,21
 522 909 522 909 442 767.5 c 128,-1,22
 362 626 362 626 362 424 c 0,23,24
 362 324 362 324 404 267.5 c 128,-1,25
 446 211 446 211 520 211 c 0,26,27
 634 211 634 211 716.5 349.5 c 128,-1,28
 799 488 799 488 799 686 c 0,29,30
 799 790 799 790 754 849.5 c 128,-1,31
 709 909 709 909 633 909 c 0,20,21
EndSplineSet
EndChar

StartChar: r
Encoding: 114 114 85
Width: 1233
GlyphClass: 2
Flags: W
LayerCount: 2
Fore
SplineSet
1174 815 m 1,0,1
 1126 858 1126 858 1067 878.5 c 128,-1,2
 1008 899 1008 899 934 899 c 0,3,4
 768 899 768 899 678.5 811 c 128,-1,5
 589 723 589 723 549 516 c 2,6,-1
 449 0 l 1,7,-1
 154 0 l 1,8,-1
 373 1120 l 1,9,-1
 666 1120 l 1,10,-1
 631 946 l 1,11,12
 693 1042 693 1042 792 1094.5 c 128,-1,13
 891 1147 891 1147 1010 1147 c 0,14,15
 1072 1147 1072 1147 1127.5 1132 c 128,-1,16
 1183 1117 1183 1117 1227 1090 c 1,17,-1
 1174 815 l 1,0,1
EndSplineSet
EndChar

StartChar: s
Encoding: 115 115 86
Width: 1233
GlyphClass: 2
Flags: W
LayerCount: 2
Fore
SplineSet
1094 1085 m 1,0,-1
 1044 831 l 1,1,2
 969 884 969 884 882 911 c 128,-1,3
 795 938 795 938 702 938 c 0,4,5
 608 938 608 938 553 903 c 128,-1,6
 498 868 498 868 498 809 c 0,7,8
 498 764 498 764 534.5 736.5 c 128,-1,9
 571 709 571 709 700 672 c 2,10,-1
 774 651 l 2,11,12
 902 614 902 614 961 544 c 128,-1,13
 1020 474 1020 474 1020 360 c 0,14,15
 1020 178 1020 178 882.5 74.5 c 128,-1,16
 745 -29 745 -29 500 -29 c 0,17,18
 396 -29 396 -29 292.5 -11.5 c 128,-1,19
 189 6 189 6 90 41 c 1,20,-1
 141 297 l 1,21,22
 227 241 227 241 322 211.5 c 128,-1,23
 417 182 417 182 510 182 c 0,24,25
 620 182 620 182 681.5 219.5 c 128,-1,26
 743 257 743 257 743 324 c 0,27,28
 743 370 743 370 712.5 396 c 128,-1,29
 682 422 682 422 549 461 c 2,30,-1
 461 485 l 2,31,32
 339 521 339 521 282 590.5 c 128,-1,33
 225 660 225 660 225 772 c 0,34,35
 225 940 225 940 361 1043.5 c 128,-1,36
 497 1147 497 1147 723 1147 c 0,37,38
 816 1147 816 1147 909 1131.5 c 128,-1,39
 1002 1116 1002 1116 1094 1085 c 1,0,-1
EndSplineSet
EndChar

StartChar: t
Encoding: 116 116 87
Width: 1233
GlyphClass: 2
Flags: W
LayerCount: 2
Fore
SplineSet
848 1438 m 1,0,-1
 786 1120 l 1,1,-1
 1169 1120 l 1,2,-1
 1126 895 l 1,3,-1
 743 895 l 1,4,-1
 639 365 l 2,5,6
 635 345 635 345 633 330 c 128,-1,7
 631 315 631 315 631 307 c 0,8,9
 631 262 631 262 661 243.5 c 128,-1,10
 691 225 691 225 770 225 c 2,11,-1
 995 225 l 1,12,-1
 952 0 l 1,13,-1
 707 0 l 2,14,15
 503 0 503 0 417.5 55.5 c 128,-1,16
 332 111 332 111 332 240 c 0,17,18
 332 261 332 261 336.5 295 c 128,-1,19
 341 329 341 329 350 379 c 2,20,-1
 451 895 l 1,21,-1
 164 895 l 1,22,-1
 207 1120 l 1,23,-1
 494 1120 l 1,24,-1
 555 1438 l 1,25,-1
 848 1438 l 1,0,-1
EndSplineSet
EndChar

StartChar: u
Encoding: 117 117 88
Width: 1233
GlyphClass: 2
Flags: W
LayerCount: 2
Fore
SplineSet
123 391 m 2,0,-1
 266 1120 l 1,1,-1
 557 1120 l 1,2,-1
 426 436 l 2,3,4
 421 409 421 409 418.5 383 c 128,-1,5
 416 357 416 357 416 332 c 0,6,7
 416 274 416 274 445 242.5 c 128,-1,8
 474 211 474 211 528 211 c 0,9,10
 611 211 611 211 667.5 281 c 128,-1,11
 724 351 724 351 752 489 c 2,12,-1
 874 1120 l 1,13,-1
 1165 1120 l 1,14,-1
 948 0 l 1,15,-1
 655 0 l 1,16,-1
 688 166 l 1,17,18
 644 76 644 76 559 23.5 c 128,-1,19
 474 -29 474 -29 373 -29 c 0,20,21
 244 -29 244 -29 175 41.5 c 128,-1,22
 106 112 106 112 106 244 c 0,23,24
 106 272 106 272 110 308 c 128,-1,25
 114 344 114 344 123 391 c 2,0,-1
EndSplineSet
EndChar

StartChar: v
Encoding: 118 118 89
Width: 1233
GlyphClass: 2
Flags: W
LayerCount: 2
Fore
SplineSet
1231 1120 m 1,0,-1
 680 0 l 1,1,-1
 311 0 l 1,2,-1
 172 1120 l 1,3,-1
 455 1120 l 1,4,-1
 535 242 l 1,5,-1
 924 1120 l 1,6,-1
 1231 1120 l 1,0,-1
EndSplineSet
EndChar

StartChar: w
Encoding: 119 119 90
Width: 1233
GlyphClass: 2
Flags: W
LayerCount: 2
Fore
SplineSet
96 1120 m 1,0,-1
 336 1120 l 1,1,-1
 303 262 l 1,2,-1
 530 827 l 1,3,-1
 760 827 l 1,4,-1
 782 262 l 1,5,-1
 1073 1120 l 1,6,-1
 1325 1120 l 1,7,-1
 907 0 l 1,8,-1
 627 0 l 1,9,-1
 608 590 l 1,10,-1
 369 0 l 1,11,-1
 90 0 l 1,12,-1
 96 1120 l 1,0,-1
EndSplineSet
EndChar

StartChar: x
Encoding: 120 120 91
Width: 1233
GlyphClass: 2
Flags: W
LayerCount: 2
Fore
SplineSet
1227 1120 m 1,0,-1
 750 567 l 1,1,-1
 1028 0 l 1,2,-1
 729 0 l 1,3,-1
 559 356 l 1,4,-1
 256 0 l 1,5,-1
 -76 0 l 1,6,-1
 436 594 l 1,7,-1
 178 1120 l 1,8,-1
 479 1120 l 1,9,-1
 627 803 l 1,10,-1
 895 1120 l 1,11,-1
 1227 1120 l 1,0,-1
EndSplineSet
EndChar

StartChar: y
Encoding: 121 121 92
Width: 1233
GlyphClass: 2
Flags: W
LayerCount: 2
Fore
SplineSet
551 -121 m 2,0,1
 439 -319 439 -319 357.5 -371.5 c 128,-1,2
 276 -424 276 -424 150 -424 c 2,3,-1
 -90 -424 l 1,4,-1
 -45 -201 l 1,5,-1
 72 -201 l 2,6,7
 159 -201 159 -201 209 -171 c 128,-1,8
 259 -141 259 -141 319 -29 c 2,9,-1
 358 45 l 1,10,-1
 141 1120 l 1,11,-1
 438 1120 l 1,12,-1
 565 420 l 1,13,-1
 948 1120 l 1,14,-1
 1257 1120 l 1,15,-1
 551 -121 l 2,0,1
EndSplineSet
EndChar

StartChar: z
Encoding: 122 122 93
Width: 1233
GlyphClass: 2
Flags: W
LayerCount: 2
Fore
SplineSet
293 1120 m 1,0,-1
 1188 1120 l 1,1,-1
 1143 891 l 1,2,-1
 436 219 l 1,3,-1
 1012 219 l 1,4,-1
 969 0 l 1,5,-1
 49 0 l 1,6,-1
 94 229 l 1,7,-1
 801 901 l 1,8,-1
 250 901 l 1,9,-1
 293 1120 l 1,0,-1
EndSplineSet
EndChar

StartChar: braceleft
Encoding: 123 123 94
Width: 1233
GlyphClass: 2
Flags: W
LayerCount: 2
Fore
SplineSet
879 -143 m 1,0,-1
 842 -334 l 1,1,-1
 694 -334 l 2,2,3
 498 -334 498 -334 414 -279.5 c 128,-1,4
 330 -225 330 -225 330 -100 c 0,5,6
 330 -77 330 -77 333.5 -49 c 128,-1,7
 337 -21 337 -21 348 35 c 2,8,-1
 391 250 l 2,9,10
 400 298 400 298 404 328.5 c 128,-1,11
 408 359 408 359 408 379 c 0,12,13
 408 455 408 455 360 485.5 c 128,-1,14
 312 516 312 516 193 516 c 2,15,-1
 131 516 l 1,16,-1
 168 707 l 1,17,-1
 229 707 l 2,18,19
 372 707 372 707 436 762 c 128,-1,20
 500 817 500 817 530 973 c 2,21,-1
 571 1188 l 2,22,23
 614 1412 614 1412 707.5 1484 c 128,-1,24
 801 1556 801 1556 1061 1556 c 2,25,-1
 1210 1556 l 1,26,-1
 1174 1366 l 1,27,-1
 1051 1366 l 2,28,29
 947 1366 947 1366 902.5 1323 c 128,-1,30
 858 1280 858 1280 831 1139 c 2,31,-1
 793 930 l 2,32,33
 761 763 761 763 698.5 696 c 128,-1,34
 636 629 636 629 506 612 c 1,35,36
 601 591 601 591 642.5 547.5 c 128,-1,37
 684 504 684 504 684 428 c 0,38,39
 684 399 684 399 680 364.5 c 128,-1,40
 676 330 676 330 668 291 c 2,41,-1
 627 86 l 2,42,43
 618 40 618 40 614 12 c 128,-1,44
 610 -16 610 -16 610 -33 c 0,45,46
 610 -92 610 -92 644 -117.5 c 128,-1,47
 678 -143 678 -143 758 -143 c 2,48,-1
 879 -143 l 1,0,-1
EndSplineSet
EndChar

StartChar: bar
Encoding: 124 124 95
Width: 1233
GlyphClass: 2
Flags: W
LayerCount: 2
Fore
SplineSet
729 1556 m 1,0,-1
 729 -492 l 1,1,-1
 502 -492 l 1,2,-1
 502 1556 l 1,3,-1
 729 1556 l 1,0,-1
EndSplineSet
EndChar

StartChar: braceright
Encoding: 125 125 96
Width: 1233
GlyphClass: 2
Flags: W
LayerCount: 2
Fore
SplineSet
6 -143 m 1,0,-1
 129 -143 l 2,1,2
 232 -143 232 -143 276 -100.5 c 128,-1,3
 320 -58 320 -58 348 86 c 2,4,-1
 387 291 l 2,5,6
 419 455 419 455 482 524 c 128,-1,7
 545 593 545 593 674 612 c 1,8,9
 580 628 580 628 538 670 c 128,-1,10
 496 712 496 712 496 791 c 0,11,12
 496 817 496 817 500 852.5 c 128,-1,13
 504 888 504 888 512 930 c 2,14,-1
 553 1139 l 2,15,16
 562 1187 562 1187 565.5 1214 c 128,-1,17
 569 1241 569 1241 569 1257 c 0,18,19
 569 1317 569 1317 536 1341.5 c 128,-1,20
 503 1366 503 1366 422 1366 c 2,21,-1
 301 1366 l 1,22,-1
 338 1556 l 1,23,-1
 485 1556 l 2,24,25
 690 1556 690 1556 772 1508 c 128,-1,26
 854 1460 854 1460 854 1346 c 0,27,28
 854 1311 854 1311 834 1202 c 2,29,-1
 831 1187 l 1,30,-1
 790 972 l 2,31,32
 784 940 784 940 780 911 c 128,-1,33
 776 882 776 882 776 862 c 0,34,35
 776 777 776 777 823.5 742 c 128,-1,36
 871 707 871 707 987 707 c 2,37,-1
 1049 707 l 1,38,-1
 1012 516 l 1,39,-1
 950 516 l 2,40,41
 809 516 809 516 743.5 458 c 128,-1,42
 678 400 678 400 649 250 c 2,43,-1
 608 35 l 2,44,45
 565 -187 565 -187 466 -260.5 c 128,-1,46
 367 -334 367 -334 119 -334 c 2,47,-1
 -31 -334 l 1,48,-1
 6 -143 l 1,0,-1
EndSplineSet
EndChar

StartChar: asciitilde
Encoding: 126 126 97
Width: 1233
GlyphClass: 2
Flags: W
LayerCount: 2
Fore
SplineSet
1226 637 m 1,0,1
 1093 432 1093 432 994 359 c 0,2,3
 893 287 893 287 801 287 c 1,4,5
 729 291 729 291 672 328.5 c 128,-1,6
 615 366 615 366 572 436 c 2,7,-1
 459 625 l 2,8,9
 431 671 431 671 372 670 c 0,10,11
 306 670 306 670 259 607 c 0,12,13
 202 535 202 535 130 414 c 1,14,-1
 -13 508 l 1,15,16
 94 709 94 709 200 794 c 0,17,18
 256 839 256 839 308.5 860.5 c 128,-1,19
 361 882 361 882 409 882 c 0,20,21
 497 883 497 883 564.5 831 c 128,-1,22
 632 779 632 779 678 678 c 0,23,24
 720 587 720 587 760 540.5 c 128,-1,25
 800 494 800 494 838 494 c 0,26,27
 905 494 905 494 965 570 c 0,28,29
 999 613 999 613 1029.5 657 c 128,-1,30
 1060 701 1060 701 1087 747 c 1,31,-1
 1226 637 l 1,0,1
EndSplineSet
EndChar

StartChar: exclamdown
Encoding: 161 161 99
Width: 1233
GlyphClass: 2
Flags: W
LayerCount: 2
Fore
SplineSet
840 1210 m 1,0,-1
 573 1210 l 1,1,-1
 629 1493 l 1,2,-1
 895 1493 l 1,3,-1
 840 1210 l 1,0,-1
604 0 m 1,4,-1
 338 0 l 1,5,-1
 465 655 l 1,6,-1
 567 1012 l 1,7,-1
 766 1012 l 1,8,-1
 731 655 l 1,9,-1
 604 0 l 1,4,-1
EndSplineSet
EndChar

StartChar: cent
Encoding: 162 162 100
Width: 1233
GlyphClass: 2
Flags: W
LayerCount: 2
Fore
SplineSet
1102 1077 m 1,0,-1
 1049 813 l 1,1,2
 1004 853 1004 853 949 876.5 c 128,-1,3
 894 900 894 900 830 907 c 1,4,-1
 695 215 l 1,5,6
 759 220 759 220 823.5 243 c 128,-1,7
 888 266 888 266 952 307 c 1,8,-1
 901 43 l 1,9,10
 839 12 839 12 775.5 -5 c 128,-1,11
 712 -22 712 -22 647 -25 c 1,12,-1
 592 -313 l 1,13,-1
 451 -313 l 1,14,-1
 506 -25 l 1,15,16
 312 -3 312 -3 208 115.5 c 128,-1,17
 104 234 104 234 104 434 c 0,18,19
 104 589 104 589 158.5 727 c 128,-1,20
 213 865 213 865 315 971 c 0,21,22
 395 1054 395 1054 502.5 1098.5 c 128,-1,23
 610 1143 610 1143 733 1145 c 1,24,-1
 788 1432 l 1,25,-1
 930 1432 l 1,26,-1
 875 1145 l 1,27,28
 928 1142 928 1142 985 1125 c 128,-1,29
 1042 1108 1042 1108 1102 1077 c 1,0,-1
552 215 m 1,30,-1
 688 907 l 1,31,32
 552 892 552 892 458.5 761.5 c 128,-1,33
 365 631 365 631 365 457 c 0,34,35
 365 351 365 351 417 284.5 c 128,-1,36
 469 218 469 218 552 215 c 1,30,-1
EndSplineSet
EndChar

StartChar: sterling
Encoding: 163 163 101
Width: 1233
GlyphClass: 2
Flags: W
LayerCount: 2
Fore
SplineSet
1245 1456 m 1,0,-1
 1192 1190 l 1,1,2
 1132 1231 1132 1231 1073 1251.5 c 128,-1,3
 1014 1272 1014 1272 952 1272 c 0,4,5
 847 1272 847 1272 783.5 1205 c 128,-1,6
 720 1138 720 1138 692 995 c 2,7,-1
 659 819 l 1,8,-1
 995 819 l 1,9,-1
 952 594 l 1,10,-1
 614 594 l 1,11,-1
 551 260 l 1,12,-1
 1032 260 l 1,13,-1
 981 0 l 1,14,-1
 -23 0 l 1,15,-1
 29 260 l 1,16,-1
 264 260 l 1,17,-1
 328 594 l 1,18,-1
 129 594 l 1,19,-1
 174 819 l 1,20,-1
 373 819 l 1,21,-1
 410 1016 l 2,22,23
 461 1284 461 1284 589 1402 c 128,-1,24
 717 1520 717 1520 956 1520 c 0,25,26
 1030 1520 1030 1520 1102 1504 c 128,-1,27
 1174 1488 1174 1488 1245 1456 c 1,0,-1
EndSplineSet
EndChar

StartChar: currency
Encoding: 164 164 102
Width: 1233
GlyphClass: 2
Flags: W
LayerCount: 2
Fore
SplineSet
827 643 m 0,0,1
 827 716 827 716 777 765.5 c 128,-1,2
 727 815 727 815 653 815 c 0,3,4
 580 815 580 815 529.5 765.5 c 128,-1,5
 479 716 479 716 479 643 c 0,6,7
 479 569 479 569 529.5 518 c 128,-1,8
 580 467 580 467 653 467 c 0,9,10
 727 467 727 467 777 518 c 128,-1,11
 827 569 827 569 827 643 c 0,0,1
819 938 m 1,12,-1
 991 1108 l 1,13,-1
 1118 979 l 1,14,-1
 948 809 l 1,15,16
 971 768 971 768 982 726.5 c 128,-1,17
 993 685 993 685 993 641 c 0,18,19
 993 594 993 594 981.5 553.5 c 128,-1,20
 970 513 970 513 946 477 c 1,21,-1
 1118 307 l 1,22,-1
 987 176 l 1,23,-1
 817 348 l 1,24,25
 781 324 781 324 741 312.5 c 128,-1,26
 701 301 701 301 653 301 c 0,27,28
 614 301 614 301 572 311.5 c 128,-1,29
 530 322 530 322 485 344 c 1,30,-1
 315 176 l 1,31,-1
 186 305 l 1,32,-1
 356 475 l 1,33,34
 334 517 334 517 322.5 558.5 c 128,-1,35
 311 600 311 600 311 641 c 0,36,37
 311 688 311 688 322.5 728.5 c 128,-1,38
 334 769 334 769 358 807 c 1,39,-1
 186 977 l 1,40,-1
 317 1108 l 1,41,-1
 483 936 l 1,42,43
 524 960 524 960 565.5 971.5 c 128,-1,44
 607 983 607 983 653 983 c 0,45,46
 692 983 692 983 732.5 972 c 128,-1,47
 773 961 773 961 819 938 c 1,12,-1
EndSplineSet
EndChar

StartChar: yen
Encoding: 165 165 103
Width: 1233
GlyphClass: 2
Flags: W
LayerCount: 2
Fore
SplineSet
127 1493 m 1,0,-1
 444 1493 l 1,1,-1
 618 893 l 1,2,-1
 1026 1493 l 1,3,-1
 1343 1493 l 1,4,-1
 969 965 l 1,5,-1
 1192 965 l 1,6,-1
 1155 778 l 1,7,-1
 834 778 l 1,8,-1
 719 627 l 1,9,-1
 1126 627 l 1,10,-1
 1090 438 l 1,11,-1
 678 438 l 1,12,-1
 592 0 l 1,13,-1
 299 0 l 1,14,-1
 383 438 l 1,15,-1
 -29 438 l 1,16,-1
 8 627 l 1,17,-1
 416 627 l 1,18,-1
 358 778 l 1,19,-1
 37 778 l 1,20,-1
 74 965 l 1,21,-1
 297 965 l 1,22,-1
 127 1493 l 1,0,-1
EndSplineSet
EndChar

StartChar: brokenbar
Encoding: 166 166 104
Width: 1233
GlyphClass: 2
Flags: W
LayerCount: 2
Fore
SplineSet
729 408 m 1,0,-1
 729 -350 l 1,1,-1
 502 -350 l 1,2,-1
 502 408 l 1,3,-1
 729 408 l 1,0,-1
729 1432 m 1,4,-1
 729 674 l 1,5,-1
 502 674 l 1,6,-1
 502 1432 l 1,7,-1
 729 1432 l 1,4,-1
EndSplineSet
EndChar

StartChar: section
Encoding: 167 167 105
Width: 1233
GlyphClass: 2
Flags: W
LayerCount: 2
Fore
SplineSet
649 795 m 2,0,1
 648 795 648 795 608 822.5 c 128,-1,2
 568 850 568 850 530 877 c 1,3,4
 472 833 472 833 441 789 c 128,-1,5
 410 745 410 745 410 707 c 0,6,7
 410 668 410 668 427.5 639 c 128,-1,8
 445 610 445 610 483 584 c 2,9,-1
 561 530 l 2,10,11
 583 515 583 515 612 496 c 128,-1,12
 641 477 641 477 682 451 c 1,13,14
 739 490 739 490 770 534 c 128,-1,15
 801 578 801 578 801 618 c 0,16,17
 801 653 801 653 782 685 c 128,-1,18
 763 717 763 717 729 741 c 2,19,-1
 649 795 l 2,0,1
1059 1460 m 1,20,-1
 1014 1231 l 1,21,22
 946 1265 946 1265 880.5 1281.5 c 128,-1,23
 815 1298 815 1298 752 1298 c 0,24,25
 667 1298 667 1298 620 1264 c 128,-1,26
 573 1230 573 1230 573 1167 c 0,27,28
 573 1126 573 1126 603.5 1090 c 128,-1,29
 634 1054 634 1054 743 985 c 2,30,-1
 848 918 l 2,31,32
 947 853 947 853 989.5 792 c 128,-1,33
 1032 731 1032 731 1032 655 c 0,34,35
 1032 571 1032 571 976.5 496 c 128,-1,36
 921 421 921 421 807 354 c 1,37,38
 852 311 852 311 873.5 260.5 c 128,-1,39
 895 210 895 210 895 147 c 0,40,41
 895 -5 895 -5 775.5 -100 c 128,-1,42
 656 -195 656 -195 461 -195 c 0,43,44
 379 -195 379 -195 290.5 -180 c 128,-1,45
 202 -165 202 -165 104 -135 c 1,46,-1
 150 94 l 1,47,48
 224 61 224 61 303 44 c 128,-1,49
 382 27 382 27 457 27 c 0,50,51
 543 27 543 27 590 61 c 128,-1,52
 637 95 637 95 637 158 c 0,53,54
 637 227 637 227 485 328 c 2,55,-1
 467 340 l 1,56,-1
 367 408 l 2,57,58
 258 480 258 480 218 537.5 c 128,-1,59
 178 595 178 595 178 670 c 0,60,61
 178 763 178 763 239 840 c 128,-1,62
 300 917 300 917 414 967 c 1,63,64
 363 1008 363 1008 339 1057 c 128,-1,65
 315 1106 315 1106 315 1169 c 0,66,67
 315 1326 315 1326 432.5 1423 c 128,-1,68
 550 1520 550 1520 741 1520 c 0,69,70
 812 1520 812 1520 892 1505 c 128,-1,71
 972 1490 972 1490 1059 1460 c 1,20,-1
EndSplineSet
EndChar

StartChar: dieresis
Encoding: 168 168 106
Width: 1233
GlyphClass: 2
Flags: W
LayerCount: 2
Fore
SplineSet
858 1585 m 1,0,-1
 1096 1585 l 1,1,-1
 1047 1339 l 1,2,-1
 811 1339 l 1,3,-1
 858 1585 l 1,0,-1
463 1585 m 1,4,-1
 700 1585 l 1,5,-1
 651 1339 l 1,6,-1
 416 1339 l 1,7,-1
 463 1585 l 1,4,-1
EndSplineSet
EndChar

StartChar: copyright
Encoding: 169 169 107
Width: 1233
GlyphClass: 2
Flags: W
LayerCount: 2
Fore
SplineSet
848 1047 m 1,0,-1
 848 879 l 1,1,2
 796 910 796 910 750.5 924 c 128,-1,3
 705 938 705 938 657 938 c 0,4,5
 560 938 560 938 506.5 886.5 c 128,-1,6
 453 835 453 835 453 740 c 256,7,8
 453 645 453 645 506 594 c 128,-1,9
 559 543 559 543 657 543 c 0,10,11
 710 543 710 543 758 557.5 c 128,-1,12
 806 572 806 572 848 602 c 1,13,-1
 848 434 l 1,14,15
 793 417 793 417 740 408 c 128,-1,16
 687 399 687 399 637 399 c 0,17,18
 468 399 468 399 367 492 c 128,-1,19
 266 585 266 585 266 740 c 0,20,21
 266 896 266 896 367 988.5 c 128,-1,22
 468 1081 468 1081 637 1081 c 0,23,24
 692 1081 692 1081 744.5 1072.5 c 128,-1,25
 797 1064 797 1064 848 1047 c 1,0,-1
616 1358 m 0,26,27
 743 1358 743 1358 852 1313 c 128,-1,28
 961 1268 961 1268 1051 1178 c 0,29,30
 1141 1087 1141 1087 1187 977 c 128,-1,31
 1233 867 1233 867 1233 741 c 0,32,33
 1233 616 1233 616 1187.5 507 c 128,-1,34
 1142 398 1142 398 1051 307 c 256,35,36
 960 216 960 216 851 170.5 c 128,-1,37
 742 125 742 125 616 125 c 0,38,39
 491 125 491 125 382 170.5 c 128,-1,40
 273 216 273 216 182 307 c 256,41,42
 91 398 91 398 45.5 507 c 128,-1,43
 0 616 0 616 0 741 c 0,44,45
 0 867 0 867 46 977 c 128,-1,46
 92 1087 92 1087 182 1178 c 0,47,48
 272 1268 272 1268 381 1313 c 128,-1,49
 490 1358 490 1358 616 1358 c 0,26,27
616 1227 m 0,50,51
 517 1227 517 1227 432 1191.5 c 128,-1,52
 347 1156 347 1156 274 1083 c 0,53,54
 203 1012 203 1012 167 926.5 c 128,-1,55
 131 841 131 841 131 740 c 0,56,57
 131 642 131 642 167 557.5 c 128,-1,58
 203 473 203 473 274 401 c 256,59,60
 345 329 345 329 431 292.5 c 128,-1,61
 517 256 517 256 616 256 c 0,62,63
 716 256 716 256 802 292.5 c 128,-1,64
 888 329 888 329 958 401 c 0,65,66
 1030 473 1030 473 1066 557.5 c 128,-1,67
 1102 642 1102 642 1102 740 c 0,68,69
 1102 841 1102 841 1066 926.5 c 128,-1,70
 1030 1012 1030 1012 958 1083 c 0,71,72
 886 1156 886 1156 801.5 1191.5 c 128,-1,73
 717 1227 717 1227 616 1227 c 0,50,51
EndSplineSet
EndChar

StartChar: ordfeminine
Encoding: 170 170 108
Width: 1233
GlyphClass: 2
Flags: W
LayerCount: 2
Fore
SplineSet
1032 1165 m 2,0,-1
 944 717 l 1,1,-1
 737 717 l 1,2,-1
 756 805 l 1,3,4
 710 751 710 751 648.5 724.5 c 128,-1,5
 587 698 587 698 508 698 c 0,6,7
 401 698 401 698 337.5 759 c 128,-1,8
 274 820 274 820 274 924 c 0,9,10
 274 1073 274 1073 385.5 1153 c 128,-1,11
 497 1233 497 1233 705 1233 c 2,12,-1
 840 1233 l 1,13,-1
 846 1268 l 2,14,15
 847 1271 847 1271 847.5 1275 c 128,-1,16
 848 1279 848 1279 848 1286 c 0,17,18
 848 1326 848 1326 811.5 1347 c 128,-1,19
 775 1368 775 1368 705 1368 c 0,20,21
 648 1368 648 1368 574.5 1348 c 128,-1,22
 501 1328 501 1328 418 1290 c 1,23,-1
 451 1464 l 1,24,25
 531 1492 531 1492 602.5 1506 c 128,-1,26
 674 1520 674 1520 739 1520 c 0,27,28
 887 1520 887 1520 969 1467.5 c 128,-1,29
 1051 1415 1051 1415 1051 1321 c 0,30,31
 1051 1289 1051 1289 1047 1254.5 c 128,-1,32
 1043 1220 1043 1220 1032 1165 c 2,0,-1
731 1087 m 2,33,34
 609 1087 609 1087 550.5 1051 c 128,-1,35
 492 1015 492 1015 492 940 c 0,36,37
 492 896 492 896 521 867 c 128,-1,38
 550 838 550 838 594 838 c 0,39,40
 679 838 679 838 735 902.5 c 128,-1,41
 791 967 791 967 811 1087 c 1,42,-1
 731 1087 l 2,33,34
246 598 m 1,43,-1
 934 598 l 1,44,-1
 899 428 l 1,45,-1
 211 428 l 1,46,-1
 246 598 l 1,43,-1
EndSplineSet
EndChar

StartChar: guillemotleft
Encoding: 171 171 109
Width: 1233
GlyphClass: 2
Flags: W
LayerCount: 2
Fore
SplineSet
1102 1059 m 1,0,-1
 1057 821 l 1,1,-1
 737 600 l 1,2,-1
 971 379 l 1,3,-1
 926 141 l 1,4,-1
 532 535 l 1,5,-1
 557 666 l 1,6,-1
 1102 1059 l 1,0,-1
649 1059 m 1,7,-1
 602 821 l 1,8,-1
 283 600 l 1,9,-1
 516 379 l 1,10,-1
 471 141 l 1,11,-1
 78 535 l 1,12,-1
 102 666 l 1,13,-1
 649 1059 l 1,7,-1
EndSplineSet
EndChar

StartChar: logicalnot
Encoding: 172 172 110
Width: 1233
GlyphClass: 2
Flags: W
LayerCount: 2
Fore
SplineSet
88 899 m 1,0,-1
 1145 899 l 1,1,-1
 1145 362 l 1,2,-1
 907 362 l 1,3,-1
 907 662 l 1,4,-1
 88 662 l 1,5,-1
 88 899 l 1,0,-1
EndSplineSet
EndChar

StartChar: sfthyphen
Encoding: 173 173 111
Width: 1233
GlyphClass: 2
Flags: W
LayerCount: 2
Fore
SplineSet
124 724 m 1,0,-1
 1114 724 l 1,1,-1
 1070 455 l 1,2,-1
 80 455 l 1,3,-1
 124 724 l 1,0,-1
EndSplineSet
EndChar

StartChar: registered
Encoding: 174 174 112
Width: 1233
GlyphClass: 2
Flags: W
LayerCount: 2
Fore
SplineSet
616 1358 m 0,0,1
 743 1358 743 1358 852 1313 c 128,-1,2
 961 1268 961 1268 1051 1178 c 0,3,4
 1141 1087 1141 1087 1187 977 c 128,-1,5
 1233 867 1233 867 1233 741 c 0,6,7
 1233 616 1233 616 1187.5 507 c 128,-1,8
 1142 398 1142 398 1051 307 c 256,9,10
 960 216 960 216 851 170.5 c 128,-1,11
 742 125 742 125 616 125 c 0,12,13
 491 125 491 125 382 170.5 c 128,-1,14
 273 216 273 216 182 307 c 256,15,16
 91 398 91 398 45.5 507 c 128,-1,17
 0 616 0 616 0 741 c 0,18,19
 0 867 0 867 46 977 c 128,-1,20
 92 1087 92 1087 182 1178 c 0,21,22
 272 1268 272 1268 381 1313 c 128,-1,23
 490 1358 490 1358 616 1358 c 0,0,1
588 942 m 2,24,-1
 524 942 l 1,25,-1
 524 780 l 1,26,-1
 588 780 l 2,27,28
 645 780 645 780 673.5 800 c 128,-1,29
 702 820 702 820 702 859 c 0,30,31
 702 902 702 902 674 922 c 128,-1,32
 646 942 646 942 588 942 c 2,24,-1
606 1053 m 2,33,34
 739 1053 739 1053 803.5 1009.5 c 128,-1,35
 868 966 868 966 868 876 c 0,36,37
 868 811 868 811 829 769 c 128,-1,38
 790 727 790 727 719 715 c 1,39,40
 757 701 757 701 784.5 673 c 128,-1,41
 812 645 812 645 836 596 c 2,42,-1
 915 430 l 1,43,-1
 743 430 l 1,44,-1
 680 563 l 2,45,46
 653 621 653 621 624.5 644.5 c 128,-1,47
 596 668 596 668 555 670 c 2,48,-1
 524 670 l 1,49,-1
 524 430 l 1,50,-1
 360 430 l 1,51,-1
 360 1053 l 1,52,-1
 606 1053 l 2,33,34
616 1227 m 0,53,54
 517 1227 517 1227 432 1191.5 c 128,-1,55
 347 1156 347 1156 274 1083 c 0,56,57
 203 1012 203 1012 167 926.5 c 128,-1,58
 131 841 131 841 131 740 c 0,59,60
 131 642 131 642 167 557.5 c 128,-1,61
 203 473 203 473 274 399 c 0,62,63
 346 328 346 328 431.5 292 c 128,-1,64
 517 256 517 256 616 256 c 256,65,66
 715 256 715 256 801 292 c 128,-1,67
 887 328 887 328 958 399 c 0,68,69
 1030 473 1030 473 1066 557.5 c 128,-1,70
 1102 642 1102 642 1102 740 c 0,71,72
 1102 841 1102 841 1066 926.5 c 128,-1,73
 1030 1012 1030 1012 958 1083 c 0,74,75
 886 1156 886 1156 801.5 1191.5 c 128,-1,76
 717 1227 717 1227 616 1227 c 0,53,54
EndSplineSet
EndChar

StartChar: macron
Encoding: 175 175 113
Width: 1233
GlyphClass: 2
Flags: W
LayerCount: 2
Fore
SplineSet
120 1512 m 1,0,-1
 1122 1512 l 1,1,-1
 1089 1330 l 1,2,-1
 87 1330 l 1,3,-1
 120 1512 l 1,0,-1
EndSplineSet
EndChar

StartChar: degree
Encoding: 176 176 114
Width: 1233
GlyphClass: 2
Flags: W
LayerCount: 2
Fore
SplineSet
616 1520 m 0,0,1
 683 1520 683 1520 744 1494.5 c 128,-1,2
 805 1469 805 1469 852 1421 c 0,3,4
 899 1374 899 1374 923.5 1314 c 128,-1,5
 948 1254 948 1254 948 1186 c 0,6,7
 948 1120 948 1120 923 1059 c 128,-1,8
 898 998 898 998 852 952 c 0,9,10
 804 905 804 905 743 879.5 c 128,-1,11
 682 854 682 854 614 854 c 0,12,13
 473 854 473 854 378 949 c 128,-1,14
 283 1044 283 1044 283 1186 c 0,15,16
 283 1327 283 1327 379 1423.5 c 128,-1,17
 475 1520 475 1520 616 1520 c 0,0,1
617 1358 m 0,18,19
 545 1358 545 1358 495 1308 c 128,-1,20
 445 1258 445 1258 445 1186 c 256,21,22
 445 1114 445 1114 494 1065 c 128,-1,23
 543 1016 543 1016 615 1016 c 0,24,25
 686 1016 686 1016 736 1065.5 c 128,-1,26
 786 1115 786 1115 786 1186 c 0,27,28
 786 1258 786 1258 736.5 1308 c 128,-1,29
 687 1358 687 1358 617 1358 c 0,18,19
EndSplineSet
EndChar

StartChar: plusminus
Encoding: 177 177 115
Width: 1233
GlyphClass: 2
Flags: W
LayerCount: 2
Fore
SplineSet
736 1284 m 1,0,-1
 736 930 l 1,1,-1
 1146 930 l 1,2,-1
 1146 694 l 1,3,-1
 736 694 l 1,4,-1
 736 340 l 1,5,-1
 498 340 l 1,6,-1
 498 694 l 1,7,-1
 88 694 l 1,8,-1
 88 930 l 1,9,-1
 498 930 l 1,10,-1
 498 1284 l 1,11,-1
 736 1284 l 1,0,-1
88 238 m 1,12,-1
 1146 238 l 1,13,-1
 1146 0 l 1,14,-1
 88 0 l 1,15,-1
 88 238 l 1,12,-1
EndSplineSet
EndChar

StartChar: twosuperior
Encoding: 178 178 116
Width: 1233
GlyphClass: 2
Flags: W
LayerCount: 2
Fore
SplineSet
514 813 m 1,0,-1
 952 813 l 1,1,-1
 924 668 l 1,2,-1
 260 668 l 1,3,-1
 289 809 l 1,4,5
 340 846 340 846 431 911 c 0,6,7
 831 1197 831 1197 831 1288 c 0,8,9
 831 1333 831 1333 795 1357.5 c 128,-1,10
 759 1382 759 1382 692 1382 c 0,11,12
 629 1382 629 1382 554.5 1364 c 128,-1,13
 480 1346 480 1346 403 1311 c 1,14,-1
 434 1473 l 1,15,16
 510 1496 510 1496 583 1508 c 128,-1,17
 656 1520 656 1520 729 1520 c 0,18,19
 873 1520 873 1520 950.5 1466 c 128,-1,20
 1028 1412 1028 1412 1028 1313 c 0,21,22
 1028 1173 1028 1173 618 886 c 0,23,24
 550 839 550 839 514 813 c 1,0,-1
EndSplineSet
EndChar

StartChar: threesuperior
Encoding: 179 179 117
Width: 1233
GlyphClass: 2
Flags: W
LayerCount: 2
Fore
SplineSet
639 1042 m 2,0,-1
 528 1042 l 1,1,-1
 557 1188 l 1,2,-1
 666 1188 l 2,3,4
 754 1188 754 1188 801 1215.5 c 128,-1,5
 848 1243 848 1243 848 1294 c 0,6,7
 848 1334 848 1334 808 1357 c 128,-1,8
 768 1380 768 1380 698 1380 c 0,9,10
 650 1380 650 1380 581 1368 c 128,-1,11
 512 1356 512 1356 432 1333 c 1,12,-1
 461 1485 l 1,13,14
 534 1502 534 1502 604.5 1511 c 128,-1,15
 675 1520 675 1520 741 1520 c 0,16,17
 882 1520 882 1520 961 1469 c 128,-1,18
 1040 1418 1040 1418 1040 1329 c 0,19,20
 1040 1239 1040 1239 979.5 1183.5 c 128,-1,21
 919 1128 919 1128 807 1116 c 1,22,23
 890 1107 890 1107 939.5 1057.5 c 128,-1,24
 989 1008 989 1008 989 934 c 0,25,26
 989 800 989 800 879.5 726.5 c 128,-1,27
 770 653 770 653 567 653 c 0,28,29
 492 653 492 653 418.5 663.5 c 128,-1,30
 345 674 345 674 276 694 c 1,31,-1
 307 848 l 1,32,33
 369 821 369 821 442 807 c 128,-1,34
 515 793 515 793 594 793 c 0,35,36
 690 793 690 793 745.5 833.5 c 128,-1,37
 801 874 801 874 801 944 c 0,38,39
 801 989 801 989 757.5 1015.5 c 128,-1,40
 714 1042 714 1042 639 1042 c 2,0,-1
EndSplineSet
EndChar

StartChar: acute
Encoding: 180 180 118
Width: 1233
GlyphClass: 2
Flags: W
LayerCount: 2
Fore
SplineSet
887 1638 m 1,0,-1
 1208 1638 l 1,1,-1
 766 1262 l 1,2,-1
 569 1262 l 1,3,-1
 887 1638 l 1,0,-1
EndSplineSet
EndChar

StartChar: mu
Encoding: 181 181 119
Width: 1233
GlyphClass: 2
Flags: W
LayerCount: 2
Fore
SplineSet
-55 -428 m 1,0,-1
 246 1120 l 1,1,-1
 535 1120 l 1,2,-1
 403 440 l 2,3,4
 397 412 397 412 394 388 c 128,-1,5
 391 364 391 364 391 346 c 0,6,7
 391 283 391 283 425 248 c 128,-1,8
 459 213 459 213 520 213 c 0,9,10
 602 213 602 213 653 269 c 128,-1,11
 704 325 704 325 727 440 c 2,12,-1
 858 1120 l 1,13,-1
 1147 1120 l 1,14,-1
 997 344 l 2,15,16
 992 309 992 309 989.5 292.5 c 128,-1,17
 987 276 987 276 987 268 c 0,18,19
 987 241 987 241 997.5 227 c 128,-1,20
 1008 213 1008 213 1028 213 c 0,21,22
 1040 213 1040 213 1054.5 219 c 128,-1,23
 1069 225 1069 225 1090 238 c 1,24,-1
 1047 16 l 1,25,26
 1001 -7 1001 -7 961 -18 c 128,-1,27
 921 -29 921 -29 885 -29 c 0,28,29
 813 -29 813 -29 775 8.5 c 128,-1,30
 737 46 737 46 725 129 c 1,31,32
 672 50 672 50 610.5 10.5 c 128,-1,33
 549 -29 549 -29 479 -29 c 0,34,35
 421 -29 421 -29 383 -5 c 128,-1,36
 345 19 345 19 330 66 c 1,37,-1
 233 -428 l 1,38,-1
 -55 -428 l 1,0,-1
EndSplineSet
EndChar

StartChar: paragraph
Encoding: 182 182 120
Width: 1233
GlyphClass: 2
Flags: W
LayerCount: 2
Fore
SplineSet
672 1493 m 2,0,-1
 1190 1493 l 1,1,-1
 862 -197 l 1,2,-1
 672 -197 l 1,3,-1
 973 1346 l 1,4,-1
 782 1346 l 1,5,-1
 483 -197 l 1,6,-1
 293 -197 l 1,7,-1
 457 649 l 1,8,9
 286 667 286 667 194 753 c 128,-1,10
 102 839 102 839 102 981 c 0,11,12
 102 1198 102 1198 264.5 1345.5 c 128,-1,13
 427 1493 427 1493 672 1493 c 2,0,-1
EndSplineSet
EndChar

StartChar: periodcentered
Encoding: 183 183 121
Width: 1233
GlyphClass: 2
Flags: W
LayerCount: 2
Fore
SplineSet
479 895 m 1,0,-1
 813 895 l 1,1,-1
 741 530 l 1,2,-1
 408 530 l 1,3,-1
 479 895 l 1,0,-1
EndSplineSet
EndChar

StartChar: cedilla
Encoding: 184 184 122
Width: 1233
GlyphClass: 2
Flags: W
LayerCount: 2
Fore
SplineSet
564 0 m 1,0,1
 600 -48 600 -48 618 -94 c 128,-1,2
 636 -140 636 -140 636 -184 c 0,3,4
 636 -283 636 -283 558 -342 c 128,-1,5
 480 -401 480 -401 348 -401 c 0,6,7
 295 -401 295 -401 243.5 -394.5 c 128,-1,8
 192 -388 192 -388 143 -375 c 1,9,-1
 172 -219 l 1,10,11
 215 -236 215 -236 255.5 -245 c 128,-1,12
 296 -254 296 -254 331 -254 c 0,13,14
 399 -254 399 -254 435.5 -227 c 128,-1,15
 472 -200 472 -200 472 -150 c 0,16,17
 472 -124 472 -124 461 -89.5 c 128,-1,18
 450 -55 450 -55 423 0 c 1,19,-1
 564 0 l 1,0,1
EndSplineSet
EndChar

StartChar: onesuperior
Encoding: 185 185 123
Width: 1233
GlyphClass: 2
Flags: W
LayerCount: 2
Fore
SplineSet
315 813 m 1,0,-1
 551 813 l 1,1,-1
 657 1356 l 1,2,-1
 428 1313 l 1,3,-1
 457 1462 l 1,4,-1
 686 1503 l 1,5,-1
 883 1503 l 1,6,-1
 748 813 l 1,7,-1
 975 813 l 1,8,-1
 946 668 l 1,9,-1
 289 668 l 1,10,-1
 315 813 l 1,0,-1
EndSplineSet
EndChar

StartChar: ordmasculine
Encoding: 186 186 124
Width: 1233
GlyphClass: 2
Flags: W
LayerCount: 2
Fore
SplineSet
307 1016 m 0,0,1
 307 1240 307 1240 426.5 1380 c 128,-1,2
 546 1520 546 1520 739 1520 c 0,3,4
 894 1520 894 1520 980.5 1436 c 128,-1,5
 1067 1352 1067 1352 1067 1202 c 0,6,7
 1067 977 1067 977 948 837.5 c 128,-1,8
 829 698 829 698 637 698 c 0,9,10
 481 698 481 698 394 782 c 128,-1,11
 307 866 307 866 307 1016 c 0,0,1
856 1196 m 0,12,13
 856 1272 856 1272 822 1314 c 128,-1,14
 788 1356 788 1356 727 1356 c 0,15,16
 640 1356 640 1356 580 1260 c 128,-1,17
 520 1164 520 1164 520 1022 c 0,18,19
 520 947 520 947 554.5 904.5 c 128,-1,20
 589 862 589 862 649 862 c 0,21,22
 736 862 736 862 796 958 c 128,-1,23
 856 1054 856 1054 856 1196 c 0,12,13
254 598 m 1,24,-1
 942 598 l 1,25,-1
 909 428 l 1,26,-1
 221 428 l 1,27,-1
 254 598 l 1,24,-1
EndSplineSet
EndChar

StartChar: guillemotright
Encoding: 187 187 125
Width: 1233
GlyphClass: 2
Flags: W
LayerCount: 2
Fore
SplineSet
260 1059 m 1,0,-1
 653 666 l 1,1,-1
 627 535 l 1,2,-1
 82 141 l 1,3,-1
 127 379 l 1,4,-1
 449 600 l 1,5,-1
 215 821 l 1,6,-1
 260 1059 l 1,0,-1
715 1059 m 1,7,-1
 1108 666 l 1,8,-1
 1081 535 l 1,9,-1
 537 141 l 1,10,-1
 582 379 l 1,11,-1
 903 600 l 1,12,-1
 670 821 l 1,13,-1
 715 1059 l 1,7,-1
EndSplineSet
EndChar

StartChar: onequarter
Encoding: 188 188 126
Width: 1233
GlyphClass: 2
Flags: W
LayerCount: 2
Fore
SplineSet
887 384 m 1,0,-1
 573 54 l 1,1,-1
 823 54 l 1,2,-1
 887 384 l 1,0,-1
905 566 m 1,3,-1
 1110 566 l 1,4,-1
 1009 54 l 1,5,-1
 1118 54 l 1,6,-1
 1091 -89 l 1,7,-1
 983 -89 l 1,8,-1
 948 -269 l 1,9,-1
 760 -269 l 1,10,-1
 796 -89 l 1,11,-1
 407 -89 l 1,12,-1
 438 73 l 1,13,-1
 905 566 l 1,3,-1
58 969 m 1,14,-1
 294 969 l 1,15,-1
 400 1512 l 1,16,-1
 171 1469 l 1,17,-1
 200 1618 l 1,18,-1
 429 1659 l 1,19,-1
 626 1659 l 1,20,-1
 491 969 l 1,21,-1
 718 969 l 1,22,-1
 689 824 l 1,23,-1
 32 824 l 1,24,-1
 58 969 l 1,14,-1
84 500 m 1,25,-1
 47 618 l 1,26,-1
 1106 879 l 1,27,-1
 1143 762 l 1,28,-1
 84 500 l 1,25,-1
EndSplineSet
EndChar

StartChar: onehalf
Encoding: 189 189 127
Width: 1233
GlyphClass: 2
Flags: W
LayerCount: 2
Fore
SplineSet
58 969 m 1,0,-1
 294 969 l 1,1,-1
 400 1512 l 1,2,-1
 171 1469 l 1,3,-1
 200 1618 l 1,4,-1
 429 1659 l 1,5,-1
 626 1659 l 1,6,-1
 491 969 l 1,7,-1
 718 969 l 1,8,-1
 689 824 l 1,9,-1
 32 824 l 1,10,-1
 58 969 l 1,0,-1
84 500 m 1,11,-1
 47 618 l 1,12,-1
 1106 879 l 1,13,-1
 1143 762 l 1,14,-1
 84 500 l 1,11,-1
668 -124 m 1,15,-1
 1106 -124 l 1,16,-1
 1078 -269 l 1,17,-1
 414 -269 l 1,18,-1
 443 -128 l 1,19,20
 494 -91 494 -91 585 -26 c 0,21,22
 985 260 985 260 985 351 c 0,23,24
 985 396 985 396 949 420.5 c 128,-1,25
 913 445 913 445 846 445 c 0,26,27
 783 445 783 445 708.5 427 c 128,-1,28
 634 409 634 409 557 374 c 1,29,-1
 588 536 l 1,30,31
 664 559 664 559 737 571 c 128,-1,32
 810 583 810 583 883 583 c 0,33,34
 1027 583 1027 583 1104.5 529 c 128,-1,35
 1182 475 1182 475 1182 376 c 0,36,37
 1182 236 1182 236 772 -51 c 0,38,39
 704 -98 704 -98 668 -124 c 1,15,-1
EndSplineSet
EndChar

StartChar: threequarters
Encoding: 190 190 128
Width: 1233
GlyphClass: 2
Flags: W
LayerCount: 2
Fore
SplineSet
887 384 m 1,0,-1
 573 54 l 1,1,-1
 823 54 l 1,2,-1
 887 384 l 1,0,-1
905 566 m 1,3,-1
 1110 566 l 1,4,-1
 1009 54 l 1,5,-1
 1118 54 l 1,6,-1
 1091 -89 l 1,7,-1
 983 -89 l 1,8,-1
 948 -269 l 1,9,-1
 760 -269 l 1,10,-1
 796 -89 l 1,11,-1
 407 -89 l 1,12,-1
 438 73 l 1,13,-1
 905 566 l 1,3,-1
413 1198 m 2,14,-1
 302 1198 l 1,15,-1
 331 1344 l 1,16,-1
 440 1344 l 2,17,18
 528 1344 528 1344 575 1371.5 c 128,-1,19
 622 1399 622 1399 622 1450 c 0,20,21
 622 1490 622 1490 582 1513 c 128,-1,22
 542 1536 542 1536 472 1536 c 0,23,24
 424 1536 424 1536 355 1524 c 128,-1,25
 286 1512 286 1512 206 1489 c 1,26,-1
 235 1641 l 1,27,28
 308 1658 308 1658 378.5 1667 c 128,-1,29
 449 1676 449 1676 515 1676 c 0,30,31
 656 1676 656 1676 735 1625 c 128,-1,32
 814 1574 814 1574 814 1485 c 0,33,34
 814 1395 814 1395 753.5 1339.5 c 128,-1,35
 693 1284 693 1284 581 1272 c 1,36,37
 664 1263 664 1263 713.5 1213.5 c 128,-1,38
 763 1164 763 1164 763 1090 c 0,39,40
 763 956 763 956 653.5 882.5 c 128,-1,41
 544 809 544 809 341 809 c 0,42,43
 266 809 266 809 192.5 819.5 c 128,-1,44
 119 830 119 830 50 850 c 1,45,-1
 81 1004 l 1,46,47
 143 977 143 977 216 963 c 128,-1,48
 289 949 289 949 368 949 c 0,49,50
 464 949 464 949 519.5 989.5 c 128,-1,51
 575 1030 575 1030 575 1100 c 0,52,53
 575 1145 575 1145 531.5 1171.5 c 128,-1,54
 488 1198 488 1198 413 1198 c 2,14,-1
84 500 m 1,55,-1
 47 618 l 1,56,-1
 1106 879 l 1,57,-1
 1143 762 l 1,58,-1
 84 500 l 1,55,-1
EndSplineSet
EndChar

StartChar: questiondown
Encoding: 191 191 129
Width: 1233
GlyphClass: 2
Flags: W
LayerCount: 2
Fore
SplineSet
594 1092 m 1,0,-1
 860 1092 l 1,1,-1
 831 938 l 2,2,3
 814 843 814 843 769.5 772 c 128,-1,4
 725 701 725 701 631 621 c 2,5,-1
 526 528 l 1,6,-1
 511 515 l 2,7,8
 371 393 371 393 371 328 c 0,9,10
 371 271 371 271 408 240 c 128,-1,11
 445 209 445 209 514 209 c 0,12,13
 603 209 603 209 705.5 245.5 c 128,-1,14
 808 282 808 282 924 354 c 1,15,-1
 872 86 l 1,16,17
 771 31 771 31 664 2 c 128,-1,18
 557 -27 557 -27 453 -27 c 0,19,20
 288 -27 288 -27 189 55.5 c 128,-1,21
 90 138 90 138 90 272 c 0,22,23
 90 367 90 367 139 450 c 128,-1,24
 188 533 188 533 305 631 c 2,25,-1
 410 717 l 1,26,-1
 418 724 l 2,27,28
 544 829 544 829 571 969 c 2,29,-1
 594 1092 l 1,0,-1
885 1210 m 1,30,-1
 618 1210 l 1,31,-1
 672 1493 l 1,32,-1
 940 1493 l 1,33,-1
 885 1210 l 1,30,-1
EndSplineSet
EndChar

StartChar: Agrave
Encoding: 192 192 130
Width: 1233
GlyphClass: 3
Flags: W
LayerCount: 2
Fore
SplineSet
717 1219 m 1,0,-1
 453 612 l 1,1,-1
 737 612 l 1,2,-1
 717 1219 l 1,0,-1
582 1493 m 1,3,-1
 942 1493 l 1,4,-1
 1055 0 l 1,5,-1
 762 0 l 1,6,-1
 748 369 l 1,7,-1
 348 369 l 1,8,-1
 186 0 l 1,9,-1
 -113 0 l 1,10,-1
 582 1493 l 1,3,-1
764 1899 m 1,11,-1
 907 1635 l 1,12,-1
 729 1635 l 1,13,-1
 500 1899 l 1,14,-1
 764 1899 l 1,11,-1
EndSplineSet
EndChar

StartChar: Aacute
Encoding: 193 193 131
Width: 1233
GlyphClass: 3
Flags: W
LayerCount: 2
Fore
SplineSet
717 1219 m 1,0,-1
 453 612 l 1,1,-1
 737 612 l 1,2,-1
 717 1219 l 1,0,-1
582 1493 m 1,3,-1
 942 1493 l 1,4,-1
 1055 0 l 1,5,-1
 762 0 l 1,6,-1
 748 369 l 1,7,-1
 348 369 l 1,8,-1
 186 0 l 1,9,-1
 -113 0 l 1,10,-1
 582 1493 l 1,3,-1
862 1899 m 1,11,-1
 1143 1899 l 1,12,-1
 823 1635 l 1,13,-1
 616 1635 l 1,14,-1
 862 1899 l 1,11,-1
EndSplineSet
EndChar

StartChar: Acircumflex
Encoding: 194 194 132
Width: 1233
GlyphClass: 3
Flags: W
LayerCount: 2
Fore
SplineSet
717 1219 m 1,0,-1
 453 612 l 1,1,-1
 737 612 l 1,2,-1
 717 1219 l 1,0,-1
582 1493 m 1,3,-1
 942 1493 l 1,4,-1
 1055 0 l 1,5,-1
 762 0 l 1,6,-1
 748 369 l 1,7,-1
 348 369 l 1,8,-1
 186 0 l 1,9,-1
 -113 0 l 1,10,-1
 582 1493 l 1,3,-1
639 1899 m 1,11,-1
 987 1899 l 1,12,-1
 1138 1635 l 1,13,-1
 969 1635 l 1,14,-1
 805 1796 l 1,15,-1
 575 1635 l 1,16,-1
 395 1635 l 1,17,-1
 639 1899 l 1,11,-1
EndSplineSet
EndChar

StartChar: Atilde
Encoding: 195 195 133
Width: 1233
GlyphClass: 3
Flags: W
LayerCount: 2
Fore
SplineSet
717 1219 m 1,0,-1
 453 612 l 1,1,-1
 737 612 l 1,2,-1
 717 1219 l 1,0,-1
582 1493 m 1,3,-1
 942 1493 l 1,4,-1
 1055 0 l 1,5,-1
 762 0 l 1,6,-1
 748 369 l 1,7,-1
 348 369 l 1,8,-1
 186 0 l 1,9,-1
 -113 0 l 1,10,-1
 582 1493 l 1,3,-1
782 1686 m 2,11,-1
 733 1723 l 2,12,13
 708 1742 708 1742 691.5 1748.5 c 128,-1,14
 675 1755 675 1755 657 1755 c 0,15,16
 622 1755 622 1755 595.5 1723 c 128,-1,17
 569 1691 569 1691 559 1635 c 1,18,-1
 422 1635 l 1,19,20
 447 1763 447 1763 512.5 1832 c 128,-1,21
 578 1901 578 1901 674 1901 c 0,22,23
 711 1901 711 1901 743.5 1889 c 128,-1,24
 776 1877 776 1877 811 1850 c 2,25,-1
 864 1809 l 2,26,27
 879 1796 879 1796 897.5 1789 c 128,-1,28
 916 1782 916 1782 932 1782 c 0,29,30
 971 1782 971 1782 997 1812.5 c 128,-1,31
 1023 1843 1023 1843 1034 1901 c 1,32,-1
 1171 1901 l 1,33,34
 1145 1773 1145 1773 1080 1704 c 128,-1,35
 1015 1635 1015 1635 921 1635 c 0,36,37
 884 1635 884 1635 852 1646 c 128,-1,38
 820 1657 820 1657 782 1686 c 2,11,-1
EndSplineSet
EndChar

StartChar: Adieresis
Encoding: 196 196 134
Width: 1233
GlyphClass: 3
Flags: W
LayerCount: 2
Fore
SplineSet
717 1219 m 1,0,-1
 453 612 l 1,1,-1
 737 612 l 1,2,-1
 717 1219 l 1,0,-1
582 1493 m 1,3,-1
 942 1493 l 1,4,-1
 1055 0 l 1,5,-1
 762 0 l 1,6,-1
 748 369 l 1,7,-1
 348 369 l 1,8,-1
 186 0 l 1,9,-1
 -113 0 l 1,10,-1
 582 1493 l 1,3,-1
899 1899 m 1,11,-1
 1134 1899 l 1,12,-1
 1087 1653 l 1,13,-1
 850 1653 l 1,14,-1
 899 1899 l 1,11,-1
504 1899 m 1,15,-1
 739 1899 l 1,16,-1
 690 1653 l 1,17,-1
 454 1653 l 1,18,-1
 504 1899 l 1,15,-1
EndSplineSet
EndChar

StartChar: Aring
Encoding: 197 197 135
Width: 1233
GlyphClass: 3
Flags: W
LayerCount: 2
Fore
SplineSet
623 1616 m 256,0,1
 623 1562 623 1562 661.5 1523.5 c 128,-1,2
 700 1485 700 1485 754 1485 c 256,3,4
 808 1485 808 1485 846.5 1523.5 c 128,-1,5
 885 1562 885 1562 885 1616 c 256,6,7
 885 1670 885 1670 846 1708.5 c 128,-1,8
 807 1747 807 1747 754 1747 c 0,9,10
 700 1747 700 1747 661.5 1708.5 c 128,-1,11
 623 1670 623 1670 623 1616 c 256,0,1
948 1409 m 1,12,-1
 1055 0 l 1,13,-1
 760 0 l 1,14,-1
 739 369 l 1,15,-1
 344 369 l 1,16,-1
 182 0 l 1,17,-1
 -113 0 l 1,18,-1
 547 1421 l 1,19,20
 511 1457 511 1457 490 1510 c 128,-1,21
 469 1563 469 1563 469 1616 c 0,22,23
 469 1733 469 1733 552.5 1817 c 128,-1,24
 636 1901 636 1901 754 1901 c 0,25,26
 870 1901 870 1901 954 1817 c 128,-1,27
 1038 1733 1038 1733 1038 1616 c 0,28,29
 1038 1557 1038 1557 1014.5 1503 c 128,-1,30
 991 1449 991 1449 948 1409 c 1,12,-1
709 1223 m 1,31,-1
 451 612 l 1,32,-1
 729 612 l 1,33,-1
 709 1223 l 1,31,-1
EndSplineSet
EndChar

StartChar: AE
Encoding: 198 198 136
Width: 1233
GlyphClass: 2
Flags: W
LayerCount: 2
Fore
SplineSet
1311 1493 m 1,0,-1
 1260 1233 l 1,1,-1
 969 1233 l 1,2,-1
 909 922 l 1,3,-1
 1169 922 l 1,4,-1
 1118 662 l 1,5,-1
 858 662 l 1,6,-1
 780 260 l 1,7,-1
 1090 260 l 1,8,-1
 1038 0 l 1,9,-1
 475 0 l 1,10,-1
 547 362 l 1,11,-1
 264 362 l 1,12,-1
 109 0 l 1,13,-1
 -150 0 l 1,14,-1
 502 1493 l 1,15,-1
 1311 1493 l 1,0,-1
637 1233 m 1,16,-1
 365 598 l 1,17,-1
 592 598 l 1,18,-1
 717 1233 l 1,19,-1
 637 1233 l 1,16,-1
EndSplineSet
EndChar

StartChar: Ccedilla
Encoding: 199 199 137
Width: 1233
GlyphClass: 3
Flags: W
LayerCount: 2
Fore
SplineSet
946 43 m 1,0,1
 869 7 869 7 788.5 -11 c 128,-1,2
 708 -29 708 -29 623 -29 c 0,3,4
 384 -29 384 -29 257.5 108.5 c 128,-1,5
 131 246 131 246 131 506 c 0,6,7
 131 736 131 736 201.5 947.5 c 128,-1,8
 272 1159 272 1159 393 1296 c 0,9,10
 490 1406 490 1406 620 1463 c 128,-1,11
 750 1520 750 1520 903 1520 c 0,12,13
 985 1520 985 1520 1063.5 1502 c 128,-1,14
 1142 1484 1142 1484 1219 1448 c 1,15,-1
 1155 1120 l 1,16,17
 1105 1188 1105 1188 1032.5 1222.5 c 128,-1,18
 960 1257 960 1257 872 1257 c 0,19,20
 792 1257 792 1257 715 1208.5 c 128,-1,21
 638 1160 638 1160 584 1075 c 0,22,23
 515 968 515 968 472.5 817.5 c 128,-1,24
 430 667 430 667 430 532 c 0,25,26
 430 386 430 386 493 308.5 c 128,-1,27
 556 231 556 231 674 231 c 0,28,29
 755 231 755 231 835.5 264.5 c 128,-1,30
 916 298 916 298 1010 371 c 1,31,-1
 946 43 l 1,0,1
681 0 m 1,32,33
 717 -48 717 -48 735 -94 c 128,-1,34
 753 -140 753 -140 753 -184 c 0,35,36
 753 -283 753 -283 675 -342 c 128,-1,37
 597 -401 597 -401 465 -401 c 0,38,39
 412 -401 412 -401 360.5 -394.5 c 128,-1,40
 309 -388 309 -388 260 -375 c 1,41,-1
 289 -219 l 1,42,43
 332 -236 332 -236 372.5 -245 c 128,-1,44
 413 -254 413 -254 448 -254 c 0,45,46
 516 -254 516 -254 552.5 -227 c 128,-1,47
 589 -200 589 -200 589 -150 c 0,48,49
 589 -124 589 -124 578 -89.5 c 128,-1,50
 567 -55 567 -55 540 0 c 1,51,-1
 681 0 l 1,32,33
EndSplineSet
EndChar

StartChar: Egrave
Encoding: 200 200 138
Width: 1233
GlyphClass: 3
Flags: W
LayerCount: 2
Fore
SplineSet
958 0 m 1,0,-1
 29 0 l 1,1,-1
 317 1493 l 1,2,-1
 1249 1493 l 1,3,-1
 1198 1233 l 1,4,-1
 563 1233 l 1,5,-1
 500 911 l 1,6,-1
 1075 911 l 1,7,-1
 1026 651 l 1,8,-1
 451 651 l 1,9,-1
 375 260 l 1,10,-1
 1010 260 l 1,11,-1
 958 0 l 1,0,-1
801 1899 m 1,12,-1
 944 1635 l 1,13,-1
 766 1635 l 1,14,-1
 537 1899 l 1,15,-1
 801 1899 l 1,12,-1
EndSplineSet
EndChar

StartChar: Eacute
Encoding: 201 201 139
Width: 1233
GlyphClass: 3
Flags: W
LayerCount: 2
Fore
SplineSet
958 0 m 1,0,-1
 29 0 l 1,1,-1
 317 1493 l 1,2,-1
 1249 1493 l 1,3,-1
 1198 1233 l 1,4,-1
 563 1233 l 1,5,-1
 500 911 l 1,6,-1
 1075 911 l 1,7,-1
 1026 651 l 1,8,-1
 451 651 l 1,9,-1
 375 260 l 1,10,-1
 1010 260 l 1,11,-1
 958 0 l 1,0,-1
899 1899 m 1,12,-1
 1180 1899 l 1,13,-1
 860 1635 l 1,14,-1
 653 1635 l 1,15,-1
 899 1899 l 1,12,-1
EndSplineSet
EndChar

StartChar: Ecircumflex
Encoding: 202 202 140
Width: 1233
GlyphClass: 3
Flags: W
LayerCount: 2
Fore
SplineSet
958 0 m 1,0,-1
 29 0 l 1,1,-1
 317 1493 l 1,2,-1
 1249 1493 l 1,3,-1
 1198 1233 l 1,4,-1
 563 1233 l 1,5,-1
 500 911 l 1,6,-1
 1075 911 l 1,7,-1
 1026 651 l 1,8,-1
 451 651 l 1,9,-1
 375 260 l 1,10,-1
 1010 260 l 1,11,-1
 958 0 l 1,0,-1
676 1899 m 1,12,-1
 1024 1899 l 1,13,-1
 1175 1635 l 1,14,-1
 1006 1635 l 1,15,-1
 842 1796 l 1,16,-1
 612 1635 l 1,17,-1
 432 1635 l 1,18,-1
 676 1899 l 1,12,-1
EndSplineSet
EndChar

StartChar: Edieresis
Encoding: 203 203 141
Width: 1233
GlyphClass: 3
Flags: W
LayerCount: 2
Fore
SplineSet
958 0 m 1,0,-1
 29 0 l 1,1,-1
 317 1493 l 1,2,-1
 1249 1493 l 1,3,-1
 1198 1233 l 1,4,-1
 563 1233 l 1,5,-1
 500 911 l 1,6,-1
 1075 911 l 1,7,-1
 1026 651 l 1,8,-1
 451 651 l 1,9,-1
 375 260 l 1,10,-1
 1010 260 l 1,11,-1
 958 0 l 1,0,-1
936 1899 m 1,12,-1
 1171 1899 l 1,13,-1
 1124 1653 l 1,14,-1
 887 1653 l 1,15,-1
 936 1899 l 1,12,-1
541 1899 m 1,16,-1
 776 1899 l 1,17,-1
 727 1653 l 1,18,-1
 491 1653 l 1,19,-1
 541 1899 l 1,16,-1
EndSplineSet
EndChar

StartChar: Igrave
Encoding: 204 204 142
Width: 1233
GlyphClass: 3
Flags: W
LayerCount: 2
Fore
SplineSet
266 1233 m 1,0,-1
 317 1493 l 1,1,-1
 1206 1493 l 1,2,-1
 1155 1233 l 1,3,-1
 858 1233 l 1,4,-1
 670 260 l 1,5,-1
 967 260 l 1,6,-1
 915 0 l 1,7,-1
 27 0 l 1,8,-1
 78 260 l 1,9,-1
 375 260 l 1,10,-1
 563 1233 l 1,11,-1
 266 1233 l 1,0,-1
760 1899 m 1,12,-1
 903 1635 l 1,13,-1
 725 1635 l 1,14,-1
 496 1899 l 1,15,-1
 760 1899 l 1,12,-1
EndSplineSet
EndChar

StartChar: Iacute
Encoding: 205 205 143
Width: 1233
GlyphClass: 3
Flags: W
LayerCount: 2
Fore
SplineSet
266 1233 m 1,0,-1
 317 1493 l 1,1,-1
 1206 1493 l 1,2,-1
 1155 1233 l 1,3,-1
 858 1233 l 1,4,-1
 670 260 l 1,5,-1
 967 260 l 1,6,-1
 915 0 l 1,7,-1
 27 0 l 1,8,-1
 78 260 l 1,9,-1
 375 260 l 1,10,-1
 563 1233 l 1,11,-1
 266 1233 l 1,0,-1
858 1899 m 1,12,-1
 1139 1899 l 1,13,-1
 819 1635 l 1,14,-1
 612 1635 l 1,15,-1
 858 1899 l 1,12,-1
EndSplineSet
EndChar

StartChar: Icircumflex
Encoding: 206 206 144
Width: 1233
GlyphClass: 3
Flags: W
LayerCount: 2
Fore
SplineSet
266 1233 m 1,0,-1
 317 1493 l 1,1,-1
 1206 1493 l 1,2,-1
 1155 1233 l 1,3,-1
 858 1233 l 1,4,-1
 670 260 l 1,5,-1
 967 260 l 1,6,-1
 915 0 l 1,7,-1
 27 0 l 1,8,-1
 78 260 l 1,9,-1
 375 260 l 1,10,-1
 563 1233 l 1,11,-1
 266 1233 l 1,0,-1
635 1899 m 1,12,-1
 983 1899 l 1,13,-1
 1134 1635 l 1,14,-1
 965 1635 l 1,15,-1
 801 1796 l 1,16,-1
 571 1635 l 1,17,-1
 391 1635 l 1,18,-1
 635 1899 l 1,12,-1
EndSplineSet
EndChar

StartChar: Idieresis
Encoding: 207 207 145
Width: 1233
GlyphClass: 3
Flags: W
LayerCount: 2
Fore
SplineSet
266 1233 m 1,0,-1
 317 1493 l 1,1,-1
 1206 1493 l 1,2,-1
 1155 1233 l 1,3,-1
 858 1233 l 1,4,-1
 670 260 l 1,5,-1
 967 260 l 1,6,-1
 915 0 l 1,7,-1
 27 0 l 1,8,-1
 78 260 l 1,9,-1
 375 260 l 1,10,-1
 563 1233 l 1,11,-1
 266 1233 l 1,0,-1
895 1899 m 1,12,-1
 1130 1899 l 1,13,-1
 1083 1653 l 1,14,-1
 846 1653 l 1,15,-1
 895 1899 l 1,12,-1
500 1899 m 1,16,-1
 735 1899 l 1,17,-1
 686 1653 l 1,18,-1
 450 1653 l 1,19,-1
 500 1899 l 1,16,-1
EndSplineSet
EndChar

StartChar: Eth
Encoding: 208 208 146
Width: 1233
GlyphClass: 2
Flags: W
LayerCount: 2
Fore
SplineSet
283 1493 m 1,0,-1
 598 1493 l 2,1,2
 883 1493 883 1493 1024 1370 c 128,-1,3
 1165 1247 1165 1247 1165 999 c 0,4,5
 1165 912 1165 912 1151.5 813.5 c 128,-1,6
 1138 715 1138 715 1110 602 c 0,7,8
 1073 451 1073 451 1021 346 c 128,-1,9
 969 241 969 241 897 172 c 0,10,11
 803 80 803 80 672 40 c 128,-1,12
 541 0 541 0 322 0 c 2,13,-1
 -8 0 l 1,14,-1
 121 664 l 1,15,-1
 -16 664 l 1,16,-1
 31 901 l 1,17,-1
 166 901 l 1,18,-1
 283 1493 l 1,0,-1
524 1227 m 1,19,-1
 461 901 l 1,20,-1
 672 901 l 1,21,-1
 627 664 l 1,22,-1
 416 664 l 1,23,-1
 338 266 l 1,24,-1
 434 266 l 2,25,26
 546 266 546 266 623 310 c 128,-1,27
 700 354 700 354 743 442 c 0,28,29
 795 548 795 548 827.5 694.5 c 128,-1,30
 860 841 860 841 860 967 c 0,31,32
 860 1099 860 1099 797.5 1163 c 128,-1,33
 735 1227 735 1227 606 1227 c 2,34,-1
 524 1227 l 1,19,-1
EndSplineSet
EndChar

StartChar: Ntilde
Encoding: 209 209 147
Width: 1233
GlyphClass: 3
Flags: W
LayerCount: 2
Fore
SplineSet
266 1493 m 1,0,-1
 569 1493 l 1,1,-1
 784 408 l 1,2,-1
 995 1493 l 1,3,-1
 1255 1493 l 1,4,-1
 967 0 l 1,5,-1
 674 0 l 1,6,-1
 449 1085 l 1,7,-1
 238 0 l 1,8,-1
 -25 0 l 1,9,-1
 266 1493 l 1,0,-1
782 1686 m 2,10,-1
 733 1723 l 2,11,12
 708 1742 708 1742 691.5 1748.5 c 128,-1,13
 675 1755 675 1755 657 1755 c 0,14,15
 622 1755 622 1755 595.5 1723 c 128,-1,16
 569 1691 569 1691 559 1635 c 1,17,-1
 422 1635 l 1,18,19
 447 1763 447 1763 512.5 1832 c 128,-1,20
 578 1901 578 1901 674 1901 c 0,21,22
 711 1901 711 1901 743.5 1889 c 128,-1,23
 776 1877 776 1877 811 1850 c 2,24,-1
 864 1809 l 2,25,26
 879 1796 879 1796 897.5 1789 c 128,-1,27
 916 1782 916 1782 932 1782 c 0,28,29
 971 1782 971 1782 997 1812.5 c 128,-1,30
 1023 1843 1023 1843 1034 1901 c 1,31,-1
 1171 1901 l 1,32,33
 1145 1773 1145 1773 1080 1704 c 128,-1,34
 1015 1635 1015 1635 921 1635 c 0,35,36
 884 1635 884 1635 852 1646 c 128,-1,37
 820 1657 820 1657 782 1686 c 2,10,-1
EndSplineSet
EndChar

StartChar: Ograve
Encoding: 210 210 148
Width: 1233
GlyphClass: 3
Flags: W
LayerCount: 2
Fore
SplineSet
868 1020 m 0,0,1
 868 1140 868 1140 828 1200 c 128,-1,2
 788 1260 788 1260 707 1260 c 0,3,4
 648 1260 648 1260 598 1224.5 c 128,-1,5
 548 1189 548 1189 512 1120 c 0,6,7
 490 1081 490 1081 468.5 1016.5 c 128,-1,8
 447 952 447 952 424 860 c 0,9,10
 395 745 395 745 380 645.5 c 128,-1,11
 365 546 365 546 365 471 c 0,12,13
 365 351 365 351 405 292 c 128,-1,14
 445 233 445 233 526 233 c 0,15,16
 585 233 585 233 634.5 268.5 c 128,-1,17
 684 304 684 304 721 373 c 0,18,19
 744 417 744 417 766.5 482.5 c 128,-1,20
 789 548 789 548 809 631 c 0,21,22
 838 746 838 746 853 845.5 c 128,-1,23
 868 945 868 945 868 1020 c 0,0,1
61 465 m 0,24,25
 61 665 61 665 111 870 c 128,-1,26
 161 1075 161 1075 246 1229 c 0,27,28
 323 1369 323 1369 448 1444.5 c 128,-1,29
 573 1520 573 1520 729 1520 c 0,30,31
 944 1520 944 1520 1057.5 1394 c 128,-1,32
 1171 1268 1171 1268 1171 1030 c 0,33,34
 1171 828 1171 828 1122 621.5 c 128,-1,35
 1073 415 1073 415 989 264 c 0,36,37
 911 123 911 123 785.5 47 c 128,-1,38
 660 -29 660 -29 504 -29 c 0,39,40
 287 -29 287 -29 174 97.5 c 128,-1,41
 61 224 61 224 61 465 c 0,24,25
764 1899 m 1,42,-1
 907 1635 l 1,43,-1
 729 1635 l 1,44,-1
 500 1899 l 1,45,-1
 764 1899 l 1,42,-1
EndSplineSet
EndChar

StartChar: Oacute
Encoding: 211 211 149
Width: 1233
GlyphClass: 3
Flags: W
LayerCount: 2
Fore
SplineSet
868 1020 m 0,0,1
 868 1140 868 1140 828 1200 c 128,-1,2
 788 1260 788 1260 707 1260 c 0,3,4
 648 1260 648 1260 598 1224.5 c 128,-1,5
 548 1189 548 1189 512 1120 c 0,6,7
 490 1081 490 1081 468.5 1016.5 c 128,-1,8
 447 952 447 952 424 860 c 0,9,10
 395 745 395 745 380 645.5 c 128,-1,11
 365 546 365 546 365 471 c 0,12,13
 365 351 365 351 405 292 c 128,-1,14
 445 233 445 233 526 233 c 0,15,16
 585 233 585 233 634.5 268.5 c 128,-1,17
 684 304 684 304 721 373 c 0,18,19
 744 417 744 417 766.5 482.5 c 128,-1,20
 789 548 789 548 809 631 c 0,21,22
 838 746 838 746 853 845.5 c 128,-1,23
 868 945 868 945 868 1020 c 0,0,1
61 465 m 0,24,25
 61 665 61 665 111 870 c 128,-1,26
 161 1075 161 1075 246 1229 c 0,27,28
 323 1369 323 1369 448 1444.5 c 128,-1,29
 573 1520 573 1520 729 1520 c 0,30,31
 944 1520 944 1520 1057.5 1394 c 128,-1,32
 1171 1268 1171 1268 1171 1030 c 0,33,34
 1171 828 1171 828 1122 621.5 c 128,-1,35
 1073 415 1073 415 989 264 c 0,36,37
 911 123 911 123 785.5 47 c 128,-1,38
 660 -29 660 -29 504 -29 c 0,39,40
 287 -29 287 -29 174 97.5 c 128,-1,41
 61 224 61 224 61 465 c 0,24,25
862 1899 m 1,42,-1
 1143 1899 l 1,43,-1
 823 1635 l 1,44,-1
 616 1635 l 1,45,-1
 862 1899 l 1,42,-1
EndSplineSet
EndChar

StartChar: Ocircumflex
Encoding: 212 212 150
Width: 1233
GlyphClass: 3
Flags: W
LayerCount: 2
Fore
SplineSet
868 1020 m 0,0,1
 868 1140 868 1140 828 1200 c 128,-1,2
 788 1260 788 1260 707 1260 c 0,3,4
 648 1260 648 1260 598 1224.5 c 128,-1,5
 548 1189 548 1189 512 1120 c 0,6,7
 490 1081 490 1081 468.5 1016.5 c 128,-1,8
 447 952 447 952 424 860 c 0,9,10
 395 745 395 745 380 645.5 c 128,-1,11
 365 546 365 546 365 471 c 0,12,13
 365 351 365 351 405 292 c 128,-1,14
 445 233 445 233 526 233 c 0,15,16
 585 233 585 233 634.5 268.5 c 128,-1,17
 684 304 684 304 721 373 c 0,18,19
 744 417 744 417 766.5 482.5 c 128,-1,20
 789 548 789 548 809 631 c 0,21,22
 838 746 838 746 853 845.5 c 128,-1,23
 868 945 868 945 868 1020 c 0,0,1
61 465 m 0,24,25
 61 665 61 665 111 870 c 128,-1,26
 161 1075 161 1075 246 1229 c 0,27,28
 323 1369 323 1369 448 1444.5 c 128,-1,29
 573 1520 573 1520 729 1520 c 0,30,31
 944 1520 944 1520 1057.5 1394 c 128,-1,32
 1171 1268 1171 1268 1171 1030 c 0,33,34
 1171 828 1171 828 1122 621.5 c 128,-1,35
 1073 415 1073 415 989 264 c 0,36,37
 911 123 911 123 785.5 47 c 128,-1,38
 660 -29 660 -29 504 -29 c 0,39,40
 287 -29 287 -29 174 97.5 c 128,-1,41
 61 224 61 224 61 465 c 0,24,25
639 1899 m 1,42,-1
 987 1899 l 1,43,-1
 1138 1635 l 1,44,-1
 969 1635 l 1,45,-1
 805 1796 l 1,46,-1
 575 1635 l 1,47,-1
 395 1635 l 1,48,-1
 639 1899 l 1,42,-1
EndSplineSet
EndChar

StartChar: Otilde
Encoding: 213 213 151
Width: 1233
GlyphClass: 3
Flags: W
LayerCount: 2
Fore
SplineSet
868 1020 m 0,0,1
 868 1140 868 1140 828 1200 c 128,-1,2
 788 1260 788 1260 707 1260 c 0,3,4
 648 1260 648 1260 598 1224.5 c 128,-1,5
 548 1189 548 1189 512 1120 c 0,6,7
 490 1081 490 1081 468.5 1016.5 c 128,-1,8
 447 952 447 952 424 860 c 0,9,10
 395 745 395 745 380 645.5 c 128,-1,11
 365 546 365 546 365 471 c 0,12,13
 365 351 365 351 405 292 c 128,-1,14
 445 233 445 233 526 233 c 0,15,16
 585 233 585 233 634.5 268.5 c 128,-1,17
 684 304 684 304 721 373 c 0,18,19
 744 417 744 417 766.5 482.5 c 128,-1,20
 789 548 789 548 809 631 c 0,21,22
 838 746 838 746 853 845.5 c 128,-1,23
 868 945 868 945 868 1020 c 0,0,1
61 465 m 0,24,25
 61 665 61 665 111 870 c 128,-1,26
 161 1075 161 1075 246 1229 c 0,27,28
 323 1369 323 1369 448 1444.5 c 128,-1,29
 573 1520 573 1520 729 1520 c 0,30,31
 944 1520 944 1520 1057.5 1394 c 128,-1,32
 1171 1268 1171 1268 1171 1030 c 0,33,34
 1171 828 1171 828 1122 621.5 c 128,-1,35
 1073 415 1073 415 989 264 c 0,36,37
 911 123 911 123 785.5 47 c 128,-1,38
 660 -29 660 -29 504 -29 c 0,39,40
 287 -29 287 -29 174 97.5 c 128,-1,41
 61 224 61 224 61 465 c 0,24,25
782 1686 m 2,42,-1
 733 1723 l 2,43,44
 708 1742 708 1742 691.5 1748.5 c 128,-1,45
 675 1755 675 1755 657 1755 c 0,46,47
 622 1755 622 1755 595.5 1723 c 128,-1,48
 569 1691 569 1691 559 1635 c 1,49,-1
 422 1635 l 1,50,51
 447 1763 447 1763 512.5 1832 c 128,-1,52
 578 1901 578 1901 674 1901 c 0,53,54
 711 1901 711 1901 743.5 1889 c 128,-1,55
 776 1877 776 1877 811 1850 c 2,56,-1
 864 1809 l 2,57,58
 879 1796 879 1796 897.5 1789 c 128,-1,59
 916 1782 916 1782 932 1782 c 0,60,61
 971 1782 971 1782 997 1812.5 c 128,-1,62
 1023 1843 1023 1843 1034 1901 c 1,63,-1
 1171 1901 l 1,64,65
 1145 1773 1145 1773 1080 1704 c 128,-1,66
 1015 1635 1015 1635 921 1635 c 0,67,68
 884 1635 884 1635 852 1646 c 128,-1,69
 820 1657 820 1657 782 1686 c 2,42,-1
EndSplineSet
EndChar

StartChar: Odieresis
Encoding: 214 214 152
Width: 1233
GlyphClass: 3
Flags: W
LayerCount: 2
Fore
SplineSet
868 1020 m 0,0,1
 868 1140 868 1140 828 1200 c 128,-1,2
 788 1260 788 1260 707 1260 c 0,3,4
 648 1260 648 1260 598 1224.5 c 128,-1,5
 548 1189 548 1189 512 1120 c 0,6,7
 490 1081 490 1081 468.5 1016.5 c 128,-1,8
 447 952 447 952 424 860 c 0,9,10
 395 745 395 745 380 645.5 c 128,-1,11
 365 546 365 546 365 471 c 0,12,13
 365 351 365 351 405 292 c 128,-1,14
 445 233 445 233 526 233 c 0,15,16
 585 233 585 233 634.5 268.5 c 128,-1,17
 684 304 684 304 721 373 c 0,18,19
 744 417 744 417 766.5 482.5 c 128,-1,20
 789 548 789 548 809 631 c 0,21,22
 838 746 838 746 853 845.5 c 128,-1,23
 868 945 868 945 868 1020 c 0,0,1
61 465 m 0,24,25
 61 665 61 665 111 870 c 128,-1,26
 161 1075 161 1075 246 1229 c 0,27,28
 323 1369 323 1369 448 1444.5 c 128,-1,29
 573 1520 573 1520 729 1520 c 0,30,31
 944 1520 944 1520 1057.5 1394 c 128,-1,32
 1171 1268 1171 1268 1171 1030 c 0,33,34
 1171 828 1171 828 1122 621.5 c 128,-1,35
 1073 415 1073 415 989 264 c 0,36,37
 911 123 911 123 785.5 47 c 128,-1,38
 660 -29 660 -29 504 -29 c 0,39,40
 287 -29 287 -29 174 97.5 c 128,-1,41
 61 224 61 224 61 465 c 0,24,25
899 1899 m 1,42,-1
 1134 1899 l 1,43,-1
 1087 1653 l 1,44,-1
 850 1653 l 1,45,-1
 899 1899 l 1,42,-1
504 1899 m 1,46,-1
 739 1899 l 1,47,-1
 690 1653 l 1,48,-1
 454 1653 l 1,49,-1
 504 1899 l 1,46,-1
EndSplineSet
EndChar

StartChar: multiply
Encoding: 215 215 153
Width: 1233
GlyphClass: 2
Flags: W
LayerCount: 2
Fore
SplineSet
1112 971 m 1,0,-1
 782 643 l 1,1,-1
 1112 313 l 1,2,-1
 944 147 l 1,3,-1
 614 475 l 1,4,-1
 287 147 l 1,5,-1
 119 313 l 1,6,-1
 449 643 l 1,7,-1
 119 971 l 1,8,-1
 287 1139 l 1,9,-1
 614 811 l 1,10,-1
 944 1139 l 1,11,-1
 1112 971 l 1,0,-1
EndSplineSet
EndChar

StartChar: Oslash
Encoding: 216 216 154
Width: 1233
GlyphClass: 2
Flags: W
LayerCount: 2
Fore
SplineSet
375 354 m 1,0,1
 393 294 393 294 431.5 263.5 c 128,-1,2
 470 233 470 233 526 233 c 0,3,4
 651 233 651 233 728.5 386 c 128,-1,5
 806 539 806 539 858 889 c 1,6,-1
 375 354 l 1,0,1
78 295 m 1,7,8
 70 329 70 329 65.5 366 c 128,-1,9
 61 403 61 403 61 442 c 0,10,11
 61 656 61 656 110 865 c 128,-1,12
 159 1074 159 1074 244 1227 c 0,13,14
 322 1369 322 1369 448 1444.5 c 128,-1,15
 574 1520 574 1520 731 1520 c 0,16,17
 836 1520 836 1520 919 1487 c 128,-1,18
 1002 1454 1002 1454 1063 1389 c 1,19,-1
 1217 1559 l 1,20,-1
 1356 1444 l 1,21,-1
 1151 1217 l 1,22,23
 1161 1161 1161 1161 1166 1112.5 c 128,-1,24
 1171 1064 1171 1064 1171 1020 c 0,25,26
 1171 958 1171 958 1164 887 c 128,-1,27
 1157 816 1157 816 1143 737 c 0,28,29
 1118 598 1118 598 1080 480 c 128,-1,30
 1042 362 1042 362 989 264 c 0,31,32
 911 123 911 123 785.5 47 c 128,-1,33
 660 -29 660 -29 504 -29 c 0,34,35
 390 -29 390 -29 303.5 8 c 128,-1,36
 217 45 217 45 160 117 c 1,37,-1
 0 -63 l 1,38,-1
 -141 51 l 1,39,-1
 78 295 l 1,7,8
852 1153 m 1,40,41
 834 1205 834 1205 796.5 1232.5 c 128,-1,42
 759 1260 759 1260 707 1260 c 0,43,44
 586 1260 586 1260 509.5 1113.5 c 128,-1,45
 433 967 433 967 379 629 c 1,46,-1
 852 1153 l 1,40,41
EndSplineSet
EndChar

StartChar: Ugrave
Encoding: 217 217 155
Width: 1233
GlyphClass: 3
Flags: W
LayerCount: 2
Fore
SplineSet
68 551 m 2,0,-1
 252 1493 l 1,1,-1
 547 1493 l 1,2,-1
 348 477 l 2,3,4
 348 475 348 475 347 471 c 0,5,6
 340 424 340 424 340 403 c 0,7,8
 340 321 340 321 386 276 c 128,-1,9
 432 231 432 231 516 231 c 0,10,11
 624 231 624 231 688.5 292 c 128,-1,12
 753 353 753 353 778 477 c 2,13,-1
 977 1493 l 1,14,-1
 1272 1493 l 1,15,-1
 1087 551 l 2,16,17
 1052 371 1052 371 1012 278.5 c 128,-1,18
 972 186 972 186 909 123 c 0,19,20
 833 49 833 49 729 10 c 128,-1,21
 625 -29 625 -29 500 -29 c 0,22,23
 281 -29 281 -29 163 70 c 128,-1,24
 45 169 45 169 45 352 c 0,25,26
 45 394 45 394 50.5 444 c 128,-1,27
 56 494 56 494 68 551 c 2,0,-1
770 1899 m 1,28,-1
 913 1635 l 1,29,-1
 735 1635 l 1,30,-1
 506 1899 l 1,31,-1
 770 1899 l 1,28,-1
EndSplineSet
EndChar

StartChar: Uacute
Encoding: 218 218 156
Width: 1233
GlyphClass: 3
Flags: W
LayerCount: 2
Fore
SplineSet
68 551 m 2,0,-1
 252 1493 l 1,1,-1
 547 1493 l 1,2,-1
 348 477 l 2,3,4
 348 475 348 475 347 471 c 0,5,6
 340 424 340 424 340 403 c 0,7,8
 340 321 340 321 386 276 c 128,-1,9
 432 231 432 231 516 231 c 0,10,11
 624 231 624 231 688.5 292 c 128,-1,12
 753 353 753 353 778 477 c 2,13,-1
 977 1493 l 1,14,-1
 1272 1493 l 1,15,-1
 1087 551 l 2,16,17
 1052 371 1052 371 1012 278.5 c 128,-1,18
 972 186 972 186 909 123 c 0,19,20
 833 49 833 49 729 10 c 128,-1,21
 625 -29 625 -29 500 -29 c 0,22,23
 281 -29 281 -29 163 70 c 128,-1,24
 45 169 45 169 45 352 c 0,25,26
 45 394 45 394 50.5 444 c 128,-1,27
 56 494 56 494 68 551 c 2,0,-1
868 1899 m 1,28,-1
 1149 1899 l 1,29,-1
 829 1635 l 1,30,-1
 622 1635 l 1,31,-1
 868 1899 l 1,28,-1
EndSplineSet
EndChar

StartChar: Ucircumflex
Encoding: 219 219 157
Width: 1233
GlyphClass: 3
Flags: W
LayerCount: 2
Fore
SplineSet
68 551 m 2,0,-1
 252 1493 l 1,1,-1
 547 1493 l 1,2,-1
 348 477 l 2,3,4
 348 475 348 475 347 471 c 0,5,6
 340 424 340 424 340 403 c 0,7,8
 340 321 340 321 386 276 c 128,-1,9
 432 231 432 231 516 231 c 0,10,11
 624 231 624 231 688.5 292 c 128,-1,12
 753 353 753 353 778 477 c 2,13,-1
 977 1493 l 1,14,-1
 1272 1493 l 1,15,-1
 1087 551 l 2,16,17
 1052 371 1052 371 1012 278.5 c 128,-1,18
 972 186 972 186 909 123 c 0,19,20
 833 49 833 49 729 10 c 128,-1,21
 625 -29 625 -29 500 -29 c 0,22,23
 281 -29 281 -29 163 70 c 128,-1,24
 45 169 45 169 45 352 c 0,25,26
 45 394 45 394 50.5 444 c 128,-1,27
 56 494 56 494 68 551 c 2,0,-1
645 1899 m 1,28,-1
 993 1899 l 1,29,-1
 1144 1635 l 1,30,-1
 975 1635 l 1,31,-1
 811 1796 l 1,32,-1
 581 1635 l 1,33,-1
 401 1635 l 1,34,-1
 645 1899 l 1,28,-1
EndSplineSet
EndChar

StartChar: Udieresis
Encoding: 220 220 158
Width: 1233
GlyphClass: 3
Flags: W
LayerCount: 2
Fore
SplineSet
68 551 m 2,0,-1
 252 1493 l 1,1,-1
 547 1493 l 1,2,-1
 348 477 l 2,3,4
 348 475 348 475 347 471 c 0,5,6
 340 424 340 424 340 403 c 0,7,8
 340 321 340 321 386 276 c 128,-1,9
 432 231 432 231 516 231 c 0,10,11
 624 231 624 231 688.5 292 c 128,-1,12
 753 353 753 353 778 477 c 2,13,-1
 977 1493 l 1,14,-1
 1272 1493 l 1,15,-1
 1087 551 l 2,16,17
 1052 371 1052 371 1012 278.5 c 128,-1,18
 972 186 972 186 909 123 c 0,19,20
 833 49 833 49 729 10 c 128,-1,21
 625 -29 625 -29 500 -29 c 0,22,23
 281 -29 281 -29 163 70 c 128,-1,24
 45 169 45 169 45 352 c 0,25,26
 45 394 45 394 50.5 444 c 128,-1,27
 56 494 56 494 68 551 c 2,0,-1
905 1899 m 1,28,-1
 1140 1899 l 1,29,-1
 1093 1653 l 1,30,-1
 856 1653 l 1,31,-1
 905 1899 l 1,28,-1
510 1899 m 1,32,-1
 745 1899 l 1,33,-1
 696 1653 l 1,34,-1
 460 1653 l 1,35,-1
 510 1899 l 1,32,-1
EndSplineSet
EndChar

StartChar: Yacute
Encoding: 221 221 159
Width: 1233
GlyphClass: 3
Flags: W
LayerCount: 2
Fore
SplineSet
145 1493 m 1,0,-1
 438 1493 l 1,1,-1
 625 844 l 1,2,-1
 1036 1493 l 1,3,-1
 1358 1493 l 1,4,-1
 725 588 l 1,5,-1
 610 0 l 1,6,-1
 317 0 l 1,7,-1
 432 588 l 1,8,-1
 145 1493 l 1,0,-1
858 1899 m 1,9,-1
 1139 1899 l 1,10,-1
 819 1635 l 1,11,-1
 612 1635 l 1,12,-1
 858 1899 l 1,9,-1
EndSplineSet
EndChar

StartChar: Thorn
Encoding: 222 222 160
Width: 1233
GlyphClass: 2
Flags: W
LayerCount: 2
Fore
SplineSet
375 332 m 1,0,-1
 311 0 l 1,1,-1
 16 0 l 1,2,-1
 307 1493 l 1,3,-1
 602 1493 l 1,4,-1
 555 1266 l 1,5,-1
 682 1266 l 2,6,7
 918 1266 918 1266 1041.5 1174 c 128,-1,8
 1165 1082 1165 1082 1165 907 c 0,9,10
 1165 794 1165 794 1128.5 683 c 128,-1,11
 1092 572 1092 572 1034 506 c 0,12,13
 956 414 956 414 839.5 373 c 128,-1,14
 723 332 723 332 539 332 c 2,15,-1
 375 332 l 1,0,-1
510 1018 m 1,16,-1
 424 580 l 1,17,-1
 569 580 l 2,18,19
 715 580 715 580 786.5 647 c 128,-1,20
 858 714 858 714 858 850 c 0,21,22
 858 941 858 941 806.5 979.5 c 128,-1,23
 755 1018 755 1018 631 1018 c 2,24,-1
 510 1018 l 1,16,-1
EndSplineSet
EndChar

StartChar: germandbls
Encoding: 223 223 161
Width: 1233
GlyphClass: 2
Flags: W
LayerCount: 2
Fore
SplineSet
1145 1057 m 1,0,1
 1004 1049 1004 1049 926 999 c 128,-1,2
 848 949 848 949 848 866 c 0,3,4
 848 809 848 809 944 714 c 2,5,-1
 950 708 l 1,6,-1
 1026 632 l 2,7,8
 1085 573 1085 573 1114 510.5 c 128,-1,9
 1143 448 1143 448 1143 380 c 0,10,11
 1143 193 1143 193 1014.5 82 c 128,-1,12
 886 -29 886 -29 666 -29 c 0,13,14
 600 -29 600 -29 535 -16.5 c 128,-1,15
 470 -4 470 -4 406 20 c 1,16,-1
 455 270 l 1,17,18
 513 239 513 239 566.5 223 c 128,-1,19
 620 207 620 207 666 207 c 0,20,21
 756 207 756 207 808 246.5 c 128,-1,22
 860 286 860 286 860 354 c 0,23,24
 860 420 860 420 749 530 c 2,25,-1
 743 536 l 1,26,-1
 674 607 l 2,27,28
 630 652 630 652 609 703.5 c 128,-1,29
 588 755 588 755 588 813 c 0,30,31
 588 948 588 948 679.5 1041.5 c 128,-1,32
 771 1135 771 1135 940 1171 c 1,33,-1
 940 1187 l 2,34,35
 940 1251 940 1251 895 1286.5 c 128,-1,36
 850 1322 850 1322 768 1322 c 0,37,38
 675 1322 675 1322 618 1271 c 128,-1,39
 561 1220 561 1220 541 1120 c 2,40,-1
 322 0 l 1,41,-1
 29 0 l 1,42,-1
 248 1124 l 2,43,44
 289 1335 289 1335 420.5 1445.5 c 128,-1,45
 552 1556 552 1556 764 1556 c 0,46,47
 962 1556 962 1556 1059.5 1469 c 128,-1,48
 1157 1382 1157 1382 1157 1206 c 0,49,50
 1157 1163 1157 1163 1146 1063 c 1,51,-1
 1145 1057 l 1,0,1
EndSplineSet
EndChar

StartChar: agrave
Encoding: 224 224 162
Width: 1233
GlyphClass: 3
Flags: W
LayerCount: 2
Fore
SplineSet
690 530 m 2,0,1
 518 530 518 530 435 478 c 128,-1,2
 352 426 352 426 352 317 c 0,3,4
 352 254 352 254 392.5 213 c 128,-1,5
 433 172 433 172 496 172 c 0,6,7
 614 172 614 172 694 265 c 128,-1,8
 774 358 774 358 803 530 c 1,9,-1
 690 530 l 2,0,1
1114 639 m 2,10,-1
 991 0 l 1,11,-1
 700 0 l 1,12,-1
 725 125 l 1,13,14
 658 48 658 48 571.5 9.5 c 128,-1,15
 485 -29 485 -29 375 -29 c 0,16,17
 224 -29 224 -29 135.5 58.5 c 128,-1,18
 47 146 47 146 47 295 c 0,19,20
 47 510 47 510 202.5 623.5 c 128,-1,21
 358 737 358 737 651 737 c 2,22,-1
 844 737 l 1,23,-1
 852 786 l 2,24,25
 853 792 853 792 853.5 797.5 c 128,-1,26
 854 803 854 803 854 815 c 0,27,28
 854 872 854 872 803 902 c 128,-1,29
 752 932 752 932 655 932 c 0,30,31
 573 932 573 932 469.5 903.5 c 128,-1,32
 366 875 366 875 248 819 c 1,33,-1
 295 1069 l 1,34,35
 408 1108 408 1108 508.5 1127.5 c 128,-1,36
 609 1147 609 1147 700 1147 c 0,37,38
 917 1147 917 1147 1029 1071 c 128,-1,39
 1141 995 1141 995 1141 848 c 0,40,41
 1141 809 1141 809 1134 756 c 128,-1,42
 1127 703 1127 703 1114 639 c 2,10,-1
686 1638 m 1,43,-1
 895 1262 l 1,44,-1
 697 1262 l 1,45,-1
 402 1638 l 1,46,-1
 686 1638 l 1,43,-1
EndSplineSet
EndChar

StartChar: aacute
Encoding: 225 225 163
Width: 1233
GlyphClass: 3
Flags: W
LayerCount: 2
Fore
SplineSet
690 530 m 2,0,1
 518 530 518 530 435 478 c 128,-1,2
 352 426 352 426 352 317 c 0,3,4
 352 254 352 254 392.5 213 c 128,-1,5
 433 172 433 172 496 172 c 0,6,7
 614 172 614 172 694 265 c 128,-1,8
 774 358 774 358 803 530 c 1,9,-1
 690 530 l 2,0,1
1114 639 m 2,10,-1
 991 0 l 1,11,-1
 700 0 l 1,12,-1
 725 125 l 1,13,14
 658 48 658 48 571.5 9.5 c 128,-1,15
 485 -29 485 -29 375 -29 c 0,16,17
 224 -29 224 -29 135.5 58.5 c 128,-1,18
 47 146 47 146 47 295 c 0,19,20
 47 510 47 510 202.5 623.5 c 128,-1,21
 358 737 358 737 651 737 c 2,22,-1
 844 737 l 1,23,-1
 852 786 l 2,24,25
 853 792 853 792 853.5 797.5 c 128,-1,26
 854 803 854 803 854 815 c 0,27,28
 854 872 854 872 803 902 c 128,-1,29
 752 932 752 932 655 932 c 0,30,31
 573 932 573 932 469.5 903.5 c 128,-1,32
 366 875 366 875 248 819 c 1,33,-1
 295 1069 l 1,34,35
 408 1108 408 1108 508.5 1127.5 c 128,-1,36
 609 1147 609 1147 700 1147 c 0,37,38
 917 1147 917 1147 1029 1071 c 128,-1,39
 1141 995 1141 995 1141 848 c 0,40,41
 1141 809 1141 809 1134 756 c 128,-1,42
 1127 703 1127 703 1114 639 c 2,10,-1
918 1638 m 1,43,-1
 1239 1638 l 1,44,-1
 797 1262 l 1,45,-1
 600 1262 l 1,46,-1
 918 1638 l 1,43,-1
EndSplineSet
EndChar

StartChar: acircumflex
Encoding: 226 226 164
Width: 1233
GlyphClass: 3
Flags: W
LayerCount: 2
Fore
SplineSet
690 530 m 2,0,1
 518 530 518 530 435 478 c 128,-1,2
 352 426 352 426 352 317 c 0,3,4
 352 254 352 254 392.5 213 c 128,-1,5
 433 172 433 172 496 172 c 0,6,7
 614 172 614 172 694 265 c 128,-1,8
 774 358 774 358 803 530 c 1,9,-1
 690 530 l 2,0,1
1114 639 m 2,10,-1
 991 0 l 1,11,-1
 700 0 l 1,12,-1
 725 125 l 1,13,14
 658 48 658 48 571.5 9.5 c 128,-1,15
 485 -29 485 -29 375 -29 c 0,16,17
 224 -29 224 -29 135.5 58.5 c 128,-1,18
 47 146 47 146 47 295 c 0,19,20
 47 510 47 510 202.5 623.5 c 128,-1,21
 358 737 358 737 651 737 c 2,22,-1
 844 737 l 1,23,-1
 852 786 l 2,24,25
 853 792 853 792 853.5 797.5 c 128,-1,26
 854 803 854 803 854 815 c 0,27,28
 854 872 854 872 803 902 c 128,-1,29
 752 932 752 932 655 932 c 0,30,31
 573 932 573 932 469.5 903.5 c 128,-1,32
 366 875 366 875 248 819 c 1,33,-1
 295 1069 l 1,34,35
 408 1108 408 1108 508.5 1127.5 c 128,-1,36
 609 1147 609 1147 700 1147 c 0,37,38
 917 1147 917 1147 1029 1071 c 128,-1,39
 1141 995 1141 995 1141 848 c 0,40,41
 1141 809 1141 809 1134 756 c 128,-1,42
 1127 703 1127 703 1114 639 c 2,10,-1
699 1638 m 1,43,-1
 942 1638 l 1,44,-1
 1125 1262 l 1,45,-1
 949 1262 l 1,46,-1
 797 1487 l 1,47,-1
 557 1262 l 1,48,-1
 367 1262 l 1,49,-1
 699 1638 l 1,43,-1
EndSplineSet
EndChar

StartChar: atilde
Encoding: 227 227 165
Width: 1233
GlyphClass: 3
Flags: W
LayerCount: 2
Fore
SplineSet
690 530 m 2,0,1
 518 530 518 530 435 478 c 128,-1,2
 352 426 352 426 352 317 c 0,3,4
 352 254 352 254 392.5 213 c 128,-1,5
 433 172 433 172 496 172 c 0,6,7
 614 172 614 172 694 265 c 128,-1,8
 774 358 774 358 803 530 c 1,9,-1
 690 530 l 2,0,1
1114 639 m 2,10,-1
 991 0 l 1,11,-1
 700 0 l 1,12,-1
 725 125 l 1,13,14
 658 48 658 48 571.5 9.5 c 128,-1,15
 485 -29 485 -29 375 -29 c 0,16,17
 224 -29 224 -29 135.5 58.5 c 128,-1,18
 47 146 47 146 47 295 c 0,19,20
 47 510 47 510 202.5 623.5 c 128,-1,21
 358 737 358 737 651 737 c 2,22,-1
 844 737 l 1,23,-1
 852 786 l 2,24,25
 853 792 853 792 853.5 797.5 c 128,-1,26
 854 803 854 803 854 815 c 0,27,28
 854 872 854 872 803 902 c 128,-1,29
 752 932 752 932 655 932 c 0,30,31
 573 932 573 932 469.5 903.5 c 128,-1,32
 366 875 366 875 248 819 c 1,33,-1
 295 1069 l 1,34,35
 408 1108 408 1108 508.5 1127.5 c 128,-1,36
 609 1147 609 1147 700 1147 c 0,37,38
 917 1147 917 1147 1029 1071 c 128,-1,39
 1141 995 1141 995 1141 848 c 0,40,41
 1141 809 1141 809 1134 756 c 128,-1,42
 1127 703 1127 703 1114 639 c 2,10,-1
770 1364 m 2,43,-1
 721 1401 l 2,44,45
 720 1402 720 1402 716 1405 c 0,46,47
 674 1438 674 1438 643 1438 c 0,48,49
 609 1438 609 1438 583 1403.5 c 128,-1,50
 557 1369 557 1369 547 1309 c 1,51,-1
 408 1309 l 1,52,53
 427 1439 427 1439 495 1516 c 128,-1,54
 563 1593 563 1593 658 1593 c 0,55,56
 692 1593 692 1593 722.5 1580.5 c 128,-1,57
 753 1568 753 1568 799 1532 c 2,58,-1
 850 1493 l 2,59,60
 869 1478 869 1478 887 1470 c 128,-1,61
 905 1462 905 1462 920 1462 c 0,62,63
 958 1462 958 1462 984 1495.5 c 128,-1,64
 1010 1529 1010 1529 1020 1591 c 1,65,-1
 1159 1591 l 1,66,67
 1136 1450 1136 1450 1073.5 1378.5 c 128,-1,68
 1011 1307 1011 1307 910 1307 c 0,69,70
 875 1307 875 1307 842.5 1320 c 128,-1,71
 810 1333 810 1333 770 1364 c 2,43,-1
EndSplineSet
EndChar

StartChar: adieresis
Encoding: 228 228 166
Width: 1233
GlyphClass: 3
Flags: W
LayerCount: 2
Fore
SplineSet
690 530 m 2,0,1
 518 530 518 530 435 478 c 128,-1,2
 352 426 352 426 352 317 c 0,3,4
 352 254 352 254 392.5 213 c 128,-1,5
 433 172 433 172 496 172 c 0,6,7
 614 172 614 172 694 265 c 128,-1,8
 774 358 774 358 803 530 c 1,9,-1
 690 530 l 2,0,1
1114 639 m 2,10,-1
 991 0 l 1,11,-1
 700 0 l 1,12,-1
 725 125 l 1,13,14
 658 48 658 48 571.5 9.5 c 128,-1,15
 485 -29 485 -29 375 -29 c 0,16,17
 224 -29 224 -29 135.5 58.5 c 128,-1,18
 47 146 47 146 47 295 c 0,19,20
 47 510 47 510 202.5 623.5 c 128,-1,21
 358 737 358 737 651 737 c 2,22,-1
 844 737 l 1,23,-1
 852 786 l 2,24,25
 853 792 853 792 853.5 797.5 c 128,-1,26
 854 803 854 803 854 815 c 0,27,28
 854 872 854 872 803 902 c 128,-1,29
 752 932 752 932 655 932 c 0,30,31
 573 932 573 932 469.5 903.5 c 128,-1,32
 366 875 366 875 248 819 c 1,33,-1
 295 1069 l 1,34,35
 408 1108 408 1108 508.5 1127.5 c 128,-1,36
 609 1147 609 1147 700 1147 c 0,37,38
 917 1147 917 1147 1029 1071 c 128,-1,39
 1141 995 1141 995 1141 848 c 0,40,41
 1141 809 1141 809 1134 756 c 128,-1,42
 1127 703 1127 703 1114 639 c 2,10,-1
889 1585 m 1,43,-1
 1127 1585 l 1,44,-1
 1078 1339 l 1,45,-1
 842 1339 l 1,46,-1
 889 1585 l 1,43,-1
494 1585 m 1,47,-1
 731 1585 l 1,48,-1
 682 1339 l 1,49,-1
 447 1339 l 1,50,-1
 494 1585 l 1,47,-1
EndSplineSet
EndChar

StartChar: aring
Encoding: 229 229 167
Width: 1233
GlyphClass: 3
Flags: W
LayerCount: 2
Fore
SplineSet
690 530 m 2,0,1
 518 530 518 530 435 478 c 128,-1,2
 352 426 352 426 352 317 c 0,3,4
 352 254 352 254 392.5 213 c 128,-1,5
 433 172 433 172 496 172 c 0,6,7
 614 172 614 172 694 265 c 128,-1,8
 774 358 774 358 803 530 c 1,9,-1
 690 530 l 2,0,1
1114 639 m 2,10,-1
 991 0 l 1,11,-1
 700 0 l 1,12,-1
 725 125 l 1,13,14
 658 48 658 48 571.5 9.5 c 128,-1,15
 485 -29 485 -29 375 -29 c 0,16,17
 224 -29 224 -29 135.5 58.5 c 128,-1,18
 47 146 47 146 47 295 c 0,19,20
 47 510 47 510 202.5 623.5 c 128,-1,21
 358 737 358 737 651 737 c 2,22,-1
 844 737 l 1,23,-1
 852 786 l 2,24,25
 853 792 853 792 853.5 797.5 c 128,-1,26
 854 803 854 803 854 815 c 0,27,28
 854 872 854 872 803 902 c 128,-1,29
 752 932 752 932 655 932 c 0,30,31
 573 932 573 932 469.5 903.5 c 128,-1,32
 366 875 366 875 248 819 c 1,33,-1
 295 1069 l 1,34,35
 408 1108 408 1108 508.5 1127.5 c 128,-1,36
 609 1147 609 1147 700 1147 c 0,37,38
 917 1147 917 1147 1029 1071 c 128,-1,39
 1141 995 1141 995 1141 848 c 0,40,41
 1141 809 1141 809 1134 756 c 128,-1,42
 1127 703 1127 703 1114 639 c 2,10,-1
494 1534 m 256,43,44
 494 1652 494 1652 577 1735.5 c 128,-1,45
 660 1819 660 1819 779 1819 c 0,46,47
 897 1819 897 1819 980 1735.5 c 128,-1,48
 1063 1652 1063 1652 1063 1534 c 256,49,50
 1063 1416 1063 1416 980 1332.5 c 128,-1,51
 897 1249 897 1249 779 1249 c 0,52,53
 660 1249 660 1249 577 1332.5 c 128,-1,54
 494 1416 494 1416 494 1534 c 256,43,44
647 1534 m 0,55,56
 647 1479 647 1479 685.5 1441 c 128,-1,57
 724 1403 724 1403 779 1403 c 0,58,59
 833 1403 833 1403 871.5 1441.5 c 128,-1,60
 910 1480 910 1480 910 1534 c 256,61,62
 910 1588 910 1588 871 1626.5 c 128,-1,63
 832 1665 832 1665 779 1665 c 0,64,65
 724 1665 724 1665 685.5 1626.5 c 128,-1,66
 647 1588 647 1588 647 1534 c 0,55,56
EndSplineSet
EndChar

StartChar: ae
Encoding: 230 230 168
Width: 1233
GlyphClass: 2
Flags: W
LayerCount: 2
Fore
SplineSet
463 401 m 2,0,-1
 477 479 l 1,1,-1
 403 479 l 2,2,3
 305 479 305 479 246.5 427.5 c 128,-1,4
 188 376 188 376 188 291 c 0,5,6
 188 240 188 240 217 210 c 128,-1,7
 246 180 246 180 295 180 c 0,8,9
 362 180 362 180 402 232 c 128,-1,10
 442 284 442 284 463 401 c 2,0,-1
991 688 m 1,11,-1
 1003 755 l 2,12,13
 1007 772 1007 772 1008.5 789 c 128,-1,14
 1010 806 1010 806 1010 834 c 0,15,16
 1010 885 1010 885 990 908.5 c 128,-1,17
 970 932 970 932 926 932 c 0,18,19
 870 932 870 932 834.5 890 c 128,-1,20
 799 848 799 848 780 760 c 2,21,-1
 766 688 l 1,22,-1
 991 688 l 1,11,-1
1176 477 m 1,23,-1
 725 477 l 1,24,25
 717 428 717 428 714 401.5 c 128,-1,26
 711 375 711 375 711 356 c 0,27,28
 711 276 711 276 753.5 228 c 128,-1,29
 796 180 796 180 866 180 c 0,30,31
 922 180 922 180 990.5 208.5 c 128,-1,32
 1059 237 1059 237 1124 289 c 1,33,-1
 1077 51 l 1,34,35
 1020 11 1020 11 952 -9 c 128,-1,36
 884 -29 884 -29 803 -29 c 0,37,38
 709 -29 709 -29 642 13.5 c 128,-1,39
 575 56 575 56 543 135 c 1,40,41
 482 52 482 52 408.5 11.5 c 128,-1,42
 335 -29 335 -29 246 -29 c 0,43,44
 119 -29 119 -29 44 50 c 128,-1,45
 -31 129 -31 129 -31 262 c 0,46,47
 -31 455 -31 455 90.5 572.5 c 128,-1,48
 212 690 212 690 416 690 c 2,49,-1
 524 690 l 1,50,-1
 535 748 l 2,51,52
 538 763 538 763 539.5 778 c 128,-1,53
 541 793 541 793 541 807 c 0,54,55
 541 868 541 868 507 900 c 128,-1,56
 473 932 473 932 408 932 c 0,57,58
 356 932 356 932 286.5 906.5 c 128,-1,59
 217 881 217 881 131 831 c 1,60,-1
 178 1069 l 1,61,62
 257 1108 257 1108 329.5 1127.5 c 128,-1,63
 402 1147 402 1147 471 1147 c 0,64,65
 553 1147 553 1147 611 1112 c 128,-1,66
 669 1077 669 1077 694 1014 c 1,67,68
 746 1079 746 1079 815.5 1113 c 128,-1,69
 885 1147 885 1147 969 1147 c 0,70,71
 1095 1147 1095 1147 1163 1077 c 128,-1,72
 1231 1007 1231 1007 1231 877 c 0,73,74
 1231 828 1231 828 1223 761 c 128,-1,75
 1215 694 1215 694 1198 606 c 2,76,-1
 1176 477 l 1,23,-1
EndSplineSet
EndChar

StartChar: ccedilla
Encoding: 231 231 169
Width: 1233
GlyphClass: 3
Flags: W
LayerCount: 2
Fore
SplineSet
956 37 m 1,0,1
 879 4 879 4 797.5 -12.5 c 128,-1,2
 716 -29 716 -29 633 -29 c 0,3,4
 407 -29 407 -29 278.5 95 c 128,-1,5
 150 219 150 219 150 434 c 0,6,7
 150 751 150 751 333.5 949 c 128,-1,8
 517 1147 517 1147 813 1147 c 0,9,10
 911 1147 911 1147 996 1126.5 c 128,-1,11
 1081 1106 1081 1106 1157 1063 c 1,12,-1
 1104 795 l 1,13,14
 1043 853 1043 853 975 881 c 128,-1,15
 907 909 907 909 829 909 c 0,16,17
 659 909 659 909 552.5 785 c 128,-1,18
 446 661 446 661 446 463 c 0,19,20
 446 335 446 335 507 272 c 128,-1,21
 568 209 568 209 692 209 c 0,22,23
 762 209 762 209 841.5 235 c 128,-1,24
 921 261 921 261 1012 313 c 1,25,-1
 956 37 l 1,0,1
636 0 m 1,26,27
 672 -48 672 -48 690 -94 c 128,-1,28
 708 -140 708 -140 708 -184 c 0,29,30
 708 -283 708 -283 630 -342 c 128,-1,31
 552 -401 552 -401 420 -401 c 0,32,33
 367 -401 367 -401 315.5 -394.5 c 128,-1,34
 264 -388 264 -388 215 -375 c 1,35,-1
 244 -219 l 1,36,37
 287 -236 287 -236 327.5 -245 c 128,-1,38
 368 -254 368 -254 403 -254 c 0,39,40
 471 -254 471 -254 507.5 -227 c 128,-1,41
 544 -200 544 -200 544 -150 c 0,42,43
 544 -124 544 -124 533 -89.5 c 128,-1,44
 522 -55 522 -55 495 0 c 1,45,-1
 636 0 l 1,26,27
EndSplineSet
EndChar

StartChar: egrave
Encoding: 232 232 170
Width: 1233
GlyphClass: 3
Flags: W
LayerCount: 2
Fore
SplineSet
993 55 m 1,0,1
 898 13 898 13 795 -8 c 128,-1,2
 692 -29 692 -29 582 -29 c 0,3,4
 334 -29 334 -29 205 89.5 c 128,-1,5
 76 208 76 208 76 436 c 0,6,7
 76 577 76 577 120 709 c 128,-1,8
 164 841 164 841 244 938 c 0,9,10
 328 1040 328 1040 444 1094.5 c 128,-1,11
 560 1149 560 1149 694 1149 c 0,12,13
 903 1149 903 1149 1029 1029 c 128,-1,14
 1155 909 1155 909 1155 711 c 0,15,16
 1155 666 1155 666 1148.5 607 c 128,-1,17
 1142 548 1142 548 1128 465 c 1,18,-1
 369 465 l 1,19,20
 366 448 366 448 364.5 433 c 128,-1,21
 363 418 363 418 362 403 c 0,22,23
 362 304 362 304 429 253.5 c 128,-1,24
 496 203 496 203 627 203 c 0,25,26
 735 203 735 203 843 234 c 128,-1,27
 951 265 951 265 1044 324 c 1,28,-1
 993 55 l 1,0,1
876 684 m 1,29,30
 880 698 880 698 881.5 711.5 c 128,-1,31
 883 725 883 725 883 737 c 0,32,33
 883 822 883 822 832 871 c 128,-1,34
 781 920 781 920 692 920 c 0,35,36
 592 920 592 920 521 861 c 128,-1,37
 450 802 450 802 410 684 c 1,38,-1
 876 684 l 1,29,30
655 1638 m 1,39,-1
 864 1262 l 1,40,-1
 666 1262 l 1,41,-1
 371 1638 l 1,42,-1
 655 1638 l 1,39,-1
EndSplineSet
EndChar

StartChar: eacute
Encoding: 233 233 171
Width: 1233
GlyphClass: 3
Flags: W
LayerCount: 2
Fore
SplineSet
993 55 m 1,0,1
 898 13 898 13 795 -8 c 128,-1,2
 692 -29 692 -29 582 -29 c 0,3,4
 334 -29 334 -29 205 89.5 c 128,-1,5
 76 208 76 208 76 436 c 0,6,7
 76 577 76 577 120 709 c 128,-1,8
 164 841 164 841 244 938 c 0,9,10
 328 1040 328 1040 444 1094.5 c 128,-1,11
 560 1149 560 1149 694 1149 c 0,12,13
 903 1149 903 1149 1029 1029 c 128,-1,14
 1155 909 1155 909 1155 711 c 0,15,16
 1155 666 1155 666 1148.5 607 c 128,-1,17
 1142 548 1142 548 1128 465 c 1,18,-1
 369 465 l 1,19,20
 366 448 366 448 364.5 433 c 128,-1,21
 363 418 363 418 362 403 c 0,22,23
 362 304 362 304 429 253.5 c 128,-1,24
 496 203 496 203 627 203 c 0,25,26
 735 203 735 203 843 234 c 128,-1,27
 951 265 951 265 1044 324 c 1,28,-1
 993 55 l 1,0,1
876 684 m 1,29,30
 880 698 880 698 881.5 711.5 c 128,-1,31
 883 725 883 725 883 737 c 0,32,33
 883 822 883 822 832 871 c 128,-1,34
 781 920 781 920 692 920 c 0,35,36
 592 920 592 920 521 861 c 128,-1,37
 450 802 450 802 410 684 c 1,38,-1
 876 684 l 1,29,30
887 1638 m 1,39,-1
 1208 1638 l 1,40,-1
 766 1262 l 1,41,-1
 569 1262 l 1,42,-1
 887 1638 l 1,39,-1
EndSplineSet
EndChar

StartChar: ecircumflex
Encoding: 234 234 172
Width: 1233
GlyphClass: 3
Flags: W
LayerCount: 2
Fore
SplineSet
993 55 m 1,0,1
 898 13 898 13 795 -8 c 128,-1,2
 692 -29 692 -29 582 -29 c 0,3,4
 334 -29 334 -29 205 89.5 c 128,-1,5
 76 208 76 208 76 436 c 0,6,7
 76 577 76 577 120 709 c 128,-1,8
 164 841 164 841 244 938 c 0,9,10
 328 1040 328 1040 444 1094.5 c 128,-1,11
 560 1149 560 1149 694 1149 c 0,12,13
 903 1149 903 1149 1029 1029 c 128,-1,14
 1155 909 1155 909 1155 711 c 0,15,16
 1155 666 1155 666 1148.5 607 c 128,-1,17
 1142 548 1142 548 1128 465 c 1,18,-1
 369 465 l 1,19,20
 366 448 366 448 364.5 433 c 128,-1,21
 363 418 363 418 362 403 c 0,22,23
 362 304 362 304 429 253.5 c 128,-1,24
 496 203 496 203 627 203 c 0,25,26
 735 203 735 203 843 234 c 128,-1,27
 951 265 951 265 1044 324 c 1,28,-1
 993 55 l 1,0,1
876 684 m 1,29,30
 880 698 880 698 881.5 711.5 c 128,-1,31
 883 725 883 725 883 737 c 0,32,33
 883 822 883 822 832 871 c 128,-1,34
 781 920 781 920 692 920 c 0,35,36
 592 920 592 920 521 861 c 128,-1,37
 450 802 450 802 410 684 c 1,38,-1
 876 684 l 1,29,30
668 1638 m 1,39,-1
 911 1638 l 1,40,-1
 1094 1262 l 1,41,-1
 918 1262 l 1,42,-1
 766 1487 l 1,43,-1
 526 1262 l 1,44,-1
 336 1262 l 1,45,-1
 668 1638 l 1,39,-1
EndSplineSet
EndChar

StartChar: edieresis
Encoding: 235 235 173
Width: 1233
GlyphClass: 3
Flags: W
LayerCount: 2
Fore
SplineSet
993 55 m 1,0,1
 898 13 898 13 795 -8 c 128,-1,2
 692 -29 692 -29 582 -29 c 0,3,4
 334 -29 334 -29 205 89.5 c 128,-1,5
 76 208 76 208 76 436 c 0,6,7
 76 577 76 577 120 709 c 128,-1,8
 164 841 164 841 244 938 c 0,9,10
 328 1040 328 1040 444 1094.5 c 128,-1,11
 560 1149 560 1149 694 1149 c 0,12,13
 903 1149 903 1149 1029 1029 c 128,-1,14
 1155 909 1155 909 1155 711 c 0,15,16
 1155 666 1155 666 1148.5 607 c 128,-1,17
 1142 548 1142 548 1128 465 c 1,18,-1
 369 465 l 1,19,20
 366 448 366 448 364.5 433 c 128,-1,21
 363 418 363 418 362 403 c 0,22,23
 362 304 362 304 429 253.5 c 128,-1,24
 496 203 496 203 627 203 c 0,25,26
 735 203 735 203 843 234 c 128,-1,27
 951 265 951 265 1044 324 c 1,28,-1
 993 55 l 1,0,1
876 684 m 1,29,30
 880 698 880 698 881.5 711.5 c 128,-1,31
 883 725 883 725 883 737 c 0,32,33
 883 822 883 822 832 871 c 128,-1,34
 781 920 781 920 692 920 c 0,35,36
 592 920 592 920 521 861 c 128,-1,37
 450 802 450 802 410 684 c 1,38,-1
 876 684 l 1,29,30
858 1585 m 1,39,-1
 1096 1585 l 1,40,-1
 1047 1339 l 1,41,-1
 811 1339 l 1,42,-1
 858 1585 l 1,39,-1
463 1585 m 1,43,-1
 700 1585 l 1,44,-1
 651 1339 l 1,45,-1
 416 1339 l 1,46,-1
 463 1585 l 1,43,-1
EndSplineSet
EndChar

StartChar: igrave
Encoding: 236 236 174
Width: 1233
GlyphClass: 3
Flags: W
LayerCount: 2
Fore
SplineSet
309 1120 m 1,0,-1
 889 1120 l 1,1,-1
 715 225 l 1,2,-1
 1079 225 l 1,3,-1
 1036 0 l 1,4,-1
 14 0 l 1,5,-1
 57 225 l 1,6,-1
 422 225 l 1,7,-1
 553 895 l 1,8,-1
 266 895 l 1,9,-1
 309 1120 l 1,0,-1
611 1638 m 1,10,-1
 820 1262 l 1,11,-1
 622 1262 l 1,12,-1
 327 1638 l 1,13,-1
 611 1638 l 1,10,-1
EndSplineSet
EndChar

StartChar: iacute
Encoding: 237 237 175
Width: 1233
GlyphClass: 3
Flags: W
LayerCount: 2
Fore
SplineSet
309 1120 m 1,0,-1
 889 1120 l 1,1,-1
 715 225 l 1,2,-1
 1079 225 l 1,3,-1
 1036 0 l 1,4,-1
 14 0 l 1,5,-1
 57 225 l 1,6,-1
 422 225 l 1,7,-1
 553 895 l 1,8,-1
 266 895 l 1,9,-1
 309 1120 l 1,0,-1
843 1638 m 1,10,-1
 1164 1638 l 1,11,-1
 722 1262 l 1,12,-1
 525 1262 l 1,13,-1
 843 1638 l 1,10,-1
EndSplineSet
EndChar

StartChar: icircumflex
Encoding: 238 238 176
Width: 1233
GlyphClass: 3
Flags: W
LayerCount: 2
Fore
SplineSet
309 1120 m 1,0,-1
 889 1120 l 1,1,-1
 715 225 l 1,2,-1
 1079 225 l 1,3,-1
 1036 0 l 1,4,-1
 14 0 l 1,5,-1
 57 225 l 1,6,-1
 422 225 l 1,7,-1
 553 895 l 1,8,-1
 266 895 l 1,9,-1
 309 1120 l 1,0,-1
624 1638 m 1,10,-1
 867 1638 l 1,11,-1
 1050 1262 l 1,12,-1
 874 1262 l 1,13,-1
 722 1487 l 1,14,-1
 482 1262 l 1,15,-1
 292 1262 l 1,16,-1
 624 1638 l 1,10,-1
EndSplineSet
EndChar

StartChar: idieresis
Encoding: 239 239 177
Width: 1233
GlyphClass: 3
Flags: W
LayerCount: 2
Fore
SplineSet
309 1120 m 1,0,-1
 889 1120 l 1,1,-1
 715 225 l 1,2,-1
 1079 225 l 1,3,-1
 1036 0 l 1,4,-1
 14 0 l 1,5,-1
 57 225 l 1,6,-1
 422 225 l 1,7,-1
 553 895 l 1,8,-1
 266 895 l 1,9,-1
 309 1120 l 1,0,-1
814 1585 m 1,10,-1
 1052 1585 l 1,11,-1
 1003 1339 l 1,12,-1
 767 1339 l 1,13,-1
 814 1585 l 1,10,-1
419 1585 m 1,14,-1
 656 1585 l 1,15,-1
 607 1339 l 1,16,-1
 372 1339 l 1,17,-1
 419 1585 l 1,14,-1
EndSplineSet
EndChar

StartChar: eth
Encoding: 240 240 178
Width: 1233
GlyphClass: 2
Flags: W
LayerCount: 2
Fore
SplineSet
838 778 m 1,0,1
 800 799 800 799 759 809 c 128,-1,2
 718 819 718 819 674 819 c 0,3,4
 545 819 545 819 460 708.5 c 128,-1,5
 375 598 375 598 375 428 c 0,6,7
 375 327 375 327 425 267 c 128,-1,8
 475 207 475 207 559 207 c 0,9,10
 685 207 685 207 766.5 332.5 c 128,-1,11
 848 458 848 458 848 655 c 0,12,13
 848 688 848 688 845.5 718 c 128,-1,14
 843 748 843 748 838 778 c 1,0,1
903 1329 m 1,15,16
 1023 1147 1023 1147 1082 979.5 c 128,-1,17
 1141 812 1141 812 1141 653 c 0,18,19
 1141 345 1141 345 976 158 c 128,-1,20
 811 -29 811 -29 539 -29 c 0,21,22
 321 -29 321 -29 201.5 86.5 c 128,-1,23
 82 202 82 202 82 412 c 0,24,25
 82 693 82 693 242 873 c 128,-1,26
 402 1053 402 1053 651 1053 c 0,27,28
 693 1053 693 1053 726 1047 c 128,-1,29
 759 1041 759 1041 788 1028 c 1,30,31
 761 1091 761 1091 733.5 1144.5 c 128,-1,32
 706 1198 706 1198 678 1243 c 1,33,-1
 348 1120 l 1,34,-1
 307 1235 l 1,35,-1
 614 1350 l 1,36,-1
 489 1556 l 1,37,-1
 768 1556 l 1,38,-1
 842 1436 l 1,39,-1
 1165 1554 l 1,40,-1
 1206 1442 l 1,41,-1
 903 1329 l 1,15,16
EndSplineSet
EndChar

StartChar: ntilde
Encoding: 241 241 179
Width: 1233
GlyphClass: 3
Flags: W
LayerCount: 2
Fore
SplineSet
1102 728 m 2,0,-1
 961 0 l 1,1,-1
 668 0 l 1,2,-1
 801 682 l 2,3,4
 806 708 806 708 808.5 734.5 c 128,-1,5
 811 761 811 761 811 788 c 0,6,7
 811 846 811 846 782 876.5 c 128,-1,8
 753 907 753 907 698 907 c 0,9,10
 616 907 616 907 557.5 835 c 128,-1,11
 499 763 499 763 473 629 c 2,12,-1
 352 0 l 1,13,-1
 59 0 l 1,14,-1
 276 1120 l 1,15,-1
 569 1120 l 1,16,-1
 537 952 l 1,17,18
 585 1044 585 1044 669 1095.5 c 128,-1,19
 753 1147 753 1147 854 1147 c 0,20,21
 982 1147 982 1147 1051 1077.5 c 128,-1,22
 1120 1008 1120 1008 1120 881 c 0,23,24
 1120 851 1120 851 1115.5 813 c 128,-1,25
 1111 775 1111 775 1102 728 c 2,0,-1
739 1364 m 2,26,-1
 690 1401 l 2,27,28
 689 1402 689 1402 685 1405 c 0,29,30
 643 1438 643 1438 612 1438 c 0,31,32
 578 1438 578 1438 552 1403.5 c 128,-1,33
 526 1369 526 1369 516 1309 c 1,34,-1
 377 1309 l 1,35,36
 396 1439 396 1439 464 1516 c 128,-1,37
 532 1593 532 1593 627 1593 c 0,38,39
 661 1593 661 1593 691.5 1580.5 c 128,-1,40
 722 1568 722 1568 768 1532 c 2,41,-1
 819 1493 l 2,42,43
 838 1478 838 1478 856 1470 c 128,-1,44
 874 1462 874 1462 889 1462 c 0,45,46
 927 1462 927 1462 953 1495.5 c 128,-1,47
 979 1529 979 1529 989 1591 c 1,48,-1
 1128 1591 l 1,49,50
 1105 1450 1105 1450 1042.5 1378.5 c 128,-1,51
 980 1307 980 1307 879 1307 c 0,52,53
 844 1307 844 1307 811.5 1320 c 128,-1,54
 779 1333 779 1333 739 1364 c 2,26,-1
EndSplineSet
EndChar

StartChar: ograve
Encoding: 242 242 180
Width: 1233
GlyphClass: 3
Flags: W
LayerCount: 2
Fore
SplineSet
850 684 m 0,0,1
 850 793 850 793 803.5 852 c 128,-1,2
 757 911 757 911 672 911 c 0,3,4
 549 911 549 911 466 775 c 128,-1,5
 383 639 383 639 383 434 c 0,6,7
 383 328 383 328 431.5 267.5 c 128,-1,8
 480 207 480 207 563 207 c 0,9,10
 684 207 684 207 767 343.5 c 128,-1,11
 850 480 850 480 850 684 c 0,0,1
88 426 m 0,12,13
 88 748 88 748 254.5 948.5 c 128,-1,14
 421 1149 421 1149 688 1149 c 0,15,16
 903 1149 903 1149 1024 1028.5 c 128,-1,17
 1145 908 1145 908 1145 694 c 0,18,19
 1145 371 1145 371 978.5 171 c 128,-1,20
 812 -29 812 -29 545 -29 c 0,21,22
 330 -29 330 -29 209 91.5 c 128,-1,23
 88 212 88 212 88 426 c 0,12,13
655 1638 m 1,24,-1
 864 1262 l 1,25,-1
 666 1262 l 1,26,-1
 371 1638 l 1,27,-1
 655 1638 l 1,24,-1
EndSplineSet
EndChar

StartChar: oacute
Encoding: 243 243 181
Width: 1233
GlyphClass: 3
Flags: W
LayerCount: 2
Fore
SplineSet
850 684 m 0,0,1
 850 793 850 793 803.5 852 c 128,-1,2
 757 911 757 911 672 911 c 0,3,4
 549 911 549 911 466 775 c 128,-1,5
 383 639 383 639 383 434 c 0,6,7
 383 328 383 328 431.5 267.5 c 128,-1,8
 480 207 480 207 563 207 c 0,9,10
 684 207 684 207 767 343.5 c 128,-1,11
 850 480 850 480 850 684 c 0,0,1
88 426 m 0,12,13
 88 748 88 748 254.5 948.5 c 128,-1,14
 421 1149 421 1149 688 1149 c 0,15,16
 903 1149 903 1149 1024 1028.5 c 128,-1,17
 1145 908 1145 908 1145 694 c 0,18,19
 1145 371 1145 371 978.5 171 c 128,-1,20
 812 -29 812 -29 545 -29 c 0,21,22
 330 -29 330 -29 209 91.5 c 128,-1,23
 88 212 88 212 88 426 c 0,12,13
887 1638 m 1,24,-1
 1208 1638 l 1,25,-1
 766 1262 l 1,26,-1
 569 1262 l 1,27,-1
 887 1638 l 1,24,-1
EndSplineSet
EndChar

StartChar: ocircumflex
Encoding: 244 244 182
Width: 1233
GlyphClass: 3
Flags: W
LayerCount: 2
Fore
SplineSet
850 684 m 0,0,1
 850 793 850 793 803.5 852 c 128,-1,2
 757 911 757 911 672 911 c 0,3,4
 549 911 549 911 466 775 c 128,-1,5
 383 639 383 639 383 434 c 0,6,7
 383 328 383 328 431.5 267.5 c 128,-1,8
 480 207 480 207 563 207 c 0,9,10
 684 207 684 207 767 343.5 c 128,-1,11
 850 480 850 480 850 684 c 0,0,1
88 426 m 0,12,13
 88 748 88 748 254.5 948.5 c 128,-1,14
 421 1149 421 1149 688 1149 c 0,15,16
 903 1149 903 1149 1024 1028.5 c 128,-1,17
 1145 908 1145 908 1145 694 c 0,18,19
 1145 371 1145 371 978.5 171 c 128,-1,20
 812 -29 812 -29 545 -29 c 0,21,22
 330 -29 330 -29 209 91.5 c 128,-1,23
 88 212 88 212 88 426 c 0,12,13
668 1638 m 1,24,-1
 911 1638 l 1,25,-1
 1094 1262 l 1,26,-1
 918 1262 l 1,27,-1
 766 1487 l 1,28,-1
 526 1262 l 1,29,-1
 336 1262 l 1,30,-1
 668 1638 l 1,24,-1
EndSplineSet
EndChar

StartChar: otilde
Encoding: 245 245 183
Width: 1233
GlyphClass: 3
Flags: W
LayerCount: 2
Fore
SplineSet
850 684 m 0,0,1
 850 793 850 793 803.5 852 c 128,-1,2
 757 911 757 911 672 911 c 0,3,4
 549 911 549 911 466 775 c 128,-1,5
 383 639 383 639 383 434 c 0,6,7
 383 328 383 328 431.5 267.5 c 128,-1,8
 480 207 480 207 563 207 c 0,9,10
 684 207 684 207 767 343.5 c 128,-1,11
 850 480 850 480 850 684 c 0,0,1
88 426 m 0,12,13
 88 748 88 748 254.5 948.5 c 128,-1,14
 421 1149 421 1149 688 1149 c 0,15,16
 903 1149 903 1149 1024 1028.5 c 128,-1,17
 1145 908 1145 908 1145 694 c 0,18,19
 1145 371 1145 371 978.5 171 c 128,-1,20
 812 -29 812 -29 545 -29 c 0,21,22
 330 -29 330 -29 209 91.5 c 128,-1,23
 88 212 88 212 88 426 c 0,12,13
739 1364 m 2,24,-1
 690 1401 l 2,25,26
 689 1402 689 1402 685 1405 c 0,27,28
 643 1438 643 1438 612 1438 c 0,29,30
 578 1438 578 1438 552 1403.5 c 128,-1,31
 526 1369 526 1369 516 1309 c 1,32,-1
 377 1309 l 1,33,34
 396 1439 396 1439 464 1516 c 128,-1,35
 532 1593 532 1593 627 1593 c 0,36,37
 661 1593 661 1593 691.5 1580.5 c 128,-1,38
 722 1568 722 1568 768 1532 c 2,39,-1
 819 1493 l 2,40,41
 838 1478 838 1478 856 1470 c 128,-1,42
 874 1462 874 1462 889 1462 c 0,43,44
 927 1462 927 1462 953 1495.5 c 128,-1,45
 979 1529 979 1529 989 1591 c 1,46,-1
 1128 1591 l 1,47,48
 1105 1450 1105 1450 1042.5 1378.5 c 128,-1,49
 980 1307 980 1307 879 1307 c 0,50,51
 844 1307 844 1307 811.5 1320 c 128,-1,52
 779 1333 779 1333 739 1364 c 2,24,-1
EndSplineSet
EndChar

StartChar: odieresis
Encoding: 246 246 184
Width: 1233
GlyphClass: 3
Flags: W
LayerCount: 2
Fore
SplineSet
850 684 m 0,0,1
 850 793 850 793 803.5 852 c 128,-1,2
 757 911 757 911 672 911 c 0,3,4
 549 911 549 911 466 775 c 128,-1,5
 383 639 383 639 383 434 c 0,6,7
 383 328 383 328 431.5 267.5 c 128,-1,8
 480 207 480 207 563 207 c 0,9,10
 684 207 684 207 767 343.5 c 128,-1,11
 850 480 850 480 850 684 c 0,0,1
88 426 m 0,12,13
 88 748 88 748 254.5 948.5 c 128,-1,14
 421 1149 421 1149 688 1149 c 0,15,16
 903 1149 903 1149 1024 1028.5 c 128,-1,17
 1145 908 1145 908 1145 694 c 0,18,19
 1145 371 1145 371 978.5 171 c 128,-1,20
 812 -29 812 -29 545 -29 c 0,21,22
 330 -29 330 -29 209 91.5 c 128,-1,23
 88 212 88 212 88 426 c 0,12,13
858 1585 m 1,24,-1
 1096 1585 l 1,25,-1
 1047 1339 l 1,26,-1
 811 1339 l 1,27,-1
 858 1585 l 1,24,-1
463 1585 m 1,28,-1
 700 1585 l 1,29,-1
 651 1339 l 1,30,-1
 416 1339 l 1,31,-1
 463 1585 l 1,28,-1
EndSplineSet
EndChar

StartChar: divide
Encoding: 247 247 185
Width: 1233
GlyphClass: 2
Flags: W
LayerCount: 2
Fore
SplineSet
461 1198 m 1,0,-1
 770 1198 l 1,1,-1
 770 889 l 1,2,-1
 461 889 l 1,3,-1
 461 1198 l 1,0,-1
461 395 m 1,4,-1
 770 395 l 1,5,-1
 770 86 l 1,6,-1
 461 86 l 1,7,-1
 461 395 l 1,4,-1
66 762 m 1,8,-1
 1165 762 l 1,9,-1
 1165 524 l 1,10,-1
 66 524 l 1,11,-1
 66 762 l 1,8,-1
EndSplineSet
EndChar

StartChar: oslash
Encoding: 248 248 186
Width: 1233
GlyphClass: 2
Flags: W
LayerCount: 2
Fore
SplineSet
434 266 m 1,0,1
 458 236 458 236 489.5 221.5 c 128,-1,2
 521 207 521 207 561 207 c 0,3,4
 682 207 682 207 758 328 c 128,-1,5
 834 449 834 449 850 670 c 1,6,-1
 434 266 l 1,0,1
129 209 m 1,7,8
 109 255 109 255 98.5 308 c 128,-1,9
 88 361 88 361 88 422 c 0,10,11
 88 749 88 749 253.5 949 c 128,-1,12
 419 1149 419 1149 688 1149 c 0,13,14
 780 1149 780 1149 857.5 1124 c 128,-1,15
 935 1099 935 1099 1001 1049 c 1,16,-1
 1194 1235 l 1,17,-1
 1311 1114 l 1,18,-1
 1104 913 l 1,19,20
 1124 864 1124 864 1134.5 809.5 c 128,-1,21
 1145 755 1145 755 1145 696 c 0,22,23
 1145 370 1145 370 979 170.5 c 128,-1,24
 813 -29 813 -29 543 -29 c 0,25,26
 445 -29 445 -29 369.5 -4 c 128,-1,27
 294 21 294 21 233 72 c 1,28,-1
 35 -117 l 1,29,-1
 -82 2 l 1,30,-1
 129 209 l 1,7,8
801 856 m 1,31,32
 776 884 776 884 744.5 897.5 c 128,-1,33
 713 911 713 911 674 911 c 0,34,35
 553 911 553 911 477.5 793 c 128,-1,36
 402 675 402 675 383 453 c 1,37,-1
 801 856 l 1,31,32
EndSplineSet
EndChar

StartChar: ugrave
Encoding: 249 249 187
Width: 1233
GlyphClass: 3
Flags: W
LayerCount: 2
Fore
SplineSet
123 391 m 2,0,-1
 266 1120 l 1,1,-1
 557 1120 l 1,2,-1
 426 436 l 2,3,4
 421 409 421 409 418.5 383 c 128,-1,5
 416 357 416 357 416 332 c 0,6,7
 416 274 416 274 445 242.5 c 128,-1,8
 474 211 474 211 528 211 c 0,9,10
 611 211 611 211 667.5 281 c 128,-1,11
 724 351 724 351 752 489 c 2,12,-1
 874 1120 l 1,13,-1
 1165 1120 l 1,14,-1
 948 0 l 1,15,-1
 655 0 l 1,16,-1
 688 166 l 1,17,18
 644 76 644 76 559 23.5 c 128,-1,19
 474 -29 474 -29 373 -29 c 0,20,21
 244 -29 244 -29 175 41.5 c 128,-1,22
 106 112 106 112 106 244 c 0,23,24
 106 272 106 272 110 308 c 128,-1,25
 114 344 114 344 123 391 c 2,0,-1
655 1638 m 1,26,-1
 864 1262 l 1,27,-1
 666 1262 l 1,28,-1
 371 1638 l 1,29,-1
 655 1638 l 1,26,-1
EndSplineSet
EndChar

StartChar: uacute
Encoding: 250 250 188
Width: 1233
GlyphClass: 3
Flags: W
LayerCount: 2
Fore
SplineSet
123 391 m 2,0,-1
 266 1120 l 1,1,-1
 557 1120 l 1,2,-1
 426 436 l 2,3,4
 421 409 421 409 418.5 383 c 128,-1,5
 416 357 416 357 416 332 c 0,6,7
 416 274 416 274 445 242.5 c 128,-1,8
 474 211 474 211 528 211 c 0,9,10
 611 211 611 211 667.5 281 c 128,-1,11
 724 351 724 351 752 489 c 2,12,-1
 874 1120 l 1,13,-1
 1165 1120 l 1,14,-1
 948 0 l 1,15,-1
 655 0 l 1,16,-1
 688 166 l 1,17,18
 644 76 644 76 559 23.5 c 128,-1,19
 474 -29 474 -29 373 -29 c 0,20,21
 244 -29 244 -29 175 41.5 c 128,-1,22
 106 112 106 112 106 244 c 0,23,24
 106 272 106 272 110 308 c 128,-1,25
 114 344 114 344 123 391 c 2,0,-1
887 1638 m 1,26,-1
 1208 1638 l 1,27,-1
 766 1262 l 1,28,-1
 569 1262 l 1,29,-1
 887 1638 l 1,26,-1
EndSplineSet
EndChar

StartChar: ucircumflex
Encoding: 251 251 189
Width: 1233
GlyphClass: 3
Flags: W
LayerCount: 2
Fore
SplineSet
123 391 m 2,0,-1
 266 1120 l 1,1,-1
 557 1120 l 1,2,-1
 426 436 l 2,3,4
 421 409 421 409 418.5 383 c 128,-1,5
 416 357 416 357 416 332 c 0,6,7
 416 274 416 274 445 242.5 c 128,-1,8
 474 211 474 211 528 211 c 0,9,10
 611 211 611 211 667.5 281 c 128,-1,11
 724 351 724 351 752 489 c 2,12,-1
 874 1120 l 1,13,-1
 1165 1120 l 1,14,-1
 948 0 l 1,15,-1
 655 0 l 1,16,-1
 688 166 l 1,17,18
 644 76 644 76 559 23.5 c 128,-1,19
 474 -29 474 -29 373 -29 c 0,20,21
 244 -29 244 -29 175 41.5 c 128,-1,22
 106 112 106 112 106 244 c 0,23,24
 106 272 106 272 110 308 c 128,-1,25
 114 344 114 344 123 391 c 2,0,-1
668 1638 m 1,26,-1
 911 1638 l 1,27,-1
 1094 1262 l 1,28,-1
 918 1262 l 1,29,-1
 766 1487 l 1,30,-1
 526 1262 l 1,31,-1
 336 1262 l 1,32,-1
 668 1638 l 1,26,-1
EndSplineSet
EndChar

StartChar: udieresis
Encoding: 252 252 190
Width: 1233
GlyphClass: 3
Flags: W
LayerCount: 2
Fore
SplineSet
123 391 m 2,0,-1
 266 1120 l 1,1,-1
 557 1120 l 1,2,-1
 426 436 l 2,3,4
 421 409 421 409 418.5 383 c 128,-1,5
 416 357 416 357 416 332 c 0,6,7
 416 274 416 274 445 242.5 c 128,-1,8
 474 211 474 211 528 211 c 0,9,10
 611 211 611 211 667.5 281 c 128,-1,11
 724 351 724 351 752 489 c 2,12,-1
 874 1120 l 1,13,-1
 1165 1120 l 1,14,-1
 948 0 l 1,15,-1
 655 0 l 1,16,-1
 688 166 l 1,17,18
 644 76 644 76 559 23.5 c 128,-1,19
 474 -29 474 -29 373 -29 c 0,20,21
 244 -29 244 -29 175 41.5 c 128,-1,22
 106 112 106 112 106 244 c 0,23,24
 106 272 106 272 110 308 c 128,-1,25
 114 344 114 344 123 391 c 2,0,-1
858 1585 m 1,26,-1
 1096 1585 l 1,27,-1
 1047 1339 l 1,28,-1
 811 1339 l 1,29,-1
 858 1585 l 1,26,-1
463 1585 m 1,30,-1
 700 1585 l 1,31,-1
 651 1339 l 1,32,-1
 416 1339 l 1,33,-1
 463 1585 l 1,30,-1
EndSplineSet
EndChar

StartChar: yacute
Encoding: 253 253 191
Width: 1233
GlyphClass: 3
Flags: W
LayerCount: 2
Fore
SplineSet
551 -121 m 2,0,1
 439 -319 439 -319 357.5 -371.5 c 128,-1,2
 276 -424 276 -424 150 -424 c 2,3,-1
 -90 -424 l 1,4,-1
 -45 -201 l 1,5,-1
 72 -201 l 2,6,7
 159 -201 159 -201 209 -171 c 128,-1,8
 259 -141 259 -141 319 -29 c 2,9,-1
 358 45 l 1,10,-1
 141 1120 l 1,11,-1
 438 1120 l 1,12,-1
 565 420 l 1,13,-1
 948 1120 l 1,14,-1
 1257 1120 l 1,15,-1
 551 -121 l 2,0,1
887 1638 m 1,16,-1
 1208 1638 l 1,17,-1
 766 1262 l 1,18,-1
 569 1262 l 1,19,-1
 887 1638 l 1,16,-1
EndSplineSet
EndChar

StartChar: thorn
Encoding: 254 254 192
Width: 1233
GlyphClass: 2
Flags: W
LayerCount: 2
Fore
SplineSet
602 209 m 0,0,1
 713 209 713 209 793.5 351 c 128,-1,2
 874 493 874 493 874 694 c 0,3,4
 874 795 874 795 832.5 851 c 128,-1,5
 791 907 791 907 717 907 c 0,6,7
 603 907 603 907 519.5 768.5 c 128,-1,8
 436 630 436 630 436 432 c 0,9,10
 436 328 436 328 481 268.5 c 128,-1,11
 526 209 526 209 602 209 c 0,0,1
379 207 m 1,12,-1
 256 -426 l 1,13,-1
 -37 -426 l 1,14,-1
 348 1556 l 1,15,-1
 641 1556 l 1,16,-1
 524 952 l 1,17,18
 595 1050 595 1050 677 1098.5 c 128,-1,19
 759 1147 759 1147 852 1147 c 0,20,21
 999 1147 999 1147 1084 1037.5 c 128,-1,22
 1169 928 1169 928 1169 739 c 0,23,24
 1169 610 1169 610 1138 480 c 128,-1,25
 1107 350 1107 350 1051 244 c 0,26,27
 982 115 982 115 877 43 c 128,-1,28
 772 -29 772 -29 655 -29 c 0,29,30
 543 -29 543 -29 471 33 c 128,-1,31
 399 95 399 95 379 207 c 1,12,-1
EndSplineSet
EndChar

StartChar: ydieresis
Encoding: 255 255 193
Width: 1233
GlyphClass: 3
Flags: W
LayerCount: 2
Fore
SplineSet
551 -121 m 2,0,1
 439 -319 439 -319 357.5 -371.5 c 128,-1,2
 276 -424 276 -424 150 -424 c 2,3,-1
 -90 -424 l 1,4,-1
 -45 -201 l 1,5,-1
 72 -201 l 2,6,7
 159 -201 159 -201 209 -171 c 128,-1,8
 259 -141 259 -141 319 -29 c 2,9,-1
 358 45 l 1,10,-1
 141 1120 l 1,11,-1
 438 1120 l 1,12,-1
 565 420 l 1,13,-1
 948 1120 l 1,14,-1
 1257 1120 l 1,15,-1
 551 -121 l 2,0,1
858 1585 m 1,16,-1
 1096 1585 l 1,17,-1
 1047 1339 l 1,18,-1
 811 1339 l 1,19,-1
 858 1585 l 1,16,-1
463 1585 m 1,20,-1
 700 1585 l 1,21,-1
 651 1339 l 1,22,-1
 416 1339 l 1,23,-1
 463 1585 l 1,20,-1
EndSplineSet
EndChar

StartChar: Amacron
Encoding: 256 256 194
Width: 1233
GlyphClass: 3
Flags: W
LayerCount: 2
Fore
SplineSet
717 1219 m 1,0,-1
 453 612 l 1,1,-1
 737 612 l 1,2,-1
 717 1219 l 1,0,-1
582 1493 m 1,3,-1
 942 1493 l 1,4,-1
 1055 0 l 1,5,-1
 762 0 l 1,6,-1
 748 369 l 1,7,-1
 348 369 l 1,8,-1
 186 0 l 1,9,-1
 -113 0 l 1,10,-1
 582 1493 l 1,3,-1
519 1870 m 1,11,-1
 1150 1870 l 1,12,-1
 1114 1682 l 1,13,-1
 483 1682 l 1,14,-1
 519 1870 l 1,11,-1
EndSplineSet
EndChar

StartChar: amacron
Encoding: 257 257 195
Width: 1233
GlyphClass: 3
Flags: W
LayerCount: 2
Fore
SplineSet
690 530 m 2,0,1
 518 530 518 530 435 478 c 128,-1,2
 352 426 352 426 352 317 c 0,3,4
 352 254 352 254 392.5 213 c 128,-1,5
 433 172 433 172 496 172 c 0,6,7
 614 172 614 172 694 265 c 128,-1,8
 774 358 774 358 803 530 c 1,9,-1
 690 530 l 2,0,1
1114 639 m 2,10,-1
 991 0 l 1,11,-1
 700 0 l 1,12,-1
 725 125 l 1,13,14
 658 48 658 48 571.5 9.5 c 128,-1,15
 485 -29 485 -29 375 -29 c 0,16,17
 224 -29 224 -29 135.5 58.5 c 128,-1,18
 47 146 47 146 47 295 c 0,19,20
 47 510 47 510 202.5 623.5 c 128,-1,21
 358 737 358 737 651 737 c 2,22,-1
 844 737 l 1,23,-1
 852 786 l 2,24,25
 853 792 853 792 853.5 797.5 c 128,-1,26
 854 803 854 803 854 815 c 0,27,28
 854 872 854 872 803 902 c 128,-1,29
 752 932 752 932 655 932 c 0,30,31
 573 932 573 932 469.5 903.5 c 128,-1,32
 366 875 366 875 248 819 c 1,33,-1
 295 1069 l 1,34,35
 408 1108 408 1108 508.5 1127.5 c 128,-1,36
 609 1147 609 1147 700 1147 c 0,37,38
 917 1147 917 1147 1029 1071 c 128,-1,39
 1141 995 1141 995 1141 848 c 0,40,41
 1141 809 1141 809 1134 756 c 128,-1,42
 1127 703 1127 703 1114 639 c 2,10,-1
459 1556 m 1,43,-1
 1090 1556 l 1,44,-1
 1053 1368 l 1,45,-1
 422 1368 l 1,46,-1
 459 1556 l 1,43,-1
EndSplineSet
EndChar

StartChar: Abreve
Encoding: 258 258 196
Width: 1233
GlyphClass: 3
Flags: W
LayerCount: 2
Fore
SplineSet
508 1899 m 1,0,-1
 651 1899 l 1,1,2
 661 1839 661 1839 702 1811.5 c 128,-1,3
 743 1784 743 1784 822 1784 c 0,4,5
 893 1784 893 1784 946 1814.5 c 128,-1,6
 999 1845 999 1845 1022 1899 c 1,7,-1
 1176 1899 l 1,8,9
 1136 1770 1136 1770 1037 1702.5 c 128,-1,10
 938 1635 938 1635 791 1635 c 0,11,12
 655 1635 655 1635 581.5 1702.5 c 128,-1,13
 508 1770 508 1770 508 1895 c 2,14,-1
 508 1899 l 1,0,-1
717 1219 m 1,15,-1
 453 612 l 1,16,-1
 737 612 l 1,17,-1
 717 1219 l 1,15,-1
582 1493 m 1,18,-1
 942 1493 l 1,19,-1
 1055 0 l 1,20,-1
 762 0 l 1,21,-1
 748 369 l 1,22,-1
 348 369 l 1,23,-1
 186 0 l 1,24,-1
 -113 0 l 1,25,-1
 582 1493 l 1,18,-1
EndSplineSet
EndChar

StartChar: abreve
Encoding: 259 259 197
Width: 1233
GlyphClass: 3
Flags: W
LayerCount: 2
Fore
SplineSet
446 1606 m 1,0,-1
 590 1606 l 1,1,-1
 590 1593 l 2,2,3
 590 1532 590 1532 634 1496 c 128,-1,4
 678 1460 678 1460 754 1460 c 0,5,6
 835 1460 835 1460 893.5 1498.5 c 128,-1,7
 952 1537 952 1537 977 1606 c 1,8,-1
 1120 1606 l 1,9,10
 1091 1464 1091 1464 992 1386.5 c 128,-1,11
 893 1309 893 1309 741 1309 c 0,12,13
 593 1309 593 1309 519.5 1374.5 c 128,-1,14
 446 1440 446 1440 446 1573 c 2,15,-1
 446 1606 l 1,0,-1
690 530 m 2,16,17
 518 530 518 530 435 478 c 128,-1,18
 352 426 352 426 352 317 c 0,19,20
 352 254 352 254 392.5 213 c 128,-1,21
 433 172 433 172 496 172 c 0,22,23
 614 172 614 172 694 265 c 128,-1,24
 774 358 774 358 803 530 c 1,25,-1
 690 530 l 2,16,17
1114 639 m 2,26,-1
 991 0 l 1,27,-1
 700 0 l 1,28,-1
 725 125 l 1,29,30
 658 48 658 48 571.5 9.5 c 128,-1,31
 485 -29 485 -29 375 -29 c 0,32,33
 224 -29 224 -29 135.5 58.5 c 128,-1,34
 47 146 47 146 47 295 c 0,35,36
 47 510 47 510 202.5 623.5 c 128,-1,37
 358 737 358 737 651 737 c 2,38,-1
 844 737 l 1,39,-1
 852 786 l 2,40,41
 853 792 853 792 853.5 797.5 c 128,-1,42
 854 803 854 803 854 815 c 0,43,44
 854 872 854 872 803 902 c 128,-1,45
 752 932 752 932 655 932 c 0,46,47
 573 932 573 932 469.5 903.5 c 128,-1,48
 366 875 366 875 248 819 c 1,49,-1
 295 1069 l 1,50,51
 408 1108 408 1108 508.5 1127.5 c 128,-1,52
 609 1147 609 1147 700 1147 c 0,53,54
 917 1147 917 1147 1029 1071 c 128,-1,55
 1141 995 1141 995 1141 848 c 0,56,57
 1141 809 1141 809 1134 756 c 128,-1,58
 1127 703 1127 703 1114 639 c 2,26,-1
EndSplineSet
EndChar

StartChar: Aogonek
Encoding: 260 260 198
Width: 1233
GlyphClass: 3
Flags: W
LayerCount: 2
Fore
SplineSet
767 0 m 1,0,-1
 908 0 l 1,1,2
 827 -80 827 -80 801 -117 c 128,-1,3
 775 -154 775 -154 775 -180 c 0,4,5
 775 -213 775 -213 802 -233.5 c 128,-1,6
 829 -254 829 -254 873 -254 c 0,7,8
 911 -254 911 -254 952.5 -246.5 c 128,-1,9
 994 -239 994 -239 1041 -223 c 1,10,-1
 1010 -379 l 1,11,12
 961 -390 961 -390 915 -395.5 c 128,-1,13
 869 -401 869 -401 826 -401 c 0,14,15
 727 -401 727 -401 669 -362.5 c 128,-1,16
 611 -324 611 -324 611 -258 c 0,17,18
 611 -198 611 -198 650 -133.5 c 128,-1,19
 689 -69 689 -69 767 0 c 1,0,-1
717 1219 m 1,20,-1
 453 612 l 1,21,-1
 737 612 l 1,22,-1
 717 1219 l 1,20,-1
582 1493 m 1,23,-1
 942 1493 l 1,24,-1
 1055 0 l 1,25,-1
 762 0 l 1,26,-1
 748 369 l 1,27,-1
 348 369 l 1,28,-1
 186 0 l 1,29,-1
 -113 0 l 1,30,-1
 582 1493 l 1,23,-1
EndSplineSet
EndChar

StartChar: aogonek
Encoding: 261 261 199
Width: 1233
GlyphClass: 3
Flags: W
LayerCount: 2
Fore
SplineSet
700 0 m 1,0,-1
 841 0 l 1,1,2
 760 -80 760 -80 734 -117 c 128,-1,3
 708 -154 708 -154 708 -180 c 0,4,5
 708 -213 708 -213 735 -233.5 c 128,-1,6
 762 -254 762 -254 806 -254 c 0,7,8
 844 -254 844 -254 885.5 -246.5 c 128,-1,9
 927 -239 927 -239 974 -223 c 1,10,-1
 943 -379 l 1,11,12
 894 -390 894 -390 848 -395.5 c 128,-1,13
 802 -401 802 -401 759 -401 c 0,14,15
 660 -401 660 -401 602 -362.5 c 128,-1,16
 544 -324 544 -324 544 -258 c 0,17,18
 544 -198 544 -198 583 -133.5 c 128,-1,19
 622 -69 622 -69 700 0 c 1,0,-1
690 530 m 2,20,21
 518 530 518 530 435 478 c 128,-1,22
 352 426 352 426 352 317 c 0,23,24
 352 254 352 254 392.5 213 c 128,-1,25
 433 172 433 172 496 172 c 0,26,27
 614 172 614 172 694 265 c 128,-1,28
 774 358 774 358 803 530 c 1,29,-1
 690 530 l 2,20,21
1114 639 m 2,30,-1
 991 0 l 1,31,-1
 700 0 l 1,32,-1
 725 125 l 1,33,34
 658 48 658 48 571.5 9.5 c 128,-1,35
 485 -29 485 -29 375 -29 c 0,36,37
 224 -29 224 -29 135.5 58.5 c 128,-1,38
 47 146 47 146 47 295 c 0,39,40
 47 510 47 510 202.5 623.5 c 128,-1,41
 358 737 358 737 651 737 c 2,42,-1
 844 737 l 1,43,-1
 852 786 l 2,44,45
 853 792 853 792 853.5 797.5 c 128,-1,46
 854 803 854 803 854 815 c 0,47,48
 854 872 854 872 803 902 c 128,-1,49
 752 932 752 932 655 932 c 0,50,51
 573 932 573 932 469.5 903.5 c 128,-1,52
 366 875 366 875 248 819 c 1,53,-1
 295 1069 l 1,54,55
 408 1108 408 1108 508.5 1127.5 c 128,-1,56
 609 1147 609 1147 700 1147 c 0,57,58
 917 1147 917 1147 1029 1071 c 128,-1,59
 1141 995 1141 995 1141 848 c 0,60,61
 1141 809 1141 809 1134 756 c 128,-1,62
 1127 703 1127 703 1114 639 c 2,30,-1
EndSplineSet
EndChar

StartChar: Cacute
Encoding: 262 262 200
Width: 1233
GlyphClass: 3
Flags: W
LayerCount: 2
Fore
SplineSet
946 43 m 1,0,1
 869 7 869 7 788.5 -11 c 128,-1,2
 708 -29 708 -29 623 -29 c 0,3,4
 384 -29 384 -29 257.5 108.5 c 128,-1,5
 131 246 131 246 131 506 c 0,6,7
 131 736 131 736 201.5 947.5 c 128,-1,8
 272 1159 272 1159 393 1296 c 0,9,10
 490 1406 490 1406 620 1463 c 128,-1,11
 750 1520 750 1520 903 1520 c 0,12,13
 985 1520 985 1520 1063.5 1502 c 128,-1,14
 1142 1484 1142 1484 1219 1448 c 1,15,-1
 1155 1120 l 1,16,17
 1105 1188 1105 1188 1032.5 1222.5 c 128,-1,18
 960 1257 960 1257 872 1257 c 0,19,20
 792 1257 792 1257 715 1208.5 c 128,-1,21
 638 1160 638 1160 584 1075 c 0,22,23
 515 968 515 968 472.5 817.5 c 128,-1,24
 430 667 430 667 430 532 c 0,25,26
 430 386 430 386 493 308.5 c 128,-1,27
 556 231 556 231 674 231 c 0,28,29
 755 231 755 231 835.5 264.5 c 128,-1,30
 916 298 916 298 1010 371 c 1,31,-1
 946 43 l 1,0,1
1004 1899 m 1,32,-1
 1285 1899 l 1,33,-1
 965 1635 l 1,34,-1
 758 1635 l 1,35,-1
 1004 1899 l 1,32,-1
EndSplineSet
EndChar

StartChar: cacute
Encoding: 263 263 201
Width: 1233
GlyphClass: 3
Flags: W
LayerCount: 2
Fore
SplineSet
956 37 m 1,0,1
 879 4 879 4 797.5 -12.5 c 128,-1,2
 716 -29 716 -29 633 -29 c 0,3,4
 407 -29 407 -29 278.5 95 c 128,-1,5
 150 219 150 219 150 434 c 0,6,7
 150 751 150 751 333.5 949 c 128,-1,8
 517 1147 517 1147 813 1147 c 0,9,10
 911 1147 911 1147 996 1126.5 c 128,-1,11
 1081 1106 1081 1106 1157 1063 c 1,12,-1
 1104 795 l 1,13,14
 1043 853 1043 853 975 881 c 128,-1,15
 907 909 907 909 829 909 c 0,16,17
 659 909 659 909 552.5 785 c 128,-1,18
 446 661 446 661 446 463 c 0,19,20
 446 335 446 335 507 272 c 128,-1,21
 568 209 568 209 692 209 c 0,22,23
 762 209 762 209 841.5 235 c 128,-1,24
 921 261 921 261 1012 313 c 1,25,-1
 956 37 l 1,0,1
973 1638 m 1,26,-1
 1294 1638 l 1,27,-1
 852 1262 l 1,28,-1
 655 1262 l 1,29,-1
 973 1638 l 1,26,-1
EndSplineSet
EndChar

StartChar: Ccircumflex
Encoding: 264 264 202
Width: 1233
GlyphClass: 3
Flags: W
LayerCount: 2
Fore
SplineSet
781 1899 m 1,0,-1
 1129 1899 l 1,1,-1
 1280 1635 l 1,2,-1
 1111 1635 l 1,3,-1
 947 1796 l 1,4,-1
 717 1635 l 1,5,-1
 537 1635 l 1,6,-1
 781 1899 l 1,0,-1
946 43 m 1,7,8
 869 7 869 7 788.5 -11 c 128,-1,9
 708 -29 708 -29 623 -29 c 0,10,11
 384 -29 384 -29 257.5 108.5 c 128,-1,12
 131 246 131 246 131 506 c 0,13,14
 131 736 131 736 201.5 947.5 c 128,-1,15
 272 1159 272 1159 393 1296 c 0,16,17
 490 1406 490 1406 620 1463 c 128,-1,18
 750 1520 750 1520 903 1520 c 0,19,20
 985 1520 985 1520 1063.5 1502 c 128,-1,21
 1142 1484 1142 1484 1219 1448 c 1,22,-1
 1155 1120 l 1,23,24
 1105 1188 1105 1188 1032.5 1222.5 c 128,-1,25
 960 1257 960 1257 872 1257 c 0,26,27
 792 1257 792 1257 715 1208.5 c 128,-1,28
 638 1160 638 1160 584 1075 c 0,29,30
 515 968 515 968 472.5 817.5 c 128,-1,31
 430 667 430 667 430 532 c 0,32,33
 430 386 430 386 493 308.5 c 128,-1,34
 556 231 556 231 674 231 c 0,35,36
 755 231 755 231 835.5 264.5 c 128,-1,37
 916 298 916 298 1010 371 c 1,38,-1
 946 43 l 1,7,8
EndSplineSet
EndChar

StartChar: ccircumflex
Encoding: 265 265 203
Width: 1233
GlyphClass: 3
Flags: W
LayerCount: 2
Fore
SplineSet
754 1638 m 1,0,-1
 997 1638 l 1,1,-1
 1180 1262 l 1,2,-1
 1004 1262 l 1,3,-1
 852 1487 l 1,4,-1
 612 1262 l 1,5,-1
 422 1262 l 1,6,-1
 754 1638 l 1,0,-1
956 37 m 1,7,8
 879 4 879 4 797.5 -12.5 c 128,-1,9
 716 -29 716 -29 633 -29 c 0,10,11
 407 -29 407 -29 278.5 95 c 128,-1,12
 150 219 150 219 150 434 c 0,13,14
 150 751 150 751 333.5 949 c 128,-1,15
 517 1147 517 1147 813 1147 c 0,16,17
 911 1147 911 1147 996 1126.5 c 128,-1,18
 1081 1106 1081 1106 1157 1063 c 1,19,-1
 1104 795 l 1,20,21
 1043 853 1043 853 975 881 c 128,-1,22
 907 909 907 909 829 909 c 0,23,24
 659 909 659 909 552.5 785 c 128,-1,25
 446 661 446 661 446 463 c 0,26,27
 446 335 446 335 507 272 c 128,-1,28
 568 209 568 209 692 209 c 0,29,30
 762 209 762 209 841.5 235 c 128,-1,31
 921 261 921 261 1012 313 c 1,32,-1
 956 37 l 1,7,8
EndSplineSet
EndChar

StartChar: Cdotaccent
Encoding: 266 266 204
Width: 1233
GlyphClass: 3
Flags: W
LayerCount: 2
Fore
SplineSet
803 1899 m 1,0,-1
 1078 1899 l 1,1,-1
 1030 1653 l 1,2,-1
 755 1653 l 1,3,-1
 803 1899 l 1,0,-1
946 43 m 1,4,5
 869 7 869 7 788.5 -11 c 128,-1,6
 708 -29 708 -29 623 -29 c 0,7,8
 384 -29 384 -29 257.5 108.5 c 128,-1,9
 131 246 131 246 131 506 c 0,10,11
 131 736 131 736 201.5 947.5 c 128,-1,12
 272 1159 272 1159 393 1296 c 0,13,14
 490 1406 490 1406 620 1463 c 128,-1,15
 750 1520 750 1520 903 1520 c 0,16,17
 985 1520 985 1520 1063.5 1502 c 128,-1,18
 1142 1484 1142 1484 1219 1448 c 1,19,-1
 1155 1120 l 1,20,21
 1105 1188 1105 1188 1032.5 1222.5 c 128,-1,22
 960 1257 960 1257 872 1257 c 0,23,24
 792 1257 792 1257 715 1208.5 c 128,-1,25
 638 1160 638 1160 584 1075 c 0,26,27
 515 968 515 968 472.5 817.5 c 128,-1,28
 430 667 430 667 430 532 c 0,29,30
 430 386 430 386 493 308.5 c 128,-1,31
 556 231 556 231 674 231 c 0,32,33
 755 231 755 231 835.5 264.5 c 128,-1,34
 916 298 916 298 1010 371 c 1,35,-1
 946 43 l 1,4,5
EndSplineSet
EndChar

StartChar: cdotaccent
Encoding: 267 267 205
Width: 1233
GlyphClass: 3
Flags: W
LayerCount: 2
Fore
SplineSet
718 1585 m 1,0,-1
 990 1585 l 1,1,-1
 943 1339 l 1,2,-1
 669 1339 l 1,3,-1
 718 1585 l 1,0,-1
956 37 m 1,4,5
 879 4 879 4 797.5 -12.5 c 128,-1,6
 716 -29 716 -29 633 -29 c 0,7,8
 407 -29 407 -29 278.5 95 c 128,-1,9
 150 219 150 219 150 434 c 0,10,11
 150 751 150 751 333.5 949 c 128,-1,12
 517 1147 517 1147 813 1147 c 0,13,14
 911 1147 911 1147 996 1126.5 c 128,-1,15
 1081 1106 1081 1106 1157 1063 c 1,16,-1
 1104 795 l 1,17,18
 1043 853 1043 853 975 881 c 128,-1,19
 907 909 907 909 829 909 c 0,20,21
 659 909 659 909 552.5 785 c 128,-1,22
 446 661 446 661 446 463 c 0,23,24
 446 335 446 335 507 272 c 128,-1,25
 568 209 568 209 692 209 c 0,26,27
 762 209 762 209 841.5 235 c 128,-1,28
 921 261 921 261 1012 313 c 1,29,-1
 956 37 l 1,4,5
EndSplineSet
EndChar

StartChar: Ccaron
Encoding: 268 268 206
Width: 1233
GlyphClass: 3
Flags: W
LayerCount: 2
Fore
SplineSet
946 43 m 1,0,1
 869 7 869 7 788.5 -11 c 128,-1,2
 708 -29 708 -29 623 -29 c 0,3,4
 384 -29 384 -29 257.5 108.5 c 128,-1,5
 131 246 131 246 131 506 c 0,6,7
 131 736 131 736 201.5 947.5 c 128,-1,8
 272 1159 272 1159 393 1296 c 0,9,10
 490 1406 490 1406 620 1463 c 128,-1,11
 750 1520 750 1520 903 1520 c 0,12,13
 985 1520 985 1520 1063.5 1502 c 128,-1,14
 1142 1484 1142 1484 1219 1448 c 1,15,-1
 1155 1120 l 1,16,17
 1105 1188 1105 1188 1032.5 1222.5 c 128,-1,18
 960 1257 960 1257 872 1257 c 0,19,20
 792 1257 792 1257 715 1208.5 c 128,-1,21
 638 1160 638 1160 584 1075 c 0,22,23
 515 968 515 968 472.5 817.5 c 128,-1,24
 430 667 430 667 430 532 c 0,25,26
 430 386 430 386 493 308.5 c 128,-1,27
 556 231 556 231 674 231 c 0,28,29
 755 231 755 231 835.5 264.5 c 128,-1,30
 916 298 916 298 1010 371 c 1,31,-1
 946 43 l 1,0,1
1088 1635 m 1,32,-1
 740 1635 l 1,33,-1
 603 1899 l 1,34,-1
 773 1899 l 1,35,-1
 922 1737 l 1,36,-1
 1151 1899 l 1,37,-1
 1332 1899 l 1,38,-1
 1088 1635 l 1,32,-1
EndSplineSet
EndChar

StartChar: ccaron
Encoding: 269 269 207
Width: 1233
GlyphClass: 3
Flags: W
LayerCount: 2
Fore
SplineSet
956 37 m 1,0,1
 879 4 879 4 797.5 -12.5 c 128,-1,2
 716 -29 716 -29 633 -29 c 0,3,4
 407 -29 407 -29 278.5 95 c 128,-1,5
 150 219 150 219 150 434 c 0,6,7
 150 751 150 751 333.5 949 c 128,-1,8
 517 1147 517 1147 813 1147 c 0,9,10
 911 1147 911 1147 996 1126.5 c 128,-1,11
 1081 1106 1081 1106 1157 1063 c 1,12,-1
 1104 795 l 1,13,14
 1043 853 1043 853 975 881 c 128,-1,15
 907 909 907 909 829 909 c 0,16,17
 659 909 659 909 552.5 785 c 128,-1,18
 446 661 446 661 446 463 c 0,19,20
 446 335 446 335 507 272 c 128,-1,21
 568 209 568 209 692 209 c 0,22,23
 762 209 762 209 841.5 235 c 128,-1,24
 921 261 921 261 1012 313 c 1,25,-1
 956 37 l 1,0,1
924 1262 m 1,26,-1
 682 1262 l 1,27,-1
 500 1638 l 1,28,-1
 674 1638 l 1,29,-1
 827 1411 l 1,30,-1
 1065 1638 l 1,31,-1
 1255 1638 l 1,32,-1
 924 1262 l 1,26,-1
EndSplineSet
EndChar

StartChar: Dcaron
Encoding: 270 270 208
Width: 1233
GlyphClass: 3
Flags: W
LayerCount: 2
Fore
SplineSet
524 1227 m 1,0,-1
 338 266 l 1,1,-1
 434 266 l 2,2,3
 546 266 546 266 623 310 c 128,-1,4
 700 354 700 354 743 442 c 0,5,6
 795 548 795 548 827.5 694.5 c 128,-1,7
 860 841 860 841 860 967 c 0,8,9
 860 1099 860 1099 797.5 1163 c 128,-1,10
 735 1227 735 1227 606 1227 c 2,11,-1
 524 1227 l 1,0,-1
283 1493 m 1,12,-1
 598 1493 l 2,13,14
 883 1493 883 1493 1024 1370 c 128,-1,15
 1165 1247 1165 1247 1165 999 c 0,16,17
 1165 912 1165 912 1151.5 813.5 c 128,-1,18
 1138 715 1138 715 1110 602 c 0,19,20
 1073 451 1073 451 1021 346 c 128,-1,21
 969 241 969 241 897 172 c 0,22,23
 803 80 803 80 672 40 c 128,-1,24
 541 0 541 0 322 0 c 2,25,-1
 -8 0 l 1,26,-1
 283 1493 l 1,12,-1
968 1635 m 1,27,-1
 620 1635 l 1,28,-1
 483 1899 l 1,29,-1
 653 1899 l 1,30,-1
 802 1737 l 1,31,-1
 1031 1899 l 1,32,-1
 1212 1899 l 1,33,-1
 968 1635 l 1,27,-1
EndSplineSet
EndChar

StartChar: dcaron
Encoding: 271 271 209
Width: 1233
GlyphClass: 3
Flags: W
LayerCount: 2
Fore
SplineSet
1333 1557 m 1,0,-1
 1654 1557 l 1,1,-1
 1397 1181 l 1,2,-1
 1200 1181 l 1,3,-1
 1333 1557 l 1,0,-1
633 909 m 0,4,5
 522 909 522 909 442 767.5 c 128,-1,6
 362 626 362 626 362 424 c 0,7,8
 362 323 362 323 403.5 267 c 128,-1,9
 445 211 445 211 518 211 c 0,10,11
 632 211 632 211 715.5 349.5 c 128,-1,12
 799 488 799 488 799 686 c 0,13,14
 799 790 799 790 754 849.5 c 128,-1,15
 709 909 709 909 633 909 c 0,4,5
854 911 m 1,16,-1
 979 1556 l 1,17,-1
 1272 1556 l 1,18,-1
 969 0 l 1,19,-1
 678 0 l 1,20,-1
 709 166 l 1,21,22
 643 70 643 70 560.5 20.5 c 128,-1,23
 478 -29 478 -29 383 -29 c 0,24,25
 237 -29 237 -29 151.5 81 c 128,-1,26
 66 191 66 191 66 381 c 0,27,28
 66 510 66 510 97 638.5 c 128,-1,29
 128 767 128 767 184 874 c 0,30,31
 253 1003 253 1003 358 1076 c 128,-1,32
 463 1149 463 1149 580 1149 c 0,33,34
 692 1149 692 1149 765.5 1085.5 c 128,-1,35
 839 1022 839 1022 854 911 c 1,16,-1
EndSplineSet
EndChar

StartChar: Dcroat
Encoding: 272 272 210
Width: 1233
GlyphClass: 2
Flags: W
LayerCount: 2
Fore
SplineSet
283 1493 m 1,0,-1
 598 1493 l 2,1,2
 883 1493 883 1493 1024 1370 c 128,-1,3
 1165 1247 1165 1247 1165 999 c 0,4,5
 1165 912 1165 912 1151.5 813.5 c 128,-1,6
 1138 715 1138 715 1110 602 c 0,7,8
 1073 451 1073 451 1021 346 c 128,-1,9
 969 241 969 241 897 172 c 0,10,11
 803 80 803 80 672 40 c 128,-1,12
 541 0 541 0 322 0 c 2,13,-1
 -8 0 l 1,14,-1
 121 664 l 1,15,-1
 -16 664 l 1,16,-1
 31 901 l 1,17,-1
 166 901 l 1,18,-1
 283 1493 l 1,0,-1
524 1227 m 1,19,-1
 461 901 l 1,20,-1
 672 901 l 1,21,-1
 627 664 l 1,22,-1
 416 664 l 1,23,-1
 338 266 l 1,24,-1
 434 266 l 2,25,26
 546 266 546 266 623 310 c 128,-1,27
 700 354 700 354 743 442 c 0,28,29
 795 548 795 548 827.5 694.5 c 128,-1,30
 860 841 860 841 860 967 c 0,31,32
 860 1099 860 1099 797.5 1163 c 128,-1,33
 735 1227 735 1227 606 1227 c 2,34,-1
 524 1227 l 1,19,-1
EndSplineSet
EndChar

StartChar: dcroat
Encoding: 273 273 211
Width: 1233
GlyphClass: 2
Flags: W
LayerCount: 2
Fore
SplineSet
854 911 m 1,0,-1
 920 1251 l 1,1,-1
 616 1251 l 1,2,-1
 653 1440 l 1,3,-1
 956 1440 l 1,4,-1
 979 1556 l 1,5,-1
 1272 1556 l 1,6,-1
 1249 1440 l 1,7,-1
 1395 1440 l 1,8,-1
 1358 1251 l 1,9,-1
 1212 1251 l 1,10,-1
 969 0 l 1,11,-1
 678 0 l 1,12,-1
 709 166 l 1,13,14
 643 70 643 70 560.5 20.5 c 128,-1,15
 478 -29 478 -29 383 -29 c 0,16,17
 237 -29 237 -29 151.5 81 c 128,-1,18
 66 191 66 191 66 381 c 0,19,20
 66 510 66 510 97 638.5 c 128,-1,21
 128 767 128 767 184 874 c 0,22,23
 253 1003 253 1003 358 1076 c 128,-1,24
 463 1149 463 1149 580 1149 c 0,25,26
 692 1149 692 1149 765.5 1085.5 c 128,-1,27
 839 1022 839 1022 854 911 c 1,0,-1
633 909 m 0,28,29
 522 909 522 909 442 767.5 c 128,-1,30
 362 626 362 626 362 424 c 0,31,32
 362 323 362 323 403.5 267 c 128,-1,33
 445 211 445 211 518 211 c 0,34,35
 632 211 632 211 715.5 349.5 c 128,-1,36
 799 488 799 488 799 686 c 0,37,38
 799 790 799 790 754 849.5 c 128,-1,39
 709 909 709 909 633 909 c 0,28,29
EndSplineSet
EndChar

StartChar: Emacron
Encoding: 274 274 212
Width: 1233
GlyphClass: 3
Flags: W
LayerCount: 2
Fore
SplineSet
958 0 m 1,0,-1
 29 0 l 1,1,-1
 317 1493 l 1,2,-1
 1249 1493 l 1,3,-1
 1198 1233 l 1,4,-1
 563 1233 l 1,5,-1
 500 911 l 1,6,-1
 1075 911 l 1,7,-1
 1026 651 l 1,8,-1
 451 651 l 1,9,-1
 375 260 l 1,10,-1
 1010 260 l 1,11,-1
 958 0 l 1,0,-1
550 1870 m 1,12,-1
 1181 1870 l 1,13,-1
 1145 1682 l 1,14,-1
 514 1682 l 1,15,-1
 550 1870 l 1,12,-1
EndSplineSet
EndChar

StartChar: emacron
Encoding: 275 275 213
Width: 1233
GlyphClass: 3
Flags: W
LayerCount: 2
Fore
SplineSet
993 55 m 1,0,1
 898 13 898 13 795 -8 c 128,-1,2
 692 -29 692 -29 582 -29 c 0,3,4
 334 -29 334 -29 205 89.5 c 128,-1,5
 76 208 76 208 76 436 c 0,6,7
 76 577 76 577 120 709 c 128,-1,8
 164 841 164 841 244 938 c 0,9,10
 328 1040 328 1040 444 1094.5 c 128,-1,11
 560 1149 560 1149 694 1149 c 0,12,13
 903 1149 903 1149 1029 1029 c 128,-1,14
 1155 909 1155 909 1155 711 c 0,15,16
 1155 666 1155 666 1148.5 607 c 128,-1,17
 1142 548 1142 548 1128 465 c 1,18,-1
 369 465 l 1,19,20
 366 448 366 448 364.5 433 c 128,-1,21
 363 418 363 418 362 403 c 0,22,23
 362 304 362 304 429 253.5 c 128,-1,24
 496 203 496 203 627 203 c 0,25,26
 735 203 735 203 843 234 c 128,-1,27
 951 265 951 265 1044 324 c 1,28,-1
 993 55 l 1,0,1
876 684 m 1,29,30
 880 698 880 698 881.5 711.5 c 128,-1,31
 883 725 883 725 883 737 c 0,32,33
 883 822 883 822 832 871 c 128,-1,34
 781 920 781 920 692 920 c 0,35,36
 592 920 592 920 521 861 c 128,-1,37
 450 802 450 802 410 684 c 1,38,-1
 876 684 l 1,29,30
498 1556 m 1,39,-1
 1129 1556 l 1,40,-1
 1092 1368 l 1,41,-1
 461 1368 l 1,42,-1
 498 1556 l 1,39,-1
EndSplineSet
EndChar

StartChar: Ebreve
Encoding: 276 276 214
Width: 1233
GlyphClass: 3
Flags: W
LayerCount: 2
Fore
SplineSet
539 1899 m 1,0,-1
 682 1899 l 1,1,2
 692 1839 692 1839 733 1811.5 c 128,-1,3
 774 1784 774 1784 853 1784 c 0,4,5
 924 1784 924 1784 977 1814.5 c 128,-1,6
 1030 1845 1030 1845 1053 1899 c 1,7,-1
 1207 1899 l 1,8,9
 1167 1770 1167 1770 1068 1702.5 c 128,-1,10
 969 1635 969 1635 822 1635 c 0,11,12
 686 1635 686 1635 612.5 1702.5 c 128,-1,13
 539 1770 539 1770 539 1895 c 2,14,-1
 539 1899 l 1,0,-1
958 0 m 1,15,-1
 29 0 l 1,16,-1
 317 1493 l 1,17,-1
 1249 1493 l 1,18,-1
 1198 1233 l 1,19,-1
 563 1233 l 1,20,-1
 500 911 l 1,21,-1
 1075 911 l 1,22,-1
 1026 651 l 1,23,-1
 451 651 l 1,24,-1
 375 260 l 1,25,-1
 1010 260 l 1,26,-1
 958 0 l 1,15,-1
EndSplineSet
EndChar

StartChar: ebreve
Encoding: 277 277 215
Width: 1233
GlyphClass: 3
Flags: W
LayerCount: 2
Fore
SplineSet
485 1606 m 1,0,-1
 629 1606 l 1,1,-1
 629 1593 l 2,2,3
 629 1532 629 1532 673 1496 c 128,-1,4
 717 1460 717 1460 793 1460 c 0,5,6
 874 1460 874 1460 932.5 1498.5 c 128,-1,7
 991 1537 991 1537 1016 1606 c 1,8,-1
 1159 1606 l 1,9,10
 1130 1464 1130 1464 1031 1386.5 c 128,-1,11
 932 1309 932 1309 780 1309 c 0,12,13
 632 1309 632 1309 558.5 1374.5 c 128,-1,14
 485 1440 485 1440 485 1573 c 2,15,-1
 485 1606 l 1,0,-1
993 55 m 1,16,17
 898 13 898 13 795 -8 c 128,-1,18
 692 -29 692 -29 582 -29 c 0,19,20
 334 -29 334 -29 205 89.5 c 128,-1,21
 76 208 76 208 76 436 c 0,22,23
 76 577 76 577 120 709 c 128,-1,24
 164 841 164 841 244 938 c 0,25,26
 328 1040 328 1040 444 1094.5 c 128,-1,27
 560 1149 560 1149 694 1149 c 0,28,29
 903 1149 903 1149 1029 1029 c 128,-1,30
 1155 909 1155 909 1155 711 c 0,31,32
 1155 666 1155 666 1148.5 607 c 128,-1,33
 1142 548 1142 548 1128 465 c 1,34,-1
 369 465 l 1,35,36
 366 448 366 448 364.5 433 c 128,-1,37
 363 418 363 418 362 403 c 0,38,39
 362 304 362 304 429 253.5 c 128,-1,40
 496 203 496 203 627 203 c 0,41,42
 735 203 735 203 843 234 c 128,-1,43
 951 265 951 265 1044 324 c 1,44,-1
 993 55 l 1,16,17
876 684 m 1,45,46
 880 698 880 698 881.5 711.5 c 128,-1,47
 883 725 883 725 883 737 c 0,48,49
 883 822 883 822 832 871 c 128,-1,50
 781 920 781 920 692 920 c 0,51,52
 592 920 592 920 521 861 c 128,-1,53
 450 802 450 802 410 684 c 1,54,-1
 876 684 l 1,45,46
EndSplineSet
EndChar

StartChar: Edotaccent
Encoding: 278 278 216
Width: 1233
GlyphClass: 3
Flags: W
LayerCount: 2
Fore
SplineSet
734 1899 m 1,0,-1
 1009 1899 l 1,1,-1
 961 1653 l 1,2,-1
 686 1653 l 1,3,-1
 734 1899 l 1,0,-1
958 0 m 1,4,-1
 29 0 l 1,5,-1
 317 1493 l 1,6,-1
 1249 1493 l 1,7,-1
 1198 1233 l 1,8,-1
 563 1233 l 1,9,-1
 500 911 l 1,10,-1
 1075 911 l 1,11,-1
 1026 651 l 1,12,-1
 451 651 l 1,13,-1
 375 260 l 1,14,-1
 1010 260 l 1,15,-1
 958 0 l 1,4,-1
EndSplineSet
EndChar

StartChar: edotaccent
Encoding: 279 279 217
Width: 1233
GlyphClass: 3
Flags: W
LayerCount: 2
Fore
SplineSet
682 1585 m 1,0,-1
 954 1585 l 1,1,-1
 907 1339 l 1,2,-1
 633 1339 l 1,3,-1
 682 1585 l 1,0,-1
993 55 m 1,4,5
 898 13 898 13 795 -8 c 128,-1,6
 692 -29 692 -29 582 -29 c 0,7,8
 334 -29 334 -29 205 89.5 c 128,-1,9
 76 208 76 208 76 436 c 0,10,11
 76 577 76 577 120 709 c 128,-1,12
 164 841 164 841 244 938 c 0,13,14
 328 1040 328 1040 444 1094.5 c 128,-1,15
 560 1149 560 1149 694 1149 c 0,16,17
 903 1149 903 1149 1029 1029 c 128,-1,18
 1155 909 1155 909 1155 711 c 0,19,20
 1155 666 1155 666 1148.5 607 c 128,-1,21
 1142 548 1142 548 1128 465 c 1,22,-1
 369 465 l 1,23,24
 366 448 366 448 364.5 433 c 128,-1,25
 363 418 363 418 362 403 c 0,26,27
 362 304 362 304 429 253.5 c 128,-1,28
 496 203 496 203 627 203 c 0,29,30
 735 203 735 203 843 234 c 128,-1,31
 951 265 951 265 1044 324 c 1,32,-1
 993 55 l 1,4,5
876 684 m 1,33,34
 880 698 880 698 881.5 711.5 c 128,-1,35
 883 725 883 725 883 737 c 0,36,37
 883 822 883 822 832 871 c 128,-1,38
 781 920 781 920 692 920 c 0,39,40
 592 920 592 920 521 861 c 128,-1,41
 450 802 450 802 410 684 c 1,42,-1
 876 684 l 1,33,34
EndSplineSet
EndChar

StartChar: Eogonek
Encoding: 280 280 218
Width: 1233
GlyphClass: 3
Flags: W
LayerCount: 2
Fore
SplineSet
687 0 m 1,0,-1
 828 0 l 1,1,2
 747 -80 747 -80 721 -117 c 128,-1,3
 695 -154 695 -154 695 -180 c 0,4,5
 695 -213 695 -213 722 -233.5 c 128,-1,6
 749 -254 749 -254 793 -254 c 0,7,8
 831 -254 831 -254 872.5 -246.5 c 128,-1,9
 914 -239 914 -239 961 -223 c 1,10,-1
 930 -379 l 1,11,12
 881 -390 881 -390 835 -395.5 c 128,-1,13
 789 -401 789 -401 746 -401 c 0,14,15
 647 -401 647 -401 589 -362.5 c 128,-1,16
 531 -324 531 -324 531 -258 c 0,17,18
 531 -198 531 -198 570 -133.5 c 128,-1,19
 609 -69 609 -69 687 0 c 1,0,-1
958 0 m 1,20,-1
 29 0 l 1,21,-1
 317 1493 l 1,22,-1
 1249 1493 l 1,23,-1
 1198 1233 l 1,24,-1
 563 1233 l 1,25,-1
 500 911 l 1,26,-1
 1075 911 l 1,27,-1
 1026 651 l 1,28,-1
 451 651 l 1,29,-1
 375 260 l 1,30,-1
 1010 260 l 1,31,-1
 958 0 l 1,20,-1
EndSplineSet
EndChar

StartChar: eogonek
Encoding: 281 281 219
Width: 1233
GlyphClass: 3
Flags: W
LayerCount: 2
Fore
SplineSet
688 0 m 1,0,-1
 829 0 l 1,1,2
 748 -80 748 -80 722 -117 c 128,-1,3
 696 -154 696 -154 696 -180 c 0,4,5
 696 -213 696 -213 723 -233.5 c 128,-1,6
 750 -254 750 -254 794 -254 c 0,7,8
 832 -254 832 -254 873.5 -246.5 c 128,-1,9
 915 -239 915 -239 962 -223 c 1,10,-1
 931 -379 l 1,11,12
 882 -390 882 -390 836 -395.5 c 128,-1,13
 790 -401 790 -401 747 -401 c 0,14,15
 648 -401 648 -401 590 -362.5 c 128,-1,16
 532 -324 532 -324 532 -258 c 0,17,18
 532 -198 532 -198 571 -133.5 c 128,-1,19
 610 -69 610 -69 688 0 c 1,0,-1
993 55 m 1,20,21
 898 13 898 13 795 -8 c 128,-1,22
 692 -29 692 -29 582 -29 c 0,23,24
 334 -29 334 -29 205 89.5 c 128,-1,25
 76 208 76 208 76 436 c 0,26,27
 76 577 76 577 120 709 c 128,-1,28
 164 841 164 841 244 938 c 0,29,30
 328 1040 328 1040 444 1094.5 c 128,-1,31
 560 1149 560 1149 694 1149 c 0,32,33
 903 1149 903 1149 1029 1029 c 128,-1,34
 1155 909 1155 909 1155 711 c 0,35,36
 1155 666 1155 666 1148.5 607 c 128,-1,37
 1142 548 1142 548 1128 465 c 1,38,-1
 369 465 l 1,39,40
 366 448 366 448 364.5 433 c 128,-1,41
 363 418 363 418 362 403 c 0,42,43
 362 304 362 304 429 253.5 c 128,-1,44
 496 203 496 203 627 203 c 0,45,46
 735 203 735 203 843 234 c 128,-1,47
 951 265 951 265 1044 324 c 1,48,-1
 993 55 l 1,20,21
876 684 m 1,49,50
 880 698 880 698 881.5 711.5 c 128,-1,51
 883 725 883 725 883 737 c 0,52,53
 883 822 883 822 832 871 c 128,-1,54
 781 920 781 920 692 920 c 0,55,56
 592 920 592 920 521 861 c 128,-1,57
 450 802 450 802 410 684 c 1,58,-1
 876 684 l 1,49,50
EndSplineSet
EndChar

StartChar: Ecaron
Encoding: 282 282 220
Width: 1233
GlyphClass: 3
Flags: W
LayerCount: 2
Fore
SplineSet
958 0 m 1,0,-1
 29 0 l 1,1,-1
 317 1493 l 1,2,-1
 1249 1493 l 1,3,-1
 1198 1233 l 1,4,-1
 563 1233 l 1,5,-1
 500 911 l 1,6,-1
 1075 911 l 1,7,-1
 1026 651 l 1,8,-1
 451 651 l 1,9,-1
 375 260 l 1,10,-1
 1010 260 l 1,11,-1
 958 0 l 1,0,-1
1004 1635 m 1,12,-1
 656 1635 l 1,13,-1
 519 1899 l 1,14,-1
 689 1899 l 1,15,-1
 838 1737 l 1,16,-1
 1067 1899 l 1,17,-1
 1248 1899 l 1,18,-1
 1004 1635 l 1,12,-1
EndSplineSet
EndChar

StartChar: ecaron
Encoding: 283 283 221
Width: 1233
GlyphClass: 3
Flags: W
LayerCount: 2
Fore
SplineSet
993 55 m 1,0,1
 898 13 898 13 795 -8 c 128,-1,2
 692 -29 692 -29 582 -29 c 0,3,4
 334 -29 334 -29 205 89.5 c 128,-1,5
 76 208 76 208 76 436 c 0,6,7
 76 577 76 577 120 709 c 128,-1,8
 164 841 164 841 244 938 c 0,9,10
 328 1040 328 1040 444 1094.5 c 128,-1,11
 560 1149 560 1149 694 1149 c 0,12,13
 903 1149 903 1149 1029 1029 c 128,-1,14
 1155 909 1155 909 1155 711 c 0,15,16
 1155 666 1155 666 1148.5 607 c 128,-1,17
 1142 548 1142 548 1128 465 c 1,18,-1
 369 465 l 1,19,20
 366 448 366 448 364.5 433 c 128,-1,21
 363 418 363 418 362 403 c 0,22,23
 362 304 362 304 429 253.5 c 128,-1,24
 496 203 496 203 627 203 c 0,25,26
 735 203 735 203 843 234 c 128,-1,27
 951 265 951 265 1044 324 c 1,28,-1
 993 55 l 1,0,1
876 684 m 1,29,30
 880 698 880 698 881.5 711.5 c 128,-1,31
 883 725 883 725 883 737 c 0,32,33
 883 822 883 822 832 871 c 128,-1,34
 781 920 781 920 692 920 c 0,35,36
 592 920 592 920 521 861 c 128,-1,37
 450 802 450 802 410 684 c 1,38,-1
 876 684 l 1,29,30
904 1262 m 1,39,-1
 662 1262 l 1,40,-1
 480 1638 l 1,41,-1
 654 1638 l 1,42,-1
 807 1411 l 1,43,-1
 1045 1638 l 1,44,-1
 1235 1638 l 1,45,-1
 904 1262 l 1,39,-1
EndSplineSet
EndChar

StartChar: Gcircumflex
Encoding: 284 284 222
Width: 1233
GlyphClass: 3
Flags: W
LayerCount: 2
Fore
SplineSet
773 1899 m 1,0,-1
 1121 1899 l 1,1,-1
 1272 1635 l 1,2,-1
 1103 1635 l 1,3,-1
 939 1796 l 1,4,-1
 709 1635 l 1,5,-1
 529 1635 l 1,6,-1
 773 1899 l 1,0,-1
991 94 m 1,7,8
 921 35 921 35 823 3 c 128,-1,9
 725 -29 725 -29 610 -29 c 0,10,11
 368 -29 368 -29 235 116 c 128,-1,12
 102 261 102 261 102 524 c 0,13,14
 102 739 102 739 174.5 949 c 128,-1,15
 247 1159 247 1159 367 1294 c 0,16,17
 465 1405 465 1405 595 1462.5 c 128,-1,18
 725 1520 725 1520 877 1520 c 0,19,20
 958 1520 958 1520 1036.5 1502 c 128,-1,21
 1115 1484 1115 1484 1192 1448 c 1,22,-1
 1126 1120 l 1,23,24
 1075 1187 1075 1187 1006 1222 c 128,-1,25
 937 1257 937 1257 856 1257 c 0,26,27
 785 1257 785 1257 720.5 1227.5 c 128,-1,28
 656 1198 656 1198 604 1141 c 0,29,30
 563 1094 563 1094 528.5 1031 c 128,-1,31
 494 968 494 968 469 891 c 0,32,33
 437 793 437 793 420 701.5 c 128,-1,34
 403 610 403 610 403 532 c 0,35,36
 403 388 403 388 467 309.5 c 128,-1,37
 531 231 531 231 647 231 c 0,38,39
 683 231 683 231 714.5 239.5 c 128,-1,40
 746 248 746 248 770 264 c 1,41,-1
 827 555 l 1,42,-1
 621 555 l 1,43,-1
 670 803 l 1,44,-1
 1130 803 l 1,45,-1
 991 94 l 1,7,8
EndSplineSet
EndChar

StartChar: gcircumflex
Encoding: 285 285 223
Width: 1233
GlyphClass: 3
Flags: W
LayerCount: 2
Fore
SplineSet
668 1638 m 1,0,-1
 911 1638 l 1,1,-1
 1094 1262 l 1,2,-1
 918 1262 l 1,3,-1
 766 1487 l 1,4,-1
 526 1262 l 1,5,-1
 336 1262 l 1,6,-1
 668 1638 l 1,0,-1
520 246 m 0,7,8
 635 246 635 246 719 378.5 c 128,-1,9
 803 511 803 511 803 698 c 0,10,11
 803 798 803 798 762 853.5 c 128,-1,12
 721 909 721 909 649 909 c 0,13,14
 535 909 535 909 451 776.5 c 128,-1,15
 367 644 367 644 367 459 c 0,16,17
 367 357 367 357 407 301.5 c 128,-1,18
 447 246 447 246 520 246 c 0,7,8
987 84 m 2,19,20
 934 -193 934 -193 796 -308.5 c 128,-1,21
 658 -424 658 -424 385 -424 c 0,22,23
 287 -424 287 -424 196 -409 c 128,-1,24
 105 -394 105 -394 18 -365 c 1,25,-1
 72 -100 l 1,26,27
 147 -145 147 -145 229.5 -167.5 c 128,-1,28
 312 -190 312 -190 399 -190 c 0,29,30
 524 -190 524 -190 594.5 -131.5 c 128,-1,31
 665 -73 665 -73 688 51 c 2,32,-1
 715 184 l 1,33,34
 661 101 661 101 583.5 58.5 c 128,-1,35
 506 16 506 16 410 16 c 0,36,37
 253 16 253 16 160.5 120.5 c 128,-1,38
 68 225 68 225 68 403 c 0,39,40
 68 542 68 542 110 683 c 128,-1,41
 152 824 152 824 225 932 c 0,42,43
 295 1035 295 1035 395.5 1093 c 128,-1,44
 496 1151 496 1151 602 1151 c 0,45,46
 706 1151 706 1151 773.5 1096 c 128,-1,47
 841 1041 841 1041 862 938 c 1,48,-1
 897 1120 l 1,49,-1
 1190 1120 l 1,50,-1
 987 84 l 2,19,20
EndSplineSet
EndChar

StartChar: Gbreve
Encoding: 286 286 224
Width: 1233
GlyphClass: 3
Flags: W
LayerCount: 2
Fore
SplineSet
558 1899 m 1,0,-1
 701 1899 l 1,1,2
 711 1839 711 1839 752 1811.5 c 128,-1,3
 793 1784 793 1784 872 1784 c 0,4,5
 943 1784 943 1784 996 1814.5 c 128,-1,6
 1049 1845 1049 1845 1072 1899 c 1,7,-1
 1226 1899 l 1,8,9
 1186 1770 1186 1770 1087 1702.5 c 128,-1,10
 988 1635 988 1635 841 1635 c 0,11,12
 705 1635 705 1635 631.5 1702.5 c 128,-1,13
 558 1770 558 1770 558 1895 c 2,14,-1
 558 1899 l 1,0,-1
991 94 m 1,15,16
 921 35 921 35 823 3 c 128,-1,17
 725 -29 725 -29 610 -29 c 0,18,19
 368 -29 368 -29 235 116 c 128,-1,20
 102 261 102 261 102 524 c 0,21,22
 102 739 102 739 174.5 949 c 128,-1,23
 247 1159 247 1159 367 1294 c 0,24,25
 465 1405 465 1405 595 1462.5 c 128,-1,26
 725 1520 725 1520 877 1520 c 0,27,28
 958 1520 958 1520 1036.5 1502 c 128,-1,29
 1115 1484 1115 1484 1192 1448 c 1,30,-1
 1126 1120 l 1,31,32
 1075 1187 1075 1187 1006 1222 c 128,-1,33
 937 1257 937 1257 856 1257 c 0,34,35
 785 1257 785 1257 720.5 1227.5 c 128,-1,36
 656 1198 656 1198 604 1141 c 0,37,38
 563 1094 563 1094 528.5 1031 c 128,-1,39
 494 968 494 968 469 891 c 0,40,41
 437 793 437 793 420 701.5 c 128,-1,42
 403 610 403 610 403 532 c 0,43,44
 403 388 403 388 467 309.5 c 128,-1,45
 531 231 531 231 647 231 c 0,46,47
 683 231 683 231 714.5 239.5 c 128,-1,48
 746 248 746 248 770 264 c 1,49,-1
 827 555 l 1,50,-1
 621 555 l 1,51,-1
 670 803 l 1,52,-1
 1130 803 l 1,53,-1
 991 94 l 1,15,16
EndSplineSet
EndChar

StartChar: gbreve
Encoding: 287 287 225
Width: 1233
GlyphClass: 3
Flags: W
LayerCount: 2
Fore
SplineSet
446 1606 m 1,0,-1
 590 1606 l 1,1,-1
 590 1593 l 2,2,3
 590 1532 590 1532 634 1496 c 128,-1,4
 678 1460 678 1460 754 1460 c 0,5,6
 835 1460 835 1460 893.5 1498.5 c 128,-1,7
 952 1537 952 1537 977 1606 c 1,8,-1
 1120 1606 l 1,9,10
 1091 1464 1091 1464 992 1386.5 c 128,-1,11
 893 1309 893 1309 741 1309 c 0,12,13
 593 1309 593 1309 519.5 1374.5 c 128,-1,14
 446 1440 446 1440 446 1573 c 2,15,-1
 446 1606 l 1,0,-1
520 246 m 0,16,17
 635 246 635 246 719 378.5 c 128,-1,18
 803 511 803 511 803 698 c 0,19,20
 803 798 803 798 762 853.5 c 128,-1,21
 721 909 721 909 649 909 c 0,22,23
 535 909 535 909 451 776.5 c 128,-1,24
 367 644 367 644 367 459 c 0,25,26
 367 357 367 357 407 301.5 c 128,-1,27
 447 246 447 246 520 246 c 0,16,17
987 84 m 2,28,29
 934 -193 934 -193 796 -308.5 c 128,-1,30
 658 -424 658 -424 385 -424 c 0,31,32
 287 -424 287 -424 196 -409 c 128,-1,33
 105 -394 105 -394 18 -365 c 1,34,-1
 72 -100 l 1,35,36
 147 -145 147 -145 229.5 -167.5 c 128,-1,37
 312 -190 312 -190 399 -190 c 0,38,39
 524 -190 524 -190 594.5 -131.5 c 128,-1,40
 665 -73 665 -73 688 51 c 2,41,-1
 715 184 l 1,42,43
 661 101 661 101 583.5 58.5 c 128,-1,44
 506 16 506 16 410 16 c 0,45,46
 253 16 253 16 160.5 120.5 c 128,-1,47
 68 225 68 225 68 403 c 0,48,49
 68 542 68 542 110 683 c 128,-1,50
 152 824 152 824 225 932 c 0,51,52
 295 1035 295 1035 395.5 1093 c 128,-1,53
 496 1151 496 1151 602 1151 c 0,54,55
 706 1151 706 1151 773.5 1096 c 128,-1,56
 841 1041 841 1041 862 938 c 1,57,-1
 897 1120 l 1,58,-1
 1190 1120 l 1,59,-1
 987 84 l 2,28,29
EndSplineSet
EndChar

StartChar: Gdotaccent
Encoding: 288 288 226
Width: 1233
GlyphClass: 3
Flags: W
LayerCount: 2
Fore
SplineSet
753 1899 m 1,0,-1
 1028 1899 l 1,1,-1
 980 1653 l 1,2,-1
 705 1653 l 1,3,-1
 753 1899 l 1,0,-1
991 94 m 1,4,5
 921 35 921 35 823 3 c 128,-1,6
 725 -29 725 -29 610 -29 c 0,7,8
 368 -29 368 -29 235 116 c 128,-1,9
 102 261 102 261 102 524 c 0,10,11
 102 739 102 739 174.5 949 c 128,-1,12
 247 1159 247 1159 367 1294 c 0,13,14
 465 1405 465 1405 595 1462.5 c 128,-1,15
 725 1520 725 1520 877 1520 c 0,16,17
 958 1520 958 1520 1036.5 1502 c 128,-1,18
 1115 1484 1115 1484 1192 1448 c 1,19,-1
 1126 1120 l 1,20,21
 1075 1187 1075 1187 1006 1222 c 128,-1,22
 937 1257 937 1257 856 1257 c 0,23,24
 785 1257 785 1257 720.5 1227.5 c 128,-1,25
 656 1198 656 1198 604 1141 c 0,26,27
 563 1094 563 1094 528.5 1031 c 128,-1,28
 494 968 494 968 469 891 c 0,29,30
 437 793 437 793 420 701.5 c 128,-1,31
 403 610 403 610 403 532 c 0,32,33
 403 388 403 388 467 309.5 c 128,-1,34
 531 231 531 231 647 231 c 0,35,36
 683 231 683 231 714.5 239.5 c 128,-1,37
 746 248 746 248 770 264 c 1,38,-1
 827 555 l 1,39,-1
 621 555 l 1,40,-1
 670 803 l 1,41,-1
 1130 803 l 1,42,-1
 991 94 l 1,4,5
EndSplineSet
EndChar

StartChar: gdotaccent
Encoding: 289 289 227
Width: 1233
GlyphClass: 3
Flags: W
LayerCount: 2
Fore
SplineSet
643 1585 m 1,0,-1
 915 1585 l 1,1,-1
 868 1339 l 1,2,-1
 594 1339 l 1,3,-1
 643 1585 l 1,0,-1
520 246 m 0,4,5
 635 246 635 246 719 378.5 c 128,-1,6
 803 511 803 511 803 698 c 0,7,8
 803 798 803 798 762 853.5 c 128,-1,9
 721 909 721 909 649 909 c 0,10,11
 535 909 535 909 451 776.5 c 128,-1,12
 367 644 367 644 367 459 c 0,13,14
 367 357 367 357 407 301.5 c 128,-1,15
 447 246 447 246 520 246 c 0,4,5
987 84 m 2,16,17
 934 -193 934 -193 796 -308.5 c 128,-1,18
 658 -424 658 -424 385 -424 c 0,19,20
 287 -424 287 -424 196 -409 c 128,-1,21
 105 -394 105 -394 18 -365 c 1,22,-1
 72 -100 l 1,23,24
 147 -145 147 -145 229.5 -167.5 c 128,-1,25
 312 -190 312 -190 399 -190 c 0,26,27
 524 -190 524 -190 594.5 -131.5 c 128,-1,28
 665 -73 665 -73 688 51 c 2,29,-1
 715 184 l 1,30,31
 661 101 661 101 583.5 58.5 c 128,-1,32
 506 16 506 16 410 16 c 0,33,34
 253 16 253 16 160.5 120.5 c 128,-1,35
 68 225 68 225 68 403 c 0,36,37
 68 542 68 542 110 683 c 128,-1,38
 152 824 152 824 225 932 c 0,39,40
 295 1035 295 1035 395.5 1093 c 128,-1,41
 496 1151 496 1151 602 1151 c 0,42,43
 706 1151 706 1151 773.5 1096 c 128,-1,44
 841 1041 841 1041 862 938 c 1,45,-1
 897 1120 l 1,46,-1
 1190 1120 l 1,47,-1
 987 84 l 2,16,17
EndSplineSet
EndChar

StartChar: Gcommaaccent
Encoding: 290 290 228
Width: 1233
GlyphClass: 3
Flags: W
LayerCount: 2
Fore
SplineSet
490 -187 m 1,0,-1
 772 -187 l 1,1,-1
 536 -493 l 1,2,-1
 342 -493 l 1,3,-1
 490 -187 l 1,0,-1
991 94 m 1,4,5
 921 35 921 35 823 3 c 128,-1,6
 725 -29 725 -29 610 -29 c 0,7,8
 368 -29 368 -29 235 116 c 128,-1,9
 102 261 102 261 102 524 c 0,10,11
 102 739 102 739 174.5 949 c 128,-1,12
 247 1159 247 1159 367 1294 c 0,13,14
 465 1405 465 1405 595 1462.5 c 128,-1,15
 725 1520 725 1520 877 1520 c 0,16,17
 958 1520 958 1520 1036.5 1502 c 128,-1,18
 1115 1484 1115 1484 1192 1448 c 1,19,-1
 1126 1120 l 1,20,21
 1075 1187 1075 1187 1006 1222 c 128,-1,22
 937 1257 937 1257 856 1257 c 0,23,24
 785 1257 785 1257 720.5 1227.5 c 128,-1,25
 656 1198 656 1198 604 1141 c 0,26,27
 563 1094 563 1094 528.5 1031 c 128,-1,28
 494 968 494 968 469 891 c 0,29,30
 437 793 437 793 420 701.5 c 128,-1,31
 403 610 403 610 403 532 c 0,32,33
 403 388 403 388 467 309.5 c 128,-1,34
 531 231 531 231 647 231 c 0,35,36
 683 231 683 231 714.5 239.5 c 128,-1,37
 746 248 746 248 770 264 c 1,38,-1
 827 555 l 1,39,-1
 621 555 l 1,40,-1
 670 803 l 1,41,-1
 1130 803 l 1,42,-1
 991 94 l 1,4,5
EndSplineSet
EndChar

StartChar: gcommaaccent
Encoding: 291 291 229
Width: 1233
GlyphClass: 3
Flags: W
LayerCount: 2
Fore
SplineSet
807 1273 m 1,0,-1
 525 1273 l 1,1,-1
 761 1579 l 1,2,-1
 955 1579 l 1,3,-1
 807 1273 l 1,0,-1
520 246 m 0,4,5
 635 246 635 246 719 378.5 c 128,-1,6
 803 511 803 511 803 698 c 0,7,8
 803 798 803 798 762 853.5 c 128,-1,9
 721 909 721 909 649 909 c 0,10,11
 535 909 535 909 451 776.5 c 128,-1,12
 367 644 367 644 367 459 c 0,13,14
 367 357 367 357 407 301.5 c 128,-1,15
 447 246 447 246 520 246 c 0,4,5
987 84 m 2,16,17
 934 -193 934 -193 796 -308.5 c 128,-1,18
 658 -424 658 -424 385 -424 c 0,19,20
 287 -424 287 -424 196 -409 c 128,-1,21
 105 -394 105 -394 18 -365 c 1,22,-1
 72 -100 l 1,23,24
 147 -145 147 -145 229.5 -167.5 c 128,-1,25
 312 -190 312 -190 399 -190 c 0,26,27
 524 -190 524 -190 594.5 -131.5 c 128,-1,28
 665 -73 665 -73 688 51 c 2,29,-1
 715 184 l 1,30,31
 661 101 661 101 583.5 58.5 c 128,-1,32
 506 16 506 16 410 16 c 0,33,34
 253 16 253 16 160.5 120.5 c 128,-1,35
 68 225 68 225 68 403 c 0,36,37
 68 542 68 542 110 683 c 128,-1,38
 152 824 152 824 225 932 c 0,39,40
 295 1035 295 1035 395.5 1093 c 128,-1,41
 496 1151 496 1151 602 1151 c 0,42,43
 706 1151 706 1151 773.5 1096 c 128,-1,44
 841 1041 841 1041 862 938 c 1,45,-1
 897 1120 l 1,46,-1
 1190 1120 l 1,47,-1
 987 84 l 2,16,17
EndSplineSet
EndChar

StartChar: Hcircumflex
Encoding: 292 292 230
Width: 1233
GlyphClass: 3
Flags: W
LayerCount: 2
Fore
SplineSet
664 1899 m 1,0,-1
 1012 1899 l 1,1,-1
 1163 1635 l 1,2,-1
 994 1635 l 1,3,-1
 830 1796 l 1,4,-1
 600 1635 l 1,5,-1
 420 1635 l 1,6,-1
 664 1899 l 1,0,-1
283 1493 m 1,7,-1
 578 1493 l 1,8,-1
 467 924 l 1,9,-1
 836 924 l 1,10,-1
 946 1493 l 1,11,-1
 1241 1493 l 1,12,-1
 950 0 l 1,13,-1
 655 0 l 1,14,-1
 784 664 l 1,15,-1
 416 664 l 1,16,-1
 287 0 l 1,17,-1
 -8 0 l 1,18,-1
 283 1493 l 1,7,-1
EndSplineSet
EndChar

StartChar: hcircumflex
Encoding: 293 293 231
Width: 1233
GlyphClass: 3
Flags: W
LayerCount: 2
Fore
SplineSet
378 1899 m 1,0,-1
 726 1899 l 1,1,-1
 877 1635 l 1,2,-1
 708 1635 l 1,3,-1
 544 1796 l 1,4,-1
 314 1635 l 1,5,-1
 134 1635 l 1,6,-1
 378 1899 l 1,0,-1
1102 728 m 2,7,-1
 961 0 l 1,8,-1
 668 0 l 1,9,-1
 801 682 l 2,10,11
 806 708 806 708 808.5 734.5 c 128,-1,12
 811 761 811 761 811 788 c 0,13,14
 811 846 811 846 782 876.5 c 128,-1,15
 753 907 753 907 698 907 c 0,16,17
 615 907 615 907 557 835.5 c 128,-1,18
 499 764 499 764 473 629 c 2,19,-1
 352 0 l 1,20,-1
 59 0 l 1,21,-1
 362 1556 l 1,22,-1
 653 1556 l 1,23,-1
 537 952 l 1,24,25
 585 1044 585 1044 669 1095.5 c 128,-1,26
 753 1147 753 1147 854 1147 c 0,27,28
 982 1147 982 1147 1051 1077.5 c 128,-1,29
 1120 1008 1120 1008 1120 881 c 0,30,31
 1120 851 1120 851 1115.5 813 c 128,-1,32
 1111 775 1111 775 1102 728 c 2,7,-1
EndSplineSet
EndChar

StartChar: Hbar
Encoding: 294 294 232
Width: 1233
GlyphClass: 2
Flags: W
LayerCount: 2
Fore
SplineSet
282 1493 m 1,0,-1
 577 1493 l 1,1,-1
 534 1269 l 1,2,-1
 903 1269 l 1,3,-1
 946 1493 l 1,4,-1
 1240 1493 l 1,5,-1
 1197 1269 l 1,6,-1
 1332 1269 l 1,7,-1
 1300 1105 l 1,8,-1
 1165 1105 l 1,9,-1
 950 0 l 1,10,-1
 656 0 l 1,11,-1
 785 664 l 1,12,-1
 416 664 l 1,13,-1
 287 0 l 1,14,-1
 -8 0 l 1,15,-1
 207 1105 l 1,16,-1
 73 1105 l 1,17,-1
 105 1269 l 1,18,-1
 239 1269 l 1,19,-1
 282 1493 l 1,0,-1
502 1105 m 1,20,-1
 467 924 l 1,21,-1
 836 924 l 1,22,-1
 871 1105 l 1,23,-1
 502 1105 l 1,20,-1
EndSplineSet
EndChar

StartChar: hbar
Encoding: 295 295 233
Width: 1233
GlyphClass: 2
Flags: W
LayerCount: 2
Fore
SplineSet
1061 727 m 2,0,-1
 920 0 l 1,1,-1
 629 0 l 1,2,-1
 761 682 l 2,3,4
 770 726 770 726 772 746 c 0,5,6
 774 773 774 773 774 800 c 0,7,8
 774 858 774 858 745 888.5 c 128,-1,9
 716 919 716 919 661 919 c 0,10,11
 578 919 578 919 520 847.5 c 128,-1,12
 462 776 462 776 436 641 c 2,13,-1
 312 0 l 1,14,-1
 21 0 l 1,15,-1
 268 1270 l 1,16,-1
 108 1270 l 1,17,-1
 140 1434 l 1,18,-1
 300 1434 l 1,19,-1
 323 1556 l 1,20,-1
 614 1556 l 1,21,-1
 591 1434 l 1,22,-1
 868 1434 l 1,23,-1
 836 1270 l 1,24,-1
 559 1270 l 1,25,-1
 497 952 l 1,26,27
 545 1044 545 1044 629 1095.5 c 128,-1,28
 713 1147 713 1147 814 1147 c 0,29,30
 942 1147 942 1147 1011 1077.5 c 128,-1,31
 1080 1008 1080 1008 1080 881 c 0,32,33
 1080 851 1080 851 1076 813 c 0,34,35
 1072 784 1072 784 1061 727 c 2,0,-1
EndSplineSet
EndChar

StartChar: Itilde
Encoding: 296 296 234
Width: 1233
GlyphClass: 3
Flags: W
LayerCount: 2
Fore
SplineSet
778 1686 m 2,0,-1
 729 1723 l 2,1,2
 704 1742 704 1742 687.5 1748.5 c 128,-1,3
 671 1755 671 1755 653 1755 c 0,4,5
 618 1755 618 1755 591.5 1723 c 128,-1,6
 565 1691 565 1691 555 1635 c 1,7,-1
 418 1635 l 1,8,9
 443 1763 443 1763 508.5 1832 c 128,-1,10
 574 1901 574 1901 670 1901 c 0,11,12
 707 1901 707 1901 739.5 1889 c 128,-1,13
 772 1877 772 1877 807 1850 c 2,14,-1
 860 1809 l 2,15,16
 875 1796 875 1796 893.5 1789 c 128,-1,17
 912 1782 912 1782 928 1782 c 0,18,19
 967 1782 967 1782 993 1812.5 c 128,-1,20
 1019 1843 1019 1843 1030 1901 c 1,21,-1
 1167 1901 l 1,22,23
 1141 1773 1141 1773 1076 1704 c 128,-1,24
 1011 1635 1011 1635 917 1635 c 0,25,26
 880 1635 880 1635 848 1646 c 128,-1,27
 816 1657 816 1657 778 1686 c 2,0,-1
266 1233 m 1,28,-1
 317 1493 l 1,29,-1
 1206 1493 l 1,30,-1
 1155 1233 l 1,31,-1
 858 1233 l 1,32,-1
 670 260 l 1,33,-1
 967 260 l 1,34,-1
 915 0 l 1,35,-1
 27 0 l 1,36,-1
 78 260 l 1,37,-1
 375 260 l 1,38,-1
 563 1233 l 1,39,-1
 266 1233 l 1,28,-1
EndSplineSet
EndChar

StartChar: itilde
Encoding: 297 297 235
Width: 1233
GlyphClass: 3
Flags: W
LayerCount: 2
Fore
SplineSet
695 1364 m 2,0,-1
 646 1401 l 2,1,2
 645 1402 645 1402 641 1405 c 0,3,4
 599 1438 599 1438 568 1438 c 0,5,6
 534 1438 534 1438 508 1403.5 c 128,-1,7
 482 1369 482 1369 472 1309 c 1,8,-1
 333 1309 l 1,9,10
 352 1439 352 1439 420 1516 c 128,-1,11
 488 1593 488 1593 583 1593 c 0,12,13
 617 1593 617 1593 647.5 1580.5 c 128,-1,14
 678 1568 678 1568 724 1532 c 2,15,-1
 775 1493 l 2,16,17
 794 1478 794 1478 812 1470 c 128,-1,18
 830 1462 830 1462 845 1462 c 0,19,20
 883 1462 883 1462 909 1495.5 c 128,-1,21
 935 1529 935 1529 945 1591 c 1,22,-1
 1084 1591 l 1,23,24
 1061 1450 1061 1450 998.5 1378.5 c 128,-1,25
 936 1307 936 1307 835 1307 c 0,26,27
 800 1307 800 1307 767.5 1320 c 128,-1,28
 735 1333 735 1333 695 1364 c 2,0,-1
309 1120 m 1,29,-1
 889 1120 l 1,30,-1
 715 225 l 1,31,-1
 1079 225 l 1,32,-1
 1036 0 l 1,33,-1
 14 0 l 1,34,-1
 57 225 l 1,35,-1
 422 225 l 1,36,-1
 553 895 l 1,37,-1
 266 895 l 1,38,-1
 309 1120 l 1,29,-1
EndSplineSet
EndChar

StartChar: Imacron
Encoding: 298 298 236
Width: 1233
GlyphClass: 3
Flags: W
LayerCount: 2
Fore
SplineSet
266 1233 m 1,0,-1
 317 1493 l 1,1,-1
 1206 1493 l 1,2,-1
 1155 1233 l 1,3,-1
 858 1233 l 1,4,-1
 670 260 l 1,5,-1
 967 260 l 1,6,-1
 915 0 l 1,7,-1
 27 0 l 1,8,-1
 78 260 l 1,9,-1
 375 260 l 1,10,-1
 563 1233 l 1,11,-1
 266 1233 l 1,0,-1
519 1870 m 1,12,-1
 1150 1870 l 1,13,-1
 1114 1682 l 1,14,-1
 483 1682 l 1,15,-1
 519 1870 l 1,12,-1
EndSplineSet
EndChar

StartChar: imacron
Encoding: 299 299 237
Width: 1233
GlyphClass: 3
Flags: W
LayerCount: 2
Fore
SplineSet
309 1120 m 1,0,-1
 889 1120 l 1,1,-1
 715 225 l 1,2,-1
 1079 225 l 1,3,-1
 1036 0 l 1,4,-1
 14 0 l 1,5,-1
 57 225 l 1,6,-1
 422 225 l 1,7,-1
 553 895 l 1,8,-1
 266 895 l 1,9,-1
 309 1120 l 1,0,-1
459 1556 m 1,10,-1
 1090 1556 l 1,11,-1
 1053 1368 l 1,12,-1
 422 1368 l 1,13,-1
 459 1556 l 1,10,-1
EndSplineSet
EndChar

StartChar: Ibreve
Encoding: 300 300 238
Width: 1233
GlyphClass: 3
Flags: W
LayerCount: 2
Fore
SplineSet
508 1899 m 1,0,-1
 651 1899 l 1,1,2
 661 1839 661 1839 702 1811.5 c 128,-1,3
 743 1784 743 1784 822 1784 c 0,4,5
 893 1784 893 1784 946 1814.5 c 128,-1,6
 999 1845 999 1845 1022 1899 c 1,7,-1
 1176 1899 l 1,8,9
 1136 1770 1136 1770 1037 1702.5 c 128,-1,10
 938 1635 938 1635 791 1635 c 0,11,12
 655 1635 655 1635 581.5 1702.5 c 128,-1,13
 508 1770 508 1770 508 1895 c 2,14,-1
 508 1899 l 1,0,-1
266 1233 m 1,15,-1
 317 1493 l 1,16,-1
 1206 1493 l 1,17,-1
 1155 1233 l 1,18,-1
 858 1233 l 1,19,-1
 670 260 l 1,20,-1
 967 260 l 1,21,-1
 915 0 l 1,22,-1
 27 0 l 1,23,-1
 78 260 l 1,24,-1
 375 260 l 1,25,-1
 563 1233 l 1,26,-1
 266 1233 l 1,15,-1
EndSplineSet
EndChar

StartChar: ibreve
Encoding: 301 301 239
Width: 1233
GlyphClass: 3
Flags: W
LayerCount: 2
Fore
SplineSet
446 1606 m 1,0,-1
 590 1606 l 1,1,-1
 590 1593 l 2,2,3
 590 1532 590 1532 634 1496 c 128,-1,4
 678 1460 678 1460 754 1460 c 0,5,6
 835 1460 835 1460 893.5 1498.5 c 128,-1,7
 952 1537 952 1537 977 1606 c 1,8,-1
 1120 1606 l 1,9,10
 1091 1464 1091 1464 992 1386.5 c 128,-1,11
 893 1309 893 1309 741 1309 c 0,12,13
 593 1309 593 1309 519.5 1374.5 c 128,-1,14
 446 1440 446 1440 446 1573 c 2,15,-1
 446 1606 l 1,0,-1
309 1120 m 1,16,-1
 889 1120 l 1,17,-1
 715 225 l 1,18,-1
 1079 225 l 1,19,-1
 1036 0 l 1,20,-1
 14 0 l 1,21,-1
 57 225 l 1,22,-1
 422 225 l 1,23,-1
 553 895 l 1,24,-1
 266 895 l 1,25,-1
 309 1120 l 1,16,-1
EndSplineSet
EndChar

StartChar: Iogonek
Encoding: 302 302 240
Width: 1233
GlyphClass: 3
Flags: W
LayerCount: 2
Fore
SplineSet
306 1233 m 1,0,-1
 357 1493 l 1,1,-1
 1246 1493 l 1,2,-1
 1195 1233 l 1,3,-1
 898 1233 l 1,4,-1
 710 260 l 1,5,-1
 1007 260 l 1,6,-1
 955 0 l 1,7,-1
 67 0 l 1,8,-1
 118 260 l 1,9,-1
 415 260 l 1,10,-1
 603 1233 l 1,11,-1
 306 1233 l 1,0,-1
517 0 m 1,12,-1
 658 0 l 1,13,14
 577 -80 577 -80 551 -117 c 128,-1,15
 525 -154 525 -154 525 -180 c 0,16,17
 525 -213 525 -213 552 -233.5 c 128,-1,18
 579 -254 579 -254 623 -254 c 0,19,20
 661 -254 661 -254 702.5 -246.5 c 128,-1,21
 744 -239 744 -239 791 -223 c 1,22,-1
 760 -379 l 1,23,24
 711 -390 711 -390 665 -395.5 c 128,-1,25
 619 -401 619 -401 576 -401 c 0,26,27
 477 -401 477 -401 419 -362.5 c 128,-1,28
 361 -324 361 -324 361 -258 c 0,29,30
 361 -198 361 -198 400 -133.5 c 128,-1,31
 439 -69 439 -69 517 0 c 1,12,-1
EndSplineSet
EndChar

StartChar: iogonek
Encoding: 303 303 241
Width: 1233
GlyphClass: 3
Flags: W
LayerCount: 2
Fore
SplineSet
315 1120 m 1,0,-1
 895 1120 l 1,1,-1
 721 225 l 1,2,-1
 1085 225 l 1,3,-1
 1042 0 l 1,4,-1
 20 0 l 1,5,-1
 63 225 l 1,6,-1
 428 225 l 1,7,-1
 559 895 l 1,8,-1
 272 895 l 1,9,-1
 315 1120 l 1,0,-1
708 1665 m 1,10,-1
 1001 1665 l 1,11,-1
 934 1323 l 1,12,-1
 641 1323 l 1,13,-1
 708 1665 l 1,10,-1
537 0 m 1,14,-1
 678 0 l 1,15,16
 597 -80 597 -80 571 -117 c 128,-1,17
 545 -154 545 -154 545 -180 c 0,18,19
 545 -213 545 -213 572 -233.5 c 128,-1,20
 599 -254 599 -254 643 -254 c 0,21,22
 681 -254 681 -254 722.5 -246.5 c 128,-1,23
 764 -239 764 -239 811 -223 c 1,24,-1
 780 -379 l 1,25,26
 731 -390 731 -390 685 -395.5 c 128,-1,27
 639 -401 639 -401 596 -401 c 0,28,29
 497 -401 497 -401 439 -362.5 c 128,-1,30
 381 -324 381 -324 381 -258 c 0,31,32
 381 -198 381 -198 420 -133.5 c 128,-1,33
 459 -69 459 -69 537 0 c 1,14,-1
EndSplineSet
EndChar

StartChar: Idotaccent
Encoding: 304 304 242
Width: 1233
GlyphClass: 3
Flags: W
LayerCount: 2
Fore
SplineSet
703 1899 m 1,0,-1
 978 1899 l 1,1,-1
 930 1653 l 1,2,-1
 655 1653 l 1,3,-1
 703 1899 l 1,0,-1
266 1233 m 1,4,-1
 317 1493 l 1,5,-1
 1206 1493 l 1,6,-1
 1155 1233 l 1,7,-1
 858 1233 l 1,8,-1
 670 260 l 1,9,-1
 967 260 l 1,10,-1
 915 0 l 1,11,-1
 27 0 l 1,12,-1
 78 260 l 1,13,-1
 375 260 l 1,14,-1
 563 1233 l 1,15,-1
 266 1233 l 1,4,-1
EndSplineSet
EndChar

StartChar: dotlessi
Encoding: 305 305 243
Width: 1233
GlyphClass: 2
Flags: W
LayerCount: 2
Fore
SplineSet
309 1120 m 1,0,-1
 889 1120 l 1,1,-1
 715 225 l 1,2,-1
 1079 225 l 1,3,-1
 1036 0 l 1,4,-1
 14 0 l 1,5,-1
 57 225 l 1,6,-1
 422 225 l 1,7,-1
 553 895 l 1,8,-1
 266 895 l 1,9,-1
 309 1120 l 1,0,-1
EndSplineSet
EndChar

StartChar: IJ
Encoding: 306 306 244
Width: 1233
GlyphClass: 2
Flags: W
LayerCount: 2
Fore
SplineSet
635 74 m 1,0,-1
 697 418 l 1,1,2
 741 322 741 322 795 274.5 c 128,-1,3
 849 227 849 227 915 227 c 0,4,5
 989 227 989 227 1028.5 281 c 128,-1,6
 1068 335 1068 335 1093 475 c 2,7,-1
 1232 1229 l 1,8,-1
 1001 1229 l 1,9,-1
 1050 1489 l 1,10,-1
 1469 1489 l 1,11,-1
 1282 475 l 2,12,13
 1251 305 1251 305 1220 219 c 128,-1,14
 1189 133 1189 133 1142.5 78 c 128,-1,15
 1096 23 1096 23 1036.5 -5 c 128,-1,16
 977 -33 977 -33 904 -33 c 0,17,18
 833 -33 833 -33 766 -6.5 c 128,-1,19
 699 20 699 20 635 74 c 1,0,-1
243 1233 m 1,20,-1
 290 1493 l 1,21,-1
 859 1493 l 1,22,-1
 812 1233 l 1,23,-1
 621 1233 l 1,24,-1
 444 260 l 1,25,-1
 634 260 l 1,26,-1
 586 0 l 1,27,-1
 17 0 l 1,28,-1
 65 260 l 1,29,-1
 255 260 l 1,30,-1
 433 1233 l 1,31,-1
 243 1233 l 1,20,-1
EndSplineSet
EndChar

